<ttFont>
    <TTGlyph name=".notdef" xMin="87" yMin="0" xMax="863" yMax="1402">
      <contour>
        <pt x="87" y="0" on="1"/>
        <pt x="283" y="1402" on="1"/>
        <pt x="863" y="1402" on="1"/>
        <pt x="667" y="0" on="1"/>
      </contour>
      <contour>
        <pt x="261" y="123" on="1"/>
        <pt x="525" y="123" on="1"/>
        <pt x="687" y="1279" on="1"/>
        <pt x="421" y="1279" on="1"/>
      </contour>
    </TTGlyph>
    <TTGlyph name="A" xMin="-15" yMin="0" xMax="1317" yMax="1606">
      <contour>
        <pt x="825" y="1195" on="1"/>
        <pt x="727" y="957" on="1"/>
        <pt x="552" y="554" on="1"/>
        <pt x="911" y="554" on="1"/>
        <pt x="859" y="909" on="1"/>
      </contour>
      <contour>
        <pt x="720" y="1606" on="1"/>
        <pt x="1035" y="1606" on="1"/>
        <pt x="1317" y="0" on="1"/>
        <pt x="1001" y="0" on="1"/>
        <pt x="942" y="397" on="1"/>
        <pt x="493" y="397" on="1"/>
        <pt x="316" y="0" on="1"/>
        <pt x="-15" y="0" on="1"/>
      </contour>
    </TTGlyph>
    <TTGlyph name="AE" xMin="-15" yMin="0" xMax="1898" yMax="1605">
      <contour>
        <pt x="1240" y="961" on="1"/>
        <pt x="1784" y="961" on="1"/>
        <pt x="1759" y="728" on="1"/>
        <pt x="1217" y="728" on="1"/>
        <pt x="1164" y="260" on="1"/>
        <pt x="1773" y="260" on="1"/>
        <pt x="1746" y="0" on="1"/>
        <pt x="856" y="0" on="1"/>
        <pt x="893" y="349" on="1"/>
        <pt x="526" y="349" on="1"/>
        <pt x="327" y="0" on="1"/>
        <pt x="-15" y="0" on="1"/>
        <pt x="945" y="1605" on="1"/>
        <pt x="1898" y="1605" on="1"/>
        <pt x="1869" y="1347" on="1"/>
        <pt x="1282" y="1347" on="1"/>
      </contour>
      <contour>
        <pt x="916" y="571" on="1"/>
        <pt x="982" y="1119" on="1"/>
        <pt x="652" y="571" on="1"/>
      </contour>
    </TTGlyph>
    <TTGlyph name="AEacute" xMin="-15" yMin="0" xMax="1898" yMax="1605">
      <component glyphName="AE" x="0" y="0" flags="0x1004"/>
    </TTGlyph>
    <TTGlyph name="Aacute" xMin="-15" yMin="0" xMax="1317" yMax="2397">
      <component glyphName="A" x="0" y="0" flags="0x1204"/>
      <component glyphName="acute" x="274" y="1560" flags="0x1004"/>
    </TTGlyph>
    <TTGlyph name="Abreve" xMin="-15" yMin="0" xMax="1322" yMax="2044">
      <component glyphName="A" x="0" y="0" flags="0x1204"/>
      <component glyphName="breve" x="252" y="1615" flags="0x1004"/>
    </TTGlyph>
    <TTGlyph name="Acircumflex" xMin="-15" yMin="0" xMax="1317" yMax="2350">
      <component glyphName="A" x="0" y="0" flags="0x1204"/>
      <component glyphName="circumflex" x="323" y="1560" flags="0x1004"/>
    </TTGlyph>
    <TTGlyph name="Adieresis" xMin="-15" yMin="0" xMax="1391" yMax="2124">
      <component glyphName="A" x="0" y="0" flags="0x1204"/>
      <component glyphName="dieresis" x="267" y="1615" flags="0x1004"/>
    </TTGlyph>
    <TTGlyph name="Adotaccent" xMin="-15" yMin="0" xMax="1317" yMax="2181">
      <component glyphName="A" x="0" y="0" flags="0x1204"/>
      <component glyphName="dotaccent" x="535" y="1615" flags="0x1004"/>
    </TTGlyph>
    <TTGlyph name="Agrave" xMin="-15" yMin="0" xMax="1317" yMax="2420">
      <component glyphName="A" x="0" y="0" flags="0x1204"/>
      <component glyphName="grave" x="378" y="1560" flags="0x1004"/>
    </TTGlyph>
    <TTGlyph name="Ahungarumlaut" xMin="-15" yMin="0" xMax="1580" yMax="2452">
      <component glyphName="A" x="0" y="0" flags="0x1204"/>
      <component glyphName="hungarumlaut" x="272" y="1615" flags="0x1004"/>
    </TTGlyph>
    <TTGlyph name="Amacron" xMin="-15" yMin="0" xMax="1324" yMax="1991">
      <component glyphName="A" x="0" y="0" flags="0x1204"/>
      <component glyphName="macron#1" x="333" y="1615" flags="0x1004"/>
    </TTGlyph>
    <TTGlyph name="Aogonek" xMin="-15" yMin="-604" xMax="1317" yMax="1606">
      <component glyphName="A" x="0" y="0" flags="0x1204"/>
      <component glyphName="ogonek" x="766" y="0" flags="0x1004"/>
    </TTGlyph>
    <TTGlyph name="Aring" xMin="-15" yMin="0" xMax="1317" yMax="2368">
      <component glyphName="A" x="0" y="0" flags="0x1204"/>
      <component glyphName="ring" x="370" y="1560" flags="0x1004"/>
    </TTGlyph>
    <TTGlyph name="Atilde" xMin="-15" yMin="0" xMax="1317" yMax="2067">
      <component glyphName="A" x="0" y="0" flags="0x1204"/>
      <component glyphName="tilde" x="304" y="1560" flags="0x1004"/>
    </TTGlyph>
    <TTGlyph name="B" xMin="75" yMin="0" xMax="1323" yMax="1606">
      <contour>
        <pt x="679" y="955" on="1"/>
        <pt x="779" y="955" on="0"/>
        <pt x="914" y="993" on="0"/>
        <pt x="995" y="1056" on="0"/>
        <pt x="1029" y="1139" on="0"/>
        <pt x="1029" y="1184" on="1"/>
        <pt x="1030" y="1221" on="0"/>
        <pt x="1006" y="1290" on="0"/>
        <pt x="939" y="1342" on="0"/>
        <pt x="820" y="1373" on="0"/>
        <pt x="726" y="1373" on="1"/>
        <pt x="591" y="1373" on="1"/>
        <pt x="531" y="955" on="1"/>
      </contour>
      <contour>
        <pt x="587" y="233" on="1"/>
        <pt x="682" y="233" on="0"/>
        <pt x="833" y="262" on="0"/>
        <pt x="939" y="333" on="0"/>
        <pt x="996" y="451" on="0"/>
        <pt x="997" y="540" on="1"/>
        <pt x="997" y="592" on="0"/>
        <pt x="963" y="664" on="0"/>
        <pt x="888" y="710" on="0"/>
        <pt x="766" y="731" on="0"/>
        <pt x="678" y="731" on="1"/>
        <pt x="498" y="731" on="1"/>
        <pt x="427" y="233" on="1"/>
      </contour>
      <contour>
        <pt x="1314" y="553" on="1"/>
        <pt x="1313" y="497" on="0"/>
        <pt x="1286" y="372" on="0"/>
        <pt x="1219" y="249" on="0"/>
        <pt x="1107" y="136" on="0"/>
        <pt x="933" y="51" on="0"/>
        <pt x="691" y="0" on="0"/>
        <pt x="529" y="0" on="1"/>
        <pt x="75" y="0" on="1"/>
        <pt x="314" y="1606" on="1"/>
        <pt x="686" y="1606" on="1"/>
        <pt x="853" y="1606" on="0"/>
        <pt x="1094" y="1559" on="0"/>
        <pt x="1250" y="1466" on="0"/>
        <pt x="1324" y="1326" on="0"/>
        <pt x="1323" y="1233" on="1"/>
        <pt x="1322" y="1078" on="0"/>
        <pt x="1159" y="900" on="0"/>
        <pt x="994" y="870" on="1"/>
        <pt x="1063" y="855" on="0"/>
        <pt x="1181" y="800" on="0"/>
        <pt x="1267" y="720" on="0"/>
        <pt x="1315" y="616" on="0"/>
      </contour>
    </TTGlyph>
    <TTGlyph name="C" xMin="144" yMin="-38" xMax="1341" yMax="1629">
      <contour>
        <pt x="144" y="565" on="1"/>
        <pt x="144" y="706" on="0"/>
        <pt x="182" y="974" on="0"/>
        <pt x="263" y="1210" on="0"/>
        <pt x="390" y="1408" on="0"/>
        <pt x="567" y="1550" on="0"/>
        <pt x="798" y="1629" on="0"/>
        <pt x="942" y="1629" on="1"/>
        <pt x="1029" y="1629" on="0"/>
        <pt x="1166" y="1599" on="0"/>
        <pt x="1266" y="1562" on="0"/>
        <pt x="1329" y="1527" on="0"/>
        <pt x="1341" y="1522" on="1"/>
        <pt x="1235" y="1265" on="1"/>
        <pt x="1229" y="1266" on="0"/>
        <pt x="1174" y="1295" on="0"/>
        <pt x="1087" y="1329" on="0"/>
        <pt x="973" y="1356" on="0"/>
        <pt x="908" y="1356" on="1"/>
        <pt x="804" y="1356" on="0"/>
        <pt x="640" y="1244" on="0"/>
        <pt x="524" y="1043" on="0"/>
        <pt x="463" y="763" on="0"/>
        <pt x="463" y="595" on="1"/>
        <pt x="463" y="232" on="0"/>
        <pt x="745" y="232" on="1"/>
        <pt x="802" y="232" on="0"/>
        <pt x="910" y="258" on="0"/>
        <pt x="1001" y="294" on="0"/>
        <pt x="1069" y="331" on="0"/>
        <pt x="1086" y="341" on="1"/>
        <pt x="1141" y="94" on="1"/>
        <pt x="1108" y="68" on="0"/>
        <pt x="1016" y="20" on="0"/>
        <pt x="902" y="-16" on="0"/>
        <pt x="767" y="-38" on="0"/>
        <pt x="692" y="-38" on="1"/>
        <pt x="570" y="-38" on="0"/>
        <pt x="368" y="31" on="0"/>
        <pt x="224" y="177" on="0"/>
        <pt x="144" y="406" on="0"/>
      </contour>
    </TTGlyph>
    <TTGlyph name="Cacute" xMin="144" yMin="-38" xMax="1460" yMax="2381">
      <component glyphName="C" x="0" y="0" flags="0x1204"/>
      <component glyphName="acutecomb" x="448" y="1615" flags="0x1004"/>
    </TTGlyph>
    <TTGlyph name="Ccaron" xMin="144" yMin="-38" xMax="1476" yMax="2404">
      <component glyphName="C" x="0" y="0" flags="0x1204"/>
      <component glyphName="caron" x="463" y="1615" flags="0x1004"/>
    </TTGlyph>
    <TTGlyph name="Ccedilla" xMin="144" yMin="-620" xMax="1341" yMax="1629">
      <component glyphName="C" x="0" y="0" flags="0x1204"/>
      <component glyphName="cedilla" x="583" y="0" flags="0x1004"/>
    </TTGlyph>
    <TTGlyph name="Ccircumflex" xMin="144" yMin="-38" xMax="1341" yMax="2405">
      <component glyphName="C" x="0" y="0" flags="0x1204"/>
      <component glyphName="circumflex" x="357" y="1615" flags="0x1004"/>
    </TTGlyph>
    <TTGlyph name="Cdotaccent" xMin="144" yMin="-38" xMax="1341" yMax="2181">
      <component glyphName="C" x="0" y="0" flags="0x1204"/>
      <component glyphName="dotaccent" x="655" y="1615" flags="0x1004"/>
    </TTGlyph>
    <TTGlyph name="D" xMin="77" yMin="0" xMax="1425" yMax="1608">
      <contour>
        <pt x="1105" y="1007" on="1"/>
        <pt x="1106" y="1187" on="0"/>
        <pt x="982" y="1373" on="0"/>
        <pt x="852" y="1373" on="1"/>
        <pt x="603" y="1373" on="1"/>
        <pt x="430" y="230" on="1"/>
        <pt x="662" y="230" on="1"/>
        <pt x="741" y="230" on="0"/>
        <pt x="868" y="288" on="0"/>
        <pt x="966" y="392" on="0"/>
        <pt x="1036" y="536" on="0"/>
        <pt x="1082" y="708" on="0"/>
        <pt x="1104" y="904" on="0"/>
      </contour>
      <contour>
        <pt x="1425" y="1024" on="1"/>
        <pt x="1423" y="793" on="0"/>
        <pt x="1321" y="415" on="0"/>
        <pt x="1125" y="147" on="0"/>
        <pt x="835" y="0" on="0"/>
        <pt x="645" y="0" on="1"/>
        <pt x="77" y="0" on="1"/>
        <pt x="312" y="1608" on="1"/>
        <pt x="876" y="1608" on="1"/>
        <pt x="1002" y="1608" on="0"/>
        <pt x="1205" y="1541" on="0"/>
        <pt x="1349" y="1399" on="0"/>
        <pt x="1426" y="1178" on="0"/>
      </contour>
    </TTGlyph>
    <TTGlyph name="Dcaron" xMin="77" yMin="0" xMax="1425" yMax="2404">
      <component glyphName="D" x="0" y="0" flags="0x1204"/>
      <component glyphName="caron" x="272" y="1615" flags="0x1004"/>
    </TTGlyph>
    <TTGlyph name="Dcroat" xMin="77" yMin="0" xMax="1425" yMax="1608">
      <component glyphName="D" x="0" y="0" flags="0x1204"/>
      <component glyphName="macron#1" x="-50" y="567" flags="0x1004"/>
    </TTGlyph>
    <TTGlyph name="E" xMin="77" yMin="0" xMax="1251" yMax="1606">
      <contour>
        <pt x="1042" y="0" on="1"/>
        <pt x="77" y="0" on="1"/>
        <pt x="304" y="1606" on="1"/>
        <pt x="1251" y="1606" on="1"/>
        <pt x="1216" y="1373" on="1"/>
        <pt x="584" y="1373" on="1"/>
        <pt x="524" y="955" on="1"/>
        <pt x="1089" y="955" on="1"/>
        <pt x="1058" y="729" on="1"/>
        <pt x="490" y="729" on="1"/>
        <pt x="417" y="229" on="1"/>
        <pt x="1086" y="229" on="1"/>
      </contour>
    </TTGlyph>
    <TTGlyph name="Eacute" xMin="77" yMin="0" xMax="1251" yMax="2397">
      <component glyphName="E" x="0" y="0" flags="0x1204"/>
      <component glyphName="acute" x="312" y="1560" flags="0x1004"/>
    </TTGlyph>
    <TTGlyph name="Ebreve" xMin="77" yMin="0" xMax="1251" yMax="2044">
      <component glyphName="E" x="0" y="0" flags="0x1204"/>
      <component glyphName="uni0306" x="94" y="1615" flags="0x1004"/>
    </TTGlyph>
    <TTGlyph name="Ecaron" xMin="77" yMin="0" xMax="1251" yMax="2393">
      <component glyphName="E" x="0" y="0" flags="0x1204"/>
      <component glyphName="caron" x="186" y="1604" flags="0x1004"/>
    </TTGlyph>
    <TTGlyph name="Ecircumflex" xMin="77" yMin="0" xMax="1251" yMax="2394">
      <component glyphName="E" x="0" y="0" flags="0x1204"/>
      <component glyphName="circumflex" x="186" y="1604" flags="0x1004"/>
    </TTGlyph>
    <TTGlyph name="Edieresis" xMin="77" yMin="0" xMax="1251" yMax="2124">
      <component glyphName="E" x="0" y="0" flags="0x1204"/>
      <component glyphName="dieresis" x="109" y="1615" flags="0x1004"/>
    </TTGlyph>
    <TTGlyph name="Edotaccent" xMin="77" yMin="0" xMax="1251" yMax="2181">
      <component glyphName="E" x="0" y="0" flags="0x1204"/>
      <component glyphName="dotaccent" x="377" y="1615" flags="0x1004"/>
    </TTGlyph>
    <TTGlyph name="Egrave" xMin="77" yMin="0" xMax="1251" yMax="2420">
      <component glyphName="E" x="0" y="0" flags="0x1204"/>
      <component glyphName="grave" x="416" y="1560" flags="0x1004"/>
    </TTGlyph>
    <TTGlyph name="Emacron" xMin="77" yMin="0" xMax="1251" yMax="1991">
      <component glyphName="E" x="0" y="0" flags="0x1204"/>
      <component glyphName="macron#1" x="175" y="1615" flags="0x1004"/>
    </TTGlyph>
    <TTGlyph name="Eng" xMin="83" yMin="-642" xMax="1571" yMax="1605">
      <contour>
        <pt x="665" y="-409" on="1"/>
        <pt x="776" y="-390" on="0"/>
        <pt x="907" y="-332" on="0"/>
        <pt x="978" y="-245" on="0"/>
        <pt x="1008" y="-126" on="0"/>
        <pt x="1019" y="-45" on="1"/>
        <pt x="1008" y="0" on="1"/>
        <pt x="845" y="378" on="1"/>
        <pt x="536" y="1158" on="1"/>
        <pt x="375" y="0" on="1"/>
        <pt x="83" y="0" on="1"/>
        <pt x="316" y="1605" on="1"/>
        <pt x="653" y="1605" on="1"/>
        <pt x="809" y="1233" on="1"/>
        <pt x="1125" y="450" on="1"/>
        <pt x="1278" y="1605" on="1"/>
        <pt x="1571" y="1605" on="1"/>
        <pt x="1337" y="0" on="1"/>
        <pt x="1336" y="-8" on="1"/>
        <pt x="1326" y="-80" on="0"/>
        <pt x="1298" y="-225" on="0"/>
        <pt x="1247" y="-360" on="0"/>
        <pt x="1164" y="-479" on="0"/>
        <pt x="1034" y="-572" on="0"/>
        <pt x="847" y="-633" on="0"/>
        <pt x="718" y="-642" on="1"/>
      </contour>
    </TTGlyph>
    <TTGlyph name="Eogonek" xMin="77" yMin="-604" xMax="1251" yMax="1606">
      <component glyphName="E" x="0" y="0" flags="0x1204"/>
      <component glyphName="ogonek" x="466" y="0" flags="0x1004"/>
    </TTGlyph>
    <TTGlyph name="Eth" xMin="108" yMin="0" xMax="1438" yMax="1607">
      <contour>
        <pt x="1438" y="1027" on="1"/>
        <pt x="1439" y="797" on="0"/>
        <pt x="1340" y="418" on="0"/>
        <pt x="1143" y="148" on="0"/>
        <pt x="853" y="0" on="0"/>
        <pt x="664" y="0" on="1"/>
        <pt x="108" y="0" on="1"/>
        <pt x="210" y="736" on="1"/>
        <pt x="109" y="736" on="1"/>
        <pt x="137" y="918" on="1"/>
        <pt x="236" y="918" on="1"/>
        <pt x="332" y="1607" on="1"/>
        <pt x="887" y="1607" on="1"/>
        <pt x="1012" y="1607" on="0"/>
        <pt x="1216" y="1540" on="0"/>
        <pt x="1361" y="1399" on="0"/>
        <pt x="1439" y="1180" on="0"/>
      </contour>
      <contour>
        <pt x="1120" y="1009" on="1"/>
        <pt x="1120" y="1189" on="0"/>
        <pt x="994" y="1372" on="0"/>
        <pt x="865" y="1372" on="1"/>
        <pt x="625" y="1372" on="1"/>
        <pt x="558" y="918" on="1"/>
        <pt x="806" y="918" on="1"/>
        <pt x="777" y="736" on="1"/>
        <pt x="533" y="736" on="1"/>
        <pt x="460" y="231" on="1"/>
        <pt x="680" y="231" on="1"/>
        <pt x="799" y="231" on="0"/>
        <pt x="966" y="358" on="0"/>
        <pt x="1071" y="573" on="0"/>
        <pt x="1119" y="854" on="0"/>
      </contour>
    </TTGlyph>
    <TTGlyph name="Euro" xMin="111" yMin="-38" xMax="1432" yMax="1612">
      <contour>
        <pt x="961" y="752" on="1"/>
        <pt x="936" y="566" on="1"/>
        <pt x="586" y="566" on="1"/>
        <pt x="588" y="537" on="0"/>
        <pt x="593" y="474" on="0"/>
        <pt x="600" y="448" on="1"/>
        <pt x="623" y="337" on="0"/>
        <pt x="752" y="230" on="0"/>
        <pt x="854" y="230" on="1"/>
        <pt x="915" y="230" on="0"/>
        <pt x="1027" y="258" on="0"/>
        <pt x="1116" y="294" on="0"/>
        <pt x="1176" y="329" on="0"/>
        <pt x="1187" y="336" on="1"/>
        <pt x="1244" y="92" on="1"/>
        <pt x="1217" y="68" on="0"/>
        <pt x="1132" y="22" on="0"/>
        <pt x="1020" y="-15" on="0"/>
        <pt x="884" y="-38" on="0"/>
        <pt x="806" y="-38" on="1"/>
        <pt x="702" y="-38" on="0"/>
        <pt x="521" y="18" on="0"/>
        <pt x="381" y="135" on="0"/>
        <pt x="290" y="318" on="0"/>
        <pt x="275" y="445" on="1"/>
        <pt x="275" y="452" on="1"/>
        <pt x="275" y="454" on="0"/>
        <pt x="276" y="456" on="1"/>
        <pt x="272" y="482" on="0"/>
        <pt x="269" y="537" on="0"/>
        <pt x="269" y="566" on="1"/>
        <pt x="111" y="566" on="1"/>
        <pt x="137" y="752" on="1"/>
        <pt x="275" y="752" on="1"/>
        <pt x="279" y="791" on="0"/>
        <pt x="290" y="866" on="1"/>
        <pt x="112" y="866" on="1"/>
        <pt x="138" y="1052" on="1"/>
        <pt x="331" y="1052" on="1"/>
        <pt x="367" y="1175" on="0"/>
        <pt x="490" y="1381" on="0"/>
        <pt x="666" y="1530" on="0"/>
        <pt x="899" y="1612" on="0"/>
        <pt x="1045" y="1612" on="1"/>
        <pt x="1129" y="1612" on="0"/>
        <pt x="1264" y="1583" on="0"/>
        <pt x="1363" y="1547" on="0"/>
        <pt x="1423" y="1512" on="0"/>
        <pt x="1432" y="1506" on="1"/>
        <pt x="1329" y="1252" on="1"/>
        <pt x="1329" y="1251" on="0"/>
        <pt x="1300" y="1268" on="0"/>
        <pt x="1246" y="1292" on="0"/>
        <pt x="1170" y="1319" on="0"/>
        <pt x="1124" y="1328" on="1"/>
        <pt x="1095" y="1334" on="0"/>
        <pt x="1033" y="1341" on="0"/>
        <pt x="1001" y="1340" on="1"/>
        <pt x="885" y="1338" on="0"/>
        <pt x="712" y="1193" on="0"/>
        <pt x="658" y="1052" on="1"/>
        <pt x="1052" y="1052" on="1"/>
        <pt x="1027" y="866" on="1"/>
        <pt x="607" y="866" on="1"/>
        <pt x="602" y="842" on="0"/>
        <pt x="595" y="784" on="0"/>
        <pt x="592" y="752" on="1"/>
      </contour>
    </TTGlyph>
    <TTGlyph name="F" xMin="75" yMin="0" xMax="1299" yMax="1606">
      <contour>
        <pt x="500" y="728" on="1"/>
        <pt x="389" y="0" on="1"/>
        <pt x="75" y="0" on="1"/>
        <pt x="312" y="1606" on="1"/>
        <pt x="1299" y="1606" on="1"/>
        <pt x="1262" y="1343" on="1"/>
        <pt x="587" y="1343" on="1"/>
        <pt x="533" y="955" on="1"/>
        <pt x="1153" y="955" on="1"/>
        <pt x="1119" y="728" on="1"/>
      </contour>
    </TTGlyph>
    <TTGlyph name="G" xMin="144" yMin="-38" xMax="1429" yMax="1629">
      <contour>
        <pt x="144" y="565" on="1"/>
        <pt x="144" y="821" on="0"/>
        <pt x="268" y="1217" on="0"/>
        <pt x="484" y="1488" on="0"/>
        <pt x="776" y="1629" on="0"/>
        <pt x="943" y="1629" on="1"/>
        <pt x="1036" y="1627" on="0"/>
        <pt x="1194" y="1594" on="0"/>
        <pt x="1319" y="1549" on="0"/>
        <pt x="1407" y="1502" on="0"/>
        <pt x="1429" y="1487" on="1"/>
        <pt x="1322" y="1258" on="1"/>
        <pt x="1315" y="1261" on="0"/>
        <pt x="1252" y="1293" on="0"/>
        <pt x="1148" y="1328" on="0"/>
        <pt x="1008" y="1356" on="0"/>
        <pt x="924" y="1356" on="1"/>
        <pt x="816" y="1356" on="0"/>
        <pt x="644" y="1240" on="0"/>
        <pt x="525" y="1035" on="0"/>
        <pt x="462" y="754" on="0"/>
        <pt x="462" y="589" on="1"/>
        <pt x="462" y="493" on="0"/>
        <pt x="498" y="357" on="0"/>
        <pt x="570" y="271" on="0"/>
        <pt x="676" y="231" on="0"/>
        <pt x="746" y="231" on="1"/>
        <pt x="786" y="231" on="0"/>
        <pt x="882" y="255" on="0"/>
        <pt x="972" y="288" on="0"/>
        <pt x="1045" y="325" on="0"/>
        <pt x="1061" y="338" on="1"/>
        <pt x="1064" y="362" on="0"/>
        <pt x="1072" y="408" on="0"/>
        <pt x="1075" y="432" on="1"/>
        <pt x="1108" y="650" on="1"/>
        <pt x="804" y="650" on="1"/>
        <pt x="835" y="879" on="1"/>
        <pt x="1401" y="879" on="1"/>
        <pt x="1277" y="0" on="1"/>
        <pt x="1075" y="0" on="1"/>
        <pt x="1062" y="145" on="1"/>
        <pt x="1039" y="110" on="0"/>
        <pt x="965" y="44" on="0"/>
        <pt x="870" y="-7" on="0"/>
        <pt x="758" y="-38" on="0"/>
        <pt x="698" y="-38" on="1"/>
        <pt x="144" y="-38" on="0"/>
      </contour>
    </TTGlyph>
    <TTGlyph name="Gbreve" xMin="144" yMin="-38" xMax="1429" yMax="2044">
      <component glyphName="G" x="0" y="0" flags="0x1204"/>
      <component glyphName="uni0306" x="216" y="1615" flags="0x1004"/>
    </TTGlyph>
    <TTGlyph name="Gcircumflex" xMin="144" yMin="-38" xMax="1429" yMax="2405">
      <component glyphName="G" x="0" y="0" flags="0x1204"/>
      <component glyphName="circumflex" x="342" y="1615" flags="0x1004"/>
    </TTGlyph>
    <TTGlyph name="Gcommaaccent" xMin="144" yMin="-877" xMax="1429" yMax="1629">
      <component glyphName="G" x="0" y="0" flags="0x1204"/>
      <component glyphName="commaaccent" x="332" y="0" flags="0x1004"/>
    </TTGlyph>
    <TTGlyph name="Gdotaccent" xMin="144" yMin="-38" xMax="1429" yMax="2181">
      <component glyphName="G" x="0" y="0" flags="0x1204"/>
      <component glyphName="dotaccent" x="499" y="1615" flags="0x1004"/>
    </TTGlyph>
    <TTGlyph name="H" xMin="74" yMin="0" xMax="1521" yMax="1605">
      <contour>
        <pt x="970" y="0" on="1"/>
        <pt x="1079" y="724" on="1"/>
        <pt x="497" y="724" on="1"/>
        <pt x="390" y="0" on="1"/>
        <pt x="74" y="0" on="1"/>
        <pt x="314" y="1605" on="1"/>
        <pt x="629" y="1605" on="1"/>
        <pt x="531" y="951" on="1"/>
        <pt x="1110" y="951" on="1"/>
        <pt x="1210" y="1605" on="1"/>
        <pt x="1521" y="1605" on="1"/>
        <pt x="1281" y="0" on="1"/>
      </contour>
    </TTGlyph>
    <TTGlyph name="Hbar" xMin="74" yMin="0" xMax="1621" yMax="1605">
      <contour>
        <pt x="1588" y="1196" on="1"/>
        <pt x="156" y="1196" on="1"/>
        <pt x="187" y="1422" on="1"/>
        <pt x="1621" y="1422" on="1"/>
      </contour>
      <contour>
        <pt x="970" y="0" on="1"/>
        <pt x="1079" y="724" on="1"/>
        <pt x="497" y="724" on="1"/>
        <pt x="390" y="0" on="1"/>
        <pt x="74" y="0" on="1"/>
        <pt x="314" y="1605" on="1"/>
        <pt x="629" y="1605" on="1"/>
        <pt x="531" y="951" on="1"/>
        <pt x="1110" y="951" on="1"/>
        <pt x="1210" y="1605" on="1"/>
        <pt x="1521" y="1605" on="1"/>
        <pt x="1281" y="0" on="1"/>
      </contour>
    </TTGlyph>
    <TTGlyph name="Hcircumflex" xMin="74" yMin="0" xMax="1521" yMax="2405">
      <component glyphName="H" x="0" y="0" flags="0x1204"/>
      <component glyphName="circumflex" x="212" y="1615" flags="0x1004"/>
    </TTGlyph>
    <TTGlyph name="I" xMin="36" yMin="0" xMax="958" yMax="1605">
      <contour>
        <pt x="61" y="152" on="1"/>
        <pt x="240" y="152" on="1"/>
        <pt x="445" y="1446" on="1"/>
        <pt x="267" y="1446" on="1"/>
        <pt x="296" y="1605" on="1"/>
        <pt x="958" y="1605" on="1"/>
        <pt x="930" y="1446" on="1"/>
        <pt x="749" y="1446" on="1"/>
        <pt x="544" y="152" on="1"/>
        <pt x="725" y="152" on="1"/>
        <pt x="696" y="0" on="1"/>
        <pt x="36" y="0" on="1"/>
      </contour>
    </TTGlyph>
    <TTGlyph name="Iacute" xMin="36" yMin="0" xMax="962" yMax="2397">
      <component glyphName="I" x="0" y="0" flags="0x1204"/>
      <component glyphName="acute" x="143" y="1560" flags="0x1004"/>
    </TTGlyph>
    <TTGlyph name="Ibreve" xMin="36" yMin="0" xMax="998" yMax="2044">
      <component glyphName="I" x="0" y="0" flags="0x1204"/>
      <component glyphName="uni0306" x="-72" y="1615" flags="0x1004"/>
    </TTGlyph>
    <TTGlyph name="Icircumflex" xMin="36" yMin="0" xMax="982" yMax="2395">
      <component glyphName="I" x="0" y="0" flags="0x1204"/>
      <component glyphName="circumflex" x="39" y="1605" flags="0x1004"/>
    </TTGlyph>
    <TTGlyph name="Idieresis" xMin="36" yMin="0" xMax="1159" yMax="2069">
      <component glyphName="I" x="0" y="0" flags="0x1204"/>
      <component glyphName="dieresis" x="35" y="1560" flags="0x1004"/>
    </TTGlyph>
    <TTGlyph name="Idotaccent" xMin="115" yMin="0" xMax="663" yMax="1670">
      <contour>
        <pt x="661" y="1492" on="1"/>
        <pt x="656" y="1454" on="0"/>
        <pt x="621" y="1389" on="0"/>
        <pt x="568" y="1340" on="0"/>
        <pt x="503" y="1312" on="0"/>
        <pt x="468" y="1312" on="1"/>
        <pt x="439" y="1312" on="0"/>
        <pt x="387" y="1334" on="0"/>
        <pt x="348" y="1374" on="0"/>
        <pt x="326" y="1428" on="0"/>
        <pt x="327" y="1461" on="1"/>
        <pt x="327" y="1502" on="0"/>
        <pt x="360" y="1578" on="0"/>
        <pt x="414" y="1636" on="0"/>
        <pt x="484" y="1670" on="0"/>
        <pt x="521" y="1670" on="1"/>
        <pt x="552" y="1670" on="0"/>
        <pt x="604" y="1647" on="0"/>
        <pt x="642" y="1606" on="0"/>
        <pt x="663" y="1551" on="0"/>
        <pt x="663" y="1520" on="1"/>
        <pt x="663" y="1512" on="0"/>
        <pt x="662" y="1500" on="0"/>
      </contour>
      <contour>
        <pt x="420" y="0" on="1"/>
        <pt x="115" y="0" on="1"/>
        <pt x="279" y="1127" on="1"/>
        <pt x="584" y="1127" on="1"/>
      </contour>
    </TTGlyph>
    <TTGlyph name="Igrave" xMin="36" yMin="0" xMax="958" yMax="2420">
      <component glyphName="I" x="0" y="0" flags="0x1204"/>
      <component glyphName="grave" x="247" y="1560" flags="0x1004"/>
    </TTGlyph>
    <TTGlyph name="Imacron" xMin="36" yMin="0" xMax="999" yMax="1991">
      <component glyphName="I" x="0" y="0" flags="0x1204"/>
      <component glyphName="macron#1" x="8" y="1615" flags="0x1004"/>
    </TTGlyph>
    <TTGlyph name="Iogonek" xMin="36" yMin="-604" xMax="958" yMax="1605">
      <component glyphName="I" x="0" y="0" flags="0x1204"/>
      <component glyphName="ogonek" x="299" y="0" flags="0x1004"/>
    </TTGlyph>
    <TTGlyph name="Itilde" xMin="36" yMin="0" xMax="1055" yMax="2112">
      <component glyphName="I" x="0" y="0" flags="0x1204"/>
      <component glyphName="tilde" x="67" y="1605" flags="0x1004"/>
    </TTGlyph>
    <TTGlyph name="J" xMin="68" yMin="-88" xMax="887" yMax="1605">
      <contour>
        <pt x="68" y="145" on="1"/>
        <pt x="179" y="164" on="0"/>
        <pt x="310" y="222" on="0"/>
        <pt x="381" y="309" on="0"/>
        <pt x="411" y="428" on="0"/>
        <pt x="422" y="509" on="1"/>
        <pt x="575" y="1605" on="1"/>
        <pt x="887" y="1605" on="1"/>
        <pt x="739" y="546" on="1"/>
        <pt x="729" y="474" on="0"/>
        <pt x="701" y="329" on="0"/>
        <pt x="650" y="194" on="0"/>
        <pt x="567" y="75" on="0"/>
        <pt x="437" y="-18" on="0"/>
        <pt x="250" y="-79" on="0"/>
        <pt x="121" y="-88" on="1"/>
      </contour>
    </TTGlyph>
    <TTGlyph name="Jcircumflex" xMin="68" yMin="-88" xMax="1082" yMax="2405">
      <component glyphName="J" x="0" y="0" flags="0x1204"/>
      <component glyphName="circumflex" x="139" y="1615" flags="0x1004"/>
    </TTGlyph>
    <TTGlyph name="K" xMin="83" yMin="0" xMax="1483" yMax="1605">
      <contour>
        <pt x="1132" y="1605" on="1"/>
        <pt x="1483" y="1605" on="1"/>
        <pt x="864" y="802" on="1"/>
        <pt x="918" y="696" on="1"/>
        <pt x="1313" y="0" on="1"/>
        <pt x="951" y="0" on="1"/>
        <pt x="567" y="696" on="1"/>
        <pt x="493" y="696" on="1"/>
        <pt x="397" y="0" on="1"/>
        <pt x="83" y="0" on="1"/>
        <pt x="307" y="1605" on="1"/>
        <pt x="621" y="1605" on="1"/>
        <pt x="526" y="920" on="1"/>
        <pt x="603" y="920" on="1"/>
      </contour>
    </TTGlyph>
    <TTGlyph name="Kcommaaccent" xMin="83" yMin="-877" xMax="1483" yMax="1605">
      <component glyphName="K" x="0" y="0" flags="0x1204"/>
      <component glyphName="commaaccent" x="329" y="0" flags="0x1004"/>
    </TTGlyph>
    <TTGlyph name="L" xMin="83" yMin="0" xMax="1043" yMax="1605">
      <contour>
        <pt x="1011" y="0" on="1"/>
        <pt x="83" y="0" on="1"/>
        <pt x="309" y="1605" on="1"/>
        <pt x="622" y="1605" on="1"/>
        <pt x="428" y="229" on="1"/>
        <pt x="1043" y="229" on="1"/>
      </contour>
    </TTGlyph>
    <TTGlyph name="Lacute" xMin="83" yMin="0" xMax="1081" yMax="2381">
      <component glyphName="L" x="0" y="0" flags="0x1204"/>
      <component glyphName="acutecomb" x="69" y="1615" flags="0x1004"/>
    </TTGlyph>
    <TTGlyph name="Lcaron" xMin="83" yMin="0" xMax="1203" yMax="1606">
      <component glyphName="L" x="0" y="0" flags="0x1204"/>
      <component glyphName="quoteright" x="675" y="-11" flags="0x1004"/>
    </TTGlyph>
    <TTGlyph name="Lcommaaccent" xMin="83" yMin="-877" xMax="1043" yMax="1605">
      <component glyphName="L" x="0" y="0" flags="0x1204"/>
      <component glyphName="commaaccent" x="109" y="0" flags="0x1004"/>
    </TTGlyph>
    <TTGlyph name="Ldot" xMin="83" yMin="0" xMax="1043" yMax="1605">
      <component glyphName="L" x="0" y="0" flags="0x1204"/>
    </TTGlyph>
    <TTGlyph name="Lslash" xMin="48" yMin="0" xMax="1043" yMax="1605">
      <component glyphName="L" x="0" y="0" flags="0x1204"/>
      <component glyphName="endash" x="-74" y="212" flags="0x1004"/>
    </TTGlyph>
    <TTGlyph name="M" xMin="83" yMin="0" xMax="1806" yMax="1605">
      <contour>
        <pt x="697" y="0" on="1"/>
        <pt x="647" y="307" on="1"/>
        <pt x="534" y="1159" on="1"/>
        <pt x="368" y="0" on="1"/>
        <pt x="83" y="0" on="1"/>
        <pt x="125" y="296" on="0"/>
        <pt x="207" y="880" on="0"/>
        <pt x="249" y="1176" on="1"/>
        <pt x="318" y="1605" on="1"/>
        <pt x="705" y="1605" on="1"/>
        <pt x="772" y="1173" on="1"/>
        <pt x="856" y="561" on="1"/>
        <pt x="882" y="310" on="1"/>
        <pt x="971" y="551" on="1"/>
        <pt x="1247" y="1214" on="1"/>
        <pt x="1418" y="1605" on="1"/>
        <pt x="1806" y="1605" on="1"/>
        <pt x="1746" y="1063" on="1"/>
        <pt x="1594" y="0" on="1"/>
        <pt x="1307" y="0" on="1"/>
        <pt x="1471" y="1163" on="1"/>
        <pt x="1096" y="233" on="1"/>
        <pt x="989" y="0" on="1"/>
      </contour>
    </TTGlyph>
    <TTGlyph name="N" xMin="83" yMin="0" xMax="1571" yMax="1605">
      <contour>
        <pt x="1337" y="0" on="1"/>
        <pt x="1008" y="0" on="1"/>
        <pt x="845" y="378" on="1"/>
        <pt x="536" y="1158" on="1"/>
        <pt x="375" y="0" on="1"/>
        <pt x="83" y="0" on="1"/>
        <pt x="316" y="1605" on="1"/>
        <pt x="653" y="1605" on="1"/>
        <pt x="809" y="1233" on="1"/>
        <pt x="1125" y="450" on="1"/>
        <pt x="1278" y="1605" on="1"/>
        <pt x="1571" y="1605" on="1"/>
      </contour>
    </TTGlyph>
    <TTGlyph name="Nacute" xMin="83" yMin="0" xMax="1571" yMax="2381">
      <component glyphName="N" x="0" y="0" flags="0x1204"/>
      <component glyphName="acutecomb" x="333" y="1615" flags="0x1004"/>
    </TTGlyph>
    <TTGlyph name="Ncaron" xMin="83" yMin="0" xMax="1571" yMax="1605">
      <component glyphName="N" x="0" y="0" flags="0x1004"/>
    </TTGlyph>
    <TTGlyph name="Ncommaaccent" xMin="83" yMin="-877" xMax="1571" yMax="1605">
      <component glyphName="N" x="0" y="0" flags="0x1204"/>
      <component glyphName="commaaccent" x="373" y="0" flags="0x1004"/>
    </TTGlyph>
    <TTGlyph name="Ntilde" xMin="83" yMin="0" xMax="1571" yMax="2067">
      <component glyphName="N" x="0" y="0" flags="0x1204"/>
      <component glyphName="tilde" x="502" y="1560" flags="0x1004"/>
    </TTGlyph>
    <TTGlyph name="O" xMin="144" yMin="-38" xMax="1465" yMax="1627">
      <contour>
        <pt x="1465" y="979" on="1"/>
        <pt x="1465" y="817" on="0"/>
        <pt x="1409" y="540" on="0"/>
        <pt x="1306" y="314" on="0"/>
        <pt x="1164" y="141" on="0"/>
        <pt x="991" y="23" on="0"/>
        <pt x="794" y="-38" on="0"/>
        <pt x="689" y="-38" on="1"/>
        <pt x="563" y="-38" on="0"/>
        <pt x="362" y="40" on="0"/>
        <pt x="220" y="198" on="0"/>
        <pt x="144" y="433" on="0"/>
        <pt x="144" y="591" on="1"/>
        <pt x="144" y="834" on="0"/>
        <pt x="266" y="1218" on="0"/>
        <pt x="477" y="1485" on="0"/>
        <pt x="761" y="1627" on="0"/>
        <pt x="924" y="1627" on="1"/>
        <pt x="1045" y="1627" on="0"/>
        <pt x="1244" y="1546" on="0"/>
        <pt x="1387" y="1384" on="0"/>
        <pt x="1465" y="1141" on="0"/>
      </contour>
      <contour>
        <pt x="1146" y="973" on="1"/>
        <pt x="1146" y="1165" on="0"/>
        <pt x="1023" y="1358" on="0"/>
        <pt x="886" y="1358" on="1"/>
        <pt x="805" y="1358" on="0"/>
        <pt x="652" y="1265" on="0"/>
        <pt x="535" y="1080" on="0"/>
        <pt x="464" y="801" on="0"/>
        <pt x="464" y="615" on="1"/>
        <pt x="464" y="232" on="0"/>
        <pt x="727" y="232" on="1"/>
        <pt x="825" y="232" on="0"/>
        <pt x="980" y="345" on="0"/>
        <pt x="1088" y="543" on="0"/>
        <pt x="1145" y="814" on="0"/>
      </contour>
    </TTGlyph>
    <TTGlyph name="OE" xMin="144" yMin="-38" xMax="2202" yMax="1627">
      <contour>
        <pt x="2002" y="0" on="1"/>
        <pt x="1038" y="0" on="1"/>
        <pt x="1057" y="121" on="1"/>
        <pt x="1032" y="80" on="0"/>
        <pt x="946" y="21" on="0"/>
        <pt x="844" y="-19" on="0"/>
        <pt x="736" y="-38" on="0"/>
        <pt x="690" y="-38" on="1"/>
        <pt x="564" y="-38" on="0"/>
        <pt x="362" y="41" on="0"/>
        <pt x="220" y="198" on="0"/>
        <pt x="144" y="436" on="0"/>
        <pt x="144" y="595" on="1"/>
        <pt x="144" y="757" on="0"/>
        <pt x="199" y="1035" on="0"/>
        <pt x="300" y="1265" on="0"/>
        <pt x="442" y="1442" on="0"/>
        <pt x="615" y="1564" on="0"/>
        <pt x="814" y="1627" on="0"/>
        <pt x="922" y="1627" on="1"/>
        <pt x="968" y="1627" on="0"/>
        <pt x="1068" y="1606" on="0"/>
        <pt x="1158" y="1560" on="0"/>
        <pt x="1227" y="1488" on="0"/>
        <pt x="1242" y="1437" on="1"/>
        <pt x="1255" y="1606" on="1"/>
        <pt x="2202" y="1606" on="1"/>
        <pt x="2167" y="1373" on="1"/>
        <pt x="1536" y="1373" on="1"/>
        <pt x="1479" y="955" on="1"/>
        <pt x="2043" y="955" on="1"/>
        <pt x="2014" y="729" on="1"/>
        <pt x="1447" y="729" on="1"/>
        <pt x="1377" y="229" on="1"/>
        <pt x="2046" y="229" on="1"/>
      </contour>
      <contour>
        <pt x="1145" y="970" on="1"/>
        <pt x="1145" y="1163" on="0"/>
        <pt x="1023" y="1358" on="0"/>
        <pt x="884" y="1358" on="1"/>
        <pt x="803" y="1358" on="0"/>
        <pt x="651" y="1266" on="0"/>
        <pt x="534" y="1081" on="0"/>
        <pt x="464" y="803" on="0"/>
        <pt x="464" y="618" on="1"/>
        <pt x="464" y="232" on="0"/>
        <pt x="727" y="232" on="1"/>
        <pt x="825" y="232" on="0"/>
        <pt x="979" y="344" on="0"/>
        <pt x="1087" y="542" on="0"/>
        <pt x="1144" y="812" on="0"/>
      </contour>
    </TTGlyph>
    <TTGlyph name="Oacute" xMin="144" yMin="-38" xMax="1465" yMax="2397">
      <component glyphName="O" x="0" y="0" flags="0x1204"/>
      <component glyphName="acute" x="450" y="1560" flags="0x1004"/>
    </TTGlyph>
    <TTGlyph name="Obreve" xMin="144" yMin="-38" xMax="1465" yMax="2044">
      <component glyphName="O" x="0" y="0" flags="0x1204"/>
      <component glyphName="uni0306" x="234" y="1615" flags="0x1004"/>
    </TTGlyph>
    <TTGlyph name="Ocircumflex" xMin="144" yMin="-38" xMax="1465" yMax="2350">
      <component glyphName="O" x="0" y="0" flags="0x1204"/>
      <component glyphName="circumflex" x="499" y="1560" flags="0x1004"/>
    </TTGlyph>
    <TTGlyph name="Odieresis" xMin="144" yMin="-38" xMax="1465" yMax="2124">
      <component glyphName="O" x="0" y="0" flags="0x1204"/>
      <component glyphName="dieresis" x="249" y="1615" flags="0x1004"/>
    </TTGlyph>
    <TTGlyph name="Ograve" xMin="144" yMin="-38" xMax="1465" yMax="2420">
      <component glyphName="O" x="0" y="0" flags="0x1204"/>
      <component glyphName="grave" x="554" y="1560" flags="0x1004"/>
    </TTGlyph>
    <TTGlyph name="Ohungarumlaut" xMin="144" yMin="-38" xMax="1562" yMax="2452">
      <component glyphName="O" x="0" y="0" flags="0x1204"/>
      <component glyphName="hungarumlaut" x="254" y="1615" flags="0x1004"/>
    </TTGlyph>
    <TTGlyph name="Omacron" xMin="144" yMin="-38" xMax="1465" yMax="1991">
      <component glyphName="O" x="0" y="0" flags="0x1204"/>
      <component glyphName="macron#1" x="315" y="1615" flags="0x1004"/>
    </TTGlyph>
    <TTGlyph name="Oslash" xMin="151" yMin="-179" xMax="1460" yMax="1769">
      <contour>
        <pt x="1186" y="983" on="1"/>
        <pt x="1182" y="1093" on="0"/>
        <pt x="1134" y="1252" on="0"/>
        <pt x="1086" y="1302" on="1"/>
        <pt x="676" y="216" on="1"/>
        <pt x="688" y="213" on="0"/>
        <pt x="719" y="211" on="0"/>
        <pt x="739" y="211" on="1"/>
        <pt x="851" y="211" on="0"/>
        <pt x="1023" y="329" on="0"/>
        <pt x="1137" y="536" on="0"/>
        <pt x="1191" y="818" on="0"/>
      </contour>
      <contour>
        <pt x="1460" y="979" on="1"/>
        <pt x="1465" y="817" on="0"/>
        <pt x="1418" y="540" on="0"/>
        <pt x="1323" y="314" on="0"/>
        <pt x="1185" y="141" on="0"/>
        <pt x="1016" y="23" on="0"/>
        <pt x="821" y="-38" on="0"/>
        <pt x="716" y="-38" on="1"/>
        <pt x="651" y="-38" on="0"/>
        <pt x="585" y="-26" on="1"/>
        <pt x="528" y="-179" on="1"/>
        <pt x="379" y="-122" on="1"/>
        <pt x="435" y="26" on="1"/>
        <pt x="300" y="98" on="0"/>
        <pt x="157" y="378" on="0"/>
        <pt x="151" y="591" on="1"/>
        <pt x="146" y="753" on="0"/>
        <pt x="193" y="1032" on="0"/>
        <pt x="286" y="1263" on="0"/>
        <pt x="423" y="1441" on="0"/>
        <pt x="592" y="1564" on="0"/>
        <pt x="790" y="1627" on="0"/>
        <pt x="899" y="1627" on="1"/>
        <pt x="941" y="1627" on="0"/>
        <pt x="1010" y="1621" on="0"/>
        <pt x="1036" y="1613" on="1"/>
        <pt x="1095" y="1769" on="1"/>
        <pt x="1240" y="1713" on="1"/>
        <pt x="1181" y="1557" on="1"/>
        <pt x="1311" y="1483" on="0"/>
        <pt x="1454" y="1195" on="0"/>
      </contour>
      <contour>
        <pt x="881" y="1379" on="1"/>
        <pt x="825" y="1379" on="0"/>
        <pt x="711" y="1336" on="0"/>
        <pt x="606" y="1250" on="0"/>
        <pt x="517" y="1121" on="0"/>
        <pt x="452" y="949" on="0"/>
        <pt x="419" y="735" on="0"/>
        <pt x="424" y="606" on="1"/>
        <pt x="431" y="379" on="0"/>
        <pt x="532" y="283" on="1"/>
        <pt x="946" y="1372" on="1"/>
        <pt x="930" y="1375" on="0"/>
        <pt x="898" y="1379" on="0"/>
      </contour>
    </TTGlyph>
    <TTGlyph name="Oslashacute" xMin="151" yMin="-179" xMax="1460" yMax="1769">
      <component glyphName="Oslash" x="0" y="0" flags="0x1004"/>
    </TTGlyph>
    <TTGlyph name="Otilde" xMin="144" yMin="-38" xMax="1468" yMax="2067">
      <component glyphName="O" x="0" y="0" flags="0x1204"/>
      <component glyphName="tilde" x="480" y="1560" flags="0x1004"/>
    </TTGlyph>
    <TTGlyph name="P" xMin="75" yMin="0" xMax="1344" yMax="1606">
      <contour>
        <pt x="579" y="803" on="1"/>
        <pt x="813" y="803" on="0"/>
        <pt x="1042" y="974" on="0"/>
        <pt x="1042" y="1151" on="1"/>
        <pt x="1042" y="1204" on="0"/>
        <pt x="1006" y="1287" on="0"/>
        <pt x="922" y="1344" on="0"/>
        <pt x="785" y="1373" on="0"/>
        <pt x="685" y="1373" on="1"/>
        <pt x="592" y="1373" on="1"/>
        <pt x="515" y="803" on="1"/>
      </contour>
      <contour>
        <pt x="314" y="1606" on="1"/>
        <pt x="721" y="1606" on="1"/>
        <pt x="887" y="1606" on="0"/>
        <pt x="1124" y="1555" on="0"/>
        <pt x="1275" y="1450" on="0"/>
        <pt x="1345" y="1292" on="0"/>
        <pt x="1344" y="1185" on="1"/>
        <pt x="1342" y="1023" on="0"/>
        <pt x="1246" y="800" on="0"/>
        <pt x="1050" y="661" on="0"/>
        <pt x="749" y="600" on="0"/>
        <pt x="542" y="600" on="1"/>
        <pt x="477" y="600" on="1"/>
        <pt x="389" y="0" on="1"/>
        <pt x="75" y="0" on="1"/>
      </contour>
    </TTGlyph>
    <TTGlyph name="Q" xMin="144" yMin="-428" xMax="1477" yMax="1629">
      <contour>
        <pt x="480" y="760" on="1"/>
        <pt x="465" y="650" on="0"/>
        <pt x="468" y="568" on="1"/>
        <pt x="471" y="394" on="0"/>
        <pt x="604" y="231" on="0"/>
        <pt x="734" y="231" on="1"/>
        <pt x="904" y="231" on="0"/>
        <pt x="1105" y="500" on="0"/>
        <pt x="1144" y="773" on="1"/>
        <pt x="1152" y="832" on="0"/>
        <pt x="1161" y="937" on="0"/>
        <pt x="1161" y="985" on="1"/>
        <pt x="1161" y="1356" on="0"/>
        <pt x="894" y="1356" on="1"/>
        <pt x="806" y="1356" on="0"/>
        <pt x="668" y="1275" on="0"/>
        <pt x="566" y="1122" on="0"/>
        <pt x="498" y="900" on="0"/>
      </contour>
      <contour>
        <pt x="1477" y="1005" on="1"/>
        <pt x="1477" y="941" on="0"/>
        <pt x="1461" y="764" on="0"/>
        <pt x="1418" y="567" on="0"/>
        <pt x="1339" y="364" on="0"/>
        <pt x="1213" y="185" on="0"/>
        <pt x="1033" y="43" on="0"/>
        <pt x="910" y="6" on="1"/>
        <pt x="1165" y="-273" on="1"/>
        <pt x="989" y="-428" on="1"/>
        <pt x="630" y="-29" on="1"/>
        <pt x="522" y="-15" on="0"/>
        <pt x="343" y="67" on="0"/>
        <pt x="215" y="213" on="0"/>
        <pt x="144" y="429" on="0"/>
        <pt x="144" y="578" on="1"/>
        <pt x="144" y="648" on="0"/>
        <pt x="160" y="812" on="0"/>
        <pt x="197" y="986" on="0"/>
        <pt x="257" y="1161" on="0"/>
        <pt x="346" y="1324" on="0"/>
        <pt x="465" y="1465" on="0"/>
        <pt x="620" y="1569" on="0"/>
        <pt x="813" y="1629" on="0"/>
        <pt x="931" y="1629" on="1"/>
        <pt x="1045" y="1629" on="0"/>
        <pt x="1243" y="1561" on="0"/>
        <pt x="1390" y="1412" on="0"/>
        <pt x="1476" y="1174" on="0"/>
      </contour>
    </TTGlyph>
    <TTGlyph name="R" xMin="73" yMin="0" xMax="1378" yMax="1606">
      <contour>
        <pt x="882" y="0" on="1"/>
        <pt x="901" y="139" on="0"/>
        <pt x="933" y="369" on="0"/>
        <pt x="948" y="478" on="1"/>
        <pt x="949" y="500" on="0"/>
        <pt x="952" y="536" on="0"/>
        <pt x="951" y="555" on="1"/>
        <pt x="950" y="605" on="0"/>
        <pt x="925" y="666" on="0"/>
        <pt x="874" y="701" on="0"/>
        <pt x="799" y="713" on="0"/>
        <pt x="749" y="714" on="1"/>
        <pt x="729" y="716" on="0"/>
        <pt x="684" y="717" on="0"/>
        <pt x="659" y="717" on="1"/>
        <pt x="499" y="717" on="1"/>
        <pt x="386" y="0" on="1"/>
        <pt x="73" y="0" on="1"/>
        <pt x="316" y="1606" on="1"/>
        <pt x="691" y="1606" on="1"/>
        <pt x="960" y="1606" on="0"/>
        <pt x="1078" y="1581" on="1"/>
        <pt x="1232" y="1549" on="0"/>
        <pt x="1380" y="1393" on="0"/>
        <pt x="1378" y="1257" on="1"/>
        <pt x="1377" y="1172" on="0"/>
        <pt x="1324" y="1021" on="0"/>
        <pt x="1210" y="905" on="0"/>
        <pt x="1029" y="830" on="0"/>
        <pt x="901" y="822" on="1"/>
        <pt x="992" y="817" on="0"/>
        <pt x="1129" y="784" on="0"/>
        <pt x="1220" y="716" on="0"/>
        <pt x="1267" y="609" on="0"/>
        <pt x="1267" y="530" on="1"/>
        <pt x="1267" y="508" on="0"/>
        <pt x="1262" y="459" on="0"/>
        <pt x="1257" y="427" on="1"/>
        <pt x="1240" y="324" on="0"/>
        <pt x="1208" y="113" on="0"/>
        <pt x="1191" y="0" on="1"/>
      </contour>
      <contour>
        <pt x="615" y="909" on="1"/>
        <pt x="841" y="909" on="0"/>
        <pt x="1078" y="1044" on="0"/>
        <pt x="1080" y="1196" on="1"/>
        <pt x="1081" y="1249" on="0"/>
        <pt x="1048" y="1317" on="0"/>
        <pt x="967" y="1357" on="0"/>
        <pt x="832" y="1373" on="0"/>
        <pt x="730" y="1373" on="1"/>
        <pt x="597" y="1373" on="1"/>
        <pt x="528" y="909" on="1"/>
      </contour>
    </TTGlyph>
    <TTGlyph name="Racute" xMin="73" yMin="0" xMax="1378" yMax="2381">
      <component glyphName="R" x="0" y="0" flags="0x1204"/>
      <component glyphName="acutecomb" x="232" y="1615" flags="0x1004"/>
    </TTGlyph>
    <TTGlyph name="Rcaron" xMin="73" yMin="0" xMax="1378" yMax="2404">
      <component glyphName="R" x="0" y="0" flags="0x1204"/>
      <component glyphName="caron" x="247" y="1615" flags="0x1004"/>
    </TTGlyph>
    <TTGlyph name="Rcommaaccent" xMin="73" yMin="-877" xMax="1378" yMax="1606">
      <component glyphName="R" x="0" y="0" flags="0x1204"/>
      <component glyphName="commaaccent" x="272" y="0" flags="0x1004"/>
    </TTGlyph>
    <TTGlyph name="S" xMin="119" yMin="-38" xMax="1269" yMax="1629">
      <contour>
        <pt x="1226" y="1272" on="1"/>
        <pt x="1224" y="1273" on="0"/>
        <pt x="1186" y="1287" on="0"/>
        <pt x="1125" y="1306" on="0"/>
        <pt x="1047" y="1327" on="0"/>
        <pt x="962" y="1344" on="0"/>
        <pt x="876" y="1356" on="0"/>
        <pt x="838" y="1356" on="1"/>
        <pt x="781" y="1356" on="0"/>
        <pt x="668" y="1347" on="0"/>
        <pt x="577" y="1315" on="0"/>
        <pt x="520" y="1253" on="0"/>
        <pt x="520" y="1201" on="1"/>
        <pt x="520" y="1159" on="0"/>
        <pt x="558" y="1101" on="0"/>
        <pt x="620" y="1059" on="0"/>
        <pt x="699" y="1026" on="0"/>
        <pt x="740" y="1008" on="1"/>
        <pt x="933" y="921" on="1"/>
        <pt x="1011" y="885" on="0"/>
        <pt x="1117" y="796" on="0"/>
        <pt x="1181" y="690" on="0"/>
        <pt x="1209" y="567" on="0"/>
        <pt x="1209" y="498" on="1"/>
        <pt x="1209" y="388" on="0"/>
        <pt x="1127" y="193" on="0"/>
        <pt x="972" y="47" on="0"/>
        <pt x="749" y="-38" on="0"/>
        <pt x="608" y="-38" on="1"/>
        <pt x="551" y="-38" on="0"/>
        <pt x="435" y="-28" on="0"/>
        <pt x="327" y="-13" on="0"/>
        <pt x="233" y="5" on="0"/>
        <pt x="163" y="22" on="0"/>
        <pt x="121" y="33" on="0"/>
        <pt x="119" y="35" on="1"/>
        <pt x="170" y="320" on="1"/>
        <pt x="173" y="318" on="0"/>
        <pt x="213" y="303" on="0"/>
        <pt x="277" y="284" on="0"/>
        <pt x="359" y="262" on="0"/>
        <pt x="448" y="244" on="0"/>
        <pt x="539" y="232" on="0"/>
        <pt x="581" y="232" on="1"/>
        <pt x="899" y="232" on="0"/>
        <pt x="899" y="469" on="1"/>
        <pt x="899" y="576" on="0"/>
        <pt x="783" y="630" on="1"/>
        <pt x="534" y="748" on="1"/>
        <pt x="503" y="763" on="0"/>
        <pt x="441" y="793" on="0"/>
        <pt x="410" y="809" on="1"/>
        <pt x="365" y="831" on="0"/>
        <pt x="292" y="899" on="0"/>
        <pt x="241" y="983" on="0"/>
        <pt x="213" y="1082" on="0"/>
        <pt x="213" y="1137" on="1"/>
        <pt x="213" y="1248" on="0"/>
        <pt x="299" y="1429" on="0"/>
        <pt x="454" y="1558" on="0"/>
        <pt x="671" y="1629" on="0"/>
        <pt x="802" y="1629" on="1"/>
        <pt x="890" y="1629" on="0"/>
        <pt x="1055" y="1608" on="0"/>
        <pt x="1184" y="1583" on="0"/>
        <pt x="1264" y="1559" on="0"/>
        <pt x="1269" y="1556" on="1"/>
      </contour>
    </TTGlyph>
    <TTGlyph name="Sacute" xMin="119" yMin="-38" xMax="1269" yMax="2381">
      <component glyphName="S" x="0" y="0" flags="0x1204"/>
      <component glyphName="acutecomb" x="200" y="1615" flags="0x1004"/>
    </TTGlyph>
    <TTGlyph name="Scaron" xMin="119" yMin="-38" xMax="1269" yMax="2415">
      <component glyphName="S" x="0" y="0" flags="0x1204"/>
      <component glyphName="caron" x="247" y="1626" flags="0x1004"/>
    </TTGlyph>
    <TTGlyph name="Scedilla" xMin="119" yMin="-620" xMax="1269" yMax="1629">
      <component glyphName="S" x="0" y="0" flags="0x1204"/>
      <component glyphName="cedilla" x="496" y="0" flags="0x1004"/>
    </TTGlyph>
    <TTGlyph name="Scircumflex" xMin="119" yMin="-38" xMax="1269" yMax="2405">
      <component glyphName="S" x="0" y="0" flags="0x1204"/>
      <component glyphName="circumflex" x="220" y="1615" flags="0x1004"/>
    </TTGlyph>
    <TTGlyph name="Scommaaccent" xMin="119" yMin="-877" xMax="1269" yMax="1629">
      <component glyphName="S" x="0" y="0" flags="0x1204"/>
      <component glyphName="commaaccent" x="278" y="0" flags="0x1004"/>
    </TTGlyph>
    <TTGlyph name="T" xMin="135" yMin="0" xMax="1277" yMax="1606">
      <contour>
        <pt x="1243" y="1372" on="1"/>
        <pt x="846" y="1372" on="1"/>
        <pt x="655" y="0" on="1"/>
        <pt x="346" y="0" on="1"/>
        <pt x="536" y="1372" on="1"/>
        <pt x="135" y="1372" on="1"/>
        <pt x="168" y="1606" on="1"/>
        <pt x="1277" y="1606" on="1"/>
      </contour>
    </TTGlyph>
    <TTGlyph name="Tbar" xMin="135" yMin="0" xMax="1277" yMax="1606">
      <component glyphName="T" x="0" y="0" flags="0x1204"/>
      <component glyphName="macron#1" x="51" y="557" flags="0x1004"/>
    </TTGlyph>
    <TTGlyph name="Tcaron" xMin="135" yMin="0" xMax="1277" yMax="1606">
      <component glyphName="T" x="0" y="0" flags="0x1004"/>
    </TTGlyph>
    <TTGlyph name="Tcommaaccent" xMin="135" yMin="-877" xMax="1277" yMax="1606">
      <component glyphName="T" x="0" y="0" flags="0x1204"/>
      <component glyphName="commaaccent" x="252" y="0" flags="0x1004"/>
    </TTGlyph>
    <TTGlyph name="Thorn" xMin="83" yMin="0" xMax="1321" yMax="1608">
      <contour>
        <pt x="306" y="1608" on="1"/>
        <pt x="621" y="1608" on="1"/>
        <pt x="603" y="1481" on="1"/>
        <pt x="704" y="1481" on="1"/>
        <pt x="872" y="1479" on="0"/>
        <pt x="1107" y="1434" on="0"/>
        <pt x="1255" y="1341" on="0"/>
        <pt x="1322" y="1194" on="0"/>
        <pt x="1321" y="1091" on="1"/>
        <pt x="1321" y="931" on="0"/>
        <pt x="1227" y="698" on="0"/>
        <pt x="1032" y="546" on="0"/>
        <pt x="734" y="473" on="0"/>
        <pt x="530" y="473" on="1"/>
        <pt x="462" y="473" on="1"/>
        <pt x="396" y="0" on="1"/>
        <pt x="83" y="0" on="1"/>
      </contour>
      <contour>
        <pt x="1008" y="983" on="1"/>
        <pt x="1010" y="1001" on="0"/>
        <pt x="1013" y="1034" on="0"/>
        <pt x="1012" y="1049" on="1"/>
        <pt x="1011" y="1094" on="0"/>
        <pt x="978" y="1159" on="0"/>
        <pt x="901" y="1201" on="0"/>
        <pt x="771" y="1221" on="0"/>
        <pt x="674" y="1221" on="1"/>
        <pt x="566" y="1221" on="1"/>
        <pt x="498" y="735" on="1"/>
        <pt x="565" y="735" on="1"/>
        <pt x="690" y="735" on="0"/>
        <pt x="855" y="763" on="0"/>
        <pt x="955" y="823" on="0"/>
        <pt x="1001" y="917" on="0"/>
      </contour>
    </TTGlyph>
    <TTGlyph name="U" xMin="186" yMin="-38" xMax="1539" yMax="1606">
      <contour>
        <pt x="736" y="221" on="1"/>
        <pt x="819" y="222" on="0"/>
        <pt x="938" y="271" on="0"/>
        <pt x="1022" y="387" on="0"/>
        <pt x="1079" y="582" on="0"/>
        <pt x="1102" y="731" on="1"/>
        <pt x="1226" y="1606" on="1"/>
        <pt x="1539" y="1606" on="1"/>
        <pt x="1418" y="735" on="1"/>
        <pt x="1396" y="581" on="0"/>
        <pt x="1320" y="347" on="0"/>
        <pt x="1217" y="175" on="0"/>
        <pt x="1091" y="60" on="0"/>
        <pt x="946" y="-9" on="0"/>
        <pt x="786" y="-38" on="0"/>
        <pt x="701" y="-38" on="1"/>
        <pt x="585" y="-38" on="0"/>
        <pt x="395" y="16" on="0"/>
        <pt x="260" y="144" on="0"/>
        <pt x="186" y="357" on="0"/>
        <pt x="186" y="515" on="1"/>
        <pt x="186" y="565" on="0"/>
        <pt x="193" y="670" on="0"/>
        <pt x="201" y="730" on="1"/>
        <pt x="229" y="935" on="0"/>
        <pt x="290" y="1368" on="0"/>
        <pt x="322" y="1606" on="1"/>
        <pt x="637" y="1606" on="1"/>
        <pt x="603" y="1367" on="0"/>
        <pt x="541" y="931" on="0"/>
        <pt x="512" y="725" on="1"/>
        <pt x="504" y="661" on="0"/>
        <pt x="496" y="562" on="0"/>
        <pt x="496" y="521" on="1"/>
        <pt x="496" y="438" on="0"/>
        <pt x="521" y="324" on="0"/>
        <pt x="578" y="253" on="0"/>
        <pt x="670" y="221" on="0"/>
      </contour>
    </TTGlyph>
    <TTGlyph name="Uacute" xMin="186" yMin="-38" xMax="1539" yMax="2397">
      <component glyphName="U" x="0" y="0" flags="0x1204"/>
      <component glyphName="acute" x="442" y="1560" flags="0x1004"/>
    </TTGlyph>
    <TTGlyph name="Ubreve" xMin="186" yMin="-38" xMax="1539" yMax="2044">
      <component glyphName="U" x="0" y="0" flags="0x1204"/>
      <component glyphName="uni0306" x="292" y="1615" flags="0x1004"/>
    </TTGlyph>
    <TTGlyph name="Ucircumflex" xMin="186" yMin="-38" xMax="1539" yMax="2350">
      <component glyphName="U" x="0" y="0" flags="0x1204"/>
      <component glyphName="circumflex" x="491" y="1560" flags="0x1004"/>
    </TTGlyph>
    <TTGlyph name="Udieresis" xMin="186" yMin="-38" xMax="1539" yMax="2124">
      <component glyphName="U" x="0" y="0" flags="0x1204"/>
      <component glyphName="dieresis" x="307" y="1615" flags="0x1004"/>
    </TTGlyph>
    <TTGlyph name="Ugrave" xMin="186" yMin="-38" xMax="1539" yMax="2420">
      <component glyphName="U" x="0" y="0" flags="0x1204"/>
      <component glyphName="grave" x="546" y="1560" flags="0x1004"/>
    </TTGlyph>
    <TTGlyph name="Uhungarumlaut" xMin="186" yMin="-38" xMax="1620" yMax="2452">
      <component glyphName="U" x="0" y="0" flags="0x1204"/>
      <component glyphName="hungarumlaut" x="312" y="1615" flags="0x1004"/>
    </TTGlyph>
    <TTGlyph name="Umacron" xMin="186" yMin="-38" xMax="1539" yMax="1991">
      <component glyphName="U" x="0" y="0" flags="0x1204"/>
      <component glyphName="macron#1" x="373" y="1615" flags="0x1004"/>
    </TTGlyph>
    <TTGlyph name="Uogonek" xMin="186" yMin="-604" xMax="1539" yMax="1606">
      <component glyphName="U" x="0" y="0" flags="0x1204"/>
      <component glyphName="ogonek" x="664" y="0" flags="0x1004"/>
    </TTGlyph>
    <TTGlyph name="Uring" xMin="186" yMin="-38" xMax="1539" yMax="2423">
      <component glyphName="U" x="0" y="0" flags="0x1204"/>
      <component glyphName="ring" x="575" y="1615" flags="0x1004"/>
    </TTGlyph>
    <TTGlyph name="Utilde" xMin="186" yMin="-38" xMax="1539" yMax="2067">
      <component glyphName="U" x="0" y="0" flags="0x1204"/>
      <component glyphName="tilde" x="472" y="1560" flags="0x1004"/>
    </TTGlyph>
    <TTGlyph name="V" xMin="151" yMin="-1" xMax="1419" yMax="1606">
      <contour>
        <pt x="444" y="1603" on="1"/>
        <pt x="596" y="393" on="1"/>
        <pt x="1112" y="1606" on="1"/>
        <pt x="1419" y="1606" on="1"/>
        <pt x="727" y="-1" on="1"/>
        <pt x="360" y="-1" on="1"/>
        <pt x="151" y="1603" on="1"/>
      </contour>
    </TTGlyph>
    <TTGlyph name="W" xMin="214" yMin="0" xMax="2029" yMax="1606">
      <contour>
        <pt x="929" y="1594" on="1"/>
        <pt x="1288" y="1594" on="1"/>
        <pt x="1351" y="413" on="1"/>
        <pt x="1726" y="1606" on="1"/>
        <pt x="2029" y="1606" on="1"/>
        <pt x="1483" y="0" on="1"/>
        <pt x="1118" y="0" on="1"/>
        <pt x="1065" y="1181" on="1"/>
        <pt x="670" y="0" on="1"/>
        <pt x="305" y="0" on="1"/>
        <pt x="214" y="1606" on="1"/>
        <pt x="512" y="1606" on="1"/>
        <pt x="567" y="413" on="1"/>
      </contour>
    </TTGlyph>
    <TTGlyph name="Wacute" xMin="214" yMin="0" xMax="2029" yMax="2452">
      <component glyphName="W" x="0" y="0" flags="0x1204"/>
      <component glyphName="acute" x="581" y="1615" flags="0x1004"/>
    </TTGlyph>
    <TTGlyph name="Wcircumflex" xMin="214" yMin="0" xMax="2029" yMax="2405">
      <component glyphName="W" x="0" y="0" flags="0x1204"/>
      <component glyphName="circumflex" x="536" y="1615" flags="0x1004"/>
    </TTGlyph>
    <TTGlyph name="Wdieresis" xMin="214" yMin="0" xMax="2029" yMax="2124">
      <component glyphName="W" x="0" y="0" flags="0x1204"/>
      <component glyphName="dieresis" x="566" y="1615" flags="0x1004"/>
    </TTGlyph>
    <TTGlyph name="Wgrave" xMin="214" yMin="0" xMax="2029" yMax="2475">
      <component glyphName="W" x="0" y="0" flags="0x1204"/>
      <component glyphName="grave" x="821" y="1615" flags="0x1004"/>
    </TTGlyph>
    <TTGlyph name="X" xMin="-4" yMin="0" xMax="1502" yMax="1606">
      <contour>
        <pt x="926" y="804" on="1"/>
        <pt x="1273" y="0" on="1"/>
        <pt x="920" y="0" on="1"/>
        <pt x="709" y="516" on="1"/>
        <pt x="348" y="0" on="1"/>
        <pt x="-4" y="0" on="1"/>
        <pt x="570" y="804" on="1"/>
        <pt x="221" y="1606" on="1"/>
        <pt x="576" y="1606" on="1"/>
        <pt x="785" y="1083" on="1"/>
        <pt x="1147" y="1606" on="1"/>
        <pt x="1502" y="1606" on="1"/>
      </contour>
    </TTGlyph>
    <TTGlyph name="Y" xMin="146" yMin="0" xMax="1412" yMax="1605">
      <contour>
        <pt x="669" y="910" on="1"/>
        <pt x="1068" y="1605" on="1"/>
        <pt x="1412" y="1605" on="1"/>
        <pt x="774" y="524" on="1"/>
        <pt x="703" y="0" on="1"/>
        <pt x="394" y="0" on="1"/>
        <pt x="465" y="527" on="1"/>
        <pt x="146" y="1605" on="1"/>
        <pt x="476" y="1605" on="1"/>
      </contour>
    </TTGlyph>
    <TTGlyph name="Yacute" xMin="146" yMin="0" xMax="1412" yMax="2397">
      <component glyphName="Y" x="0" y="0" flags="0x1204"/>
      <component glyphName="acute" x="382" y="1560" flags="0x1004"/>
    </TTGlyph>
    <TTGlyph name="Ycircumflex" xMin="146" yMin="0" xMax="1412" yMax="2405">
      <component glyphName="Y" x="0" y="0" flags="0x1204"/>
      <component glyphName="circumflex" x="194" y="1615" flags="0x1004"/>
    </TTGlyph>
    <TTGlyph name="Ydieresis" xMin="146" yMin="0" xMax="1430" yMax="2069">
      <component glyphName="Y" x="0" y="0" flags="0x1204"/>
      <component glyphName="dieresis" x="306" y="1560" flags="0x1004"/>
    </TTGlyph>
    <TTGlyph name="Ygrave" xMin="146" yMin="0" xMax="1412" yMax="2420">
      <component glyphName="Y" x="0" y="0" flags="0x1204"/>
      <component glyphName="grave" x="486" y="1560" flags="0x1004"/>
    </TTGlyph>
    <TTGlyph name="Z" xMin="52" yMin="0" xMax="1317" yMax="1605">
      <contour>
        <pt x="1317" y="1605" on="1"/>
        <pt x="1284" y="1378" on="1"/>
        <pt x="443" y="232" on="1"/>
        <pt x="1121" y="232" on="1"/>
        <pt x="1095" y="0" on="1"/>
        <pt x="52" y="0" on="1"/>
        <pt x="85" y="246" on="1"/>
        <pt x="923" y="1372" on="1"/>
        <pt x="248" y="1372" on="1"/>
        <pt x="275" y="1605" on="1"/>
      </contour>
    </TTGlyph>
    <TTGlyph name="Zacute" xMin="52" yMin="0" xMax="1317" yMax="2381">
      <component glyphName="Z" x="0" y="0" flags="0x1204"/>
      <component glyphName="acutecomb" x="190" y="1615" flags="0x1004"/>
    </TTGlyph>
    <TTGlyph name="Zcaron" xMin="52" yMin="0" xMax="1317" yMax="2404">
      <component glyphName="Z" x="0" y="0" flags="0x1204"/>
      <component glyphName="caron" x="205" y="1615" flags="0x1004"/>
    </TTGlyph>
    <TTGlyph name="Zdotaccent" xMin="52" yMin="0" xMax="1317" yMax="2181">
      <component glyphName="Z" x="0" y="0" flags="0x1204"/>
      <component glyphName="dotaccent" x="397" y="1615" flags="0x1004"/>
    </TTGlyph>
    <TTGlyph name="a" xMin="95" yMin="-17" xMax="1153" yMax="1145">
      <contour>
        <pt x="1153" y="1006" on="1"/>
        <pt x="1005" y="0" on="1"/>
        <pt x="784" y="0" on="1"/>
        <pt x="746" y="171" on="1"/>
        <pt x="729" y="132" on="0"/>
        <pt x="673" y="63" on="0"/>
        <pt x="597" y="12" on="0"/>
        <pt x="502" y="-17" on="0"/>
        <pt x="448" y="-17" on="1"/>
        <pt x="354" y="-17" on="0"/>
        <pt x="220" y="45" on="0"/>
        <pt x="134" y="156" on="0"/>
        <pt x="94" y="310" on="0"/>
        <pt x="95" y="404" on="1"/>
        <pt x="96" y="492" on="0"/>
        <pt x="139" y="670" on="0"/>
        <pt x="217" y="834" on="0"/>
        <pt x="325" y="978" on="0"/>
        <pt x="455" y="1084" on="0"/>
        <pt x="605" y="1145" on="0"/>
        <pt x="685" y="1145" on="1"/>
        <pt x="764" y="1145" on="0"/>
        <pt x="904" y="1118" on="0"/>
        <pt x="1019" y="1079" on="0"/>
        <pt x="1103" y="1038" on="0"/>
        <pt x="1126" y="1023" on="1"/>
      </contour>
      <contour>
        <pt x="401" y="436" on="1"/>
        <pt x="401" y="321" on="0"/>
        <pt x="472" y="211" on="0"/>
        <pt x="545" y="211" on="1"/>
        <pt x="613" y="211" on="0"/>
        <pt x="712" y="255" on="0"/>
        <pt x="742" y="293" on="1"/>
        <pt x="834" y="904" on="1"/>
        <pt x="811" y="911" on="0"/>
        <pt x="747" y="921" on="0"/>
        <pt x="712" y="921" on="1"/>
        <pt x="657" y="921" on="0"/>
        <pt x="547" y="843" on="0"/>
        <pt x="459" y="709" on="0"/>
        <pt x="402" y="533" on="0"/>
      </contour>
    </TTGlyph>
    <TTGlyph name="aacute" xMin="95" yMin="-17" xMax="1153" yMax="1982">
      <component glyphName="a" x="0" y="0" flags="0x1204"/>
      <component glyphName="acute" x="291" y="1145" flags="0x1004"/>
    </TTGlyph>
    <TTGlyph name="abreve" xMin="95" yMin="-17" xMax="1153" yMax="1609">
      <component glyphName="a" x="0" y="0" flags="0x1204"/>
      <component glyphName="breve" x="53" y="1180" flags="0x1004"/>
    </TTGlyph>
    <TTGlyph name="acircumflex" xMin="95" yMin="-17" xMax="1153" yMax="1935">
      <component glyphName="a" x="0" y="0" flags="0x1204"/>
      <component glyphName="circumflex" x="154" y="1145" flags="0x1004"/>
    </TTGlyph>
    <TTGlyph name="acute" xMin="262" yMin="148" xMax="819" yMax="837">
      <contour>
        <pt x="460" y="148" on="1"/>
        <pt x="262" y="148" on="1"/>
        <pt x="439" y="837" on="1"/>
        <pt x="819" y="837" on="1"/>
      </contour>
    </TTGlyph>
    <TTGlyph name="acutecomb" xMin="476" yMin="129" xMax="1012" yMax="766">
      <contour>
        <pt x="476" y="155" on="1"/>
        <pt x="721" y="766" on="1"/>
        <pt x="1012" y="675" on="1"/>
        <pt x="615" y="129" on="1"/>
      </contour>
    </TTGlyph>
    <TTGlyph name="adieresis" xMin="95" yMin="-17" xMax="1192" yMax="1689">
      <component glyphName="a" x="0" y="0" flags="0x1204"/>
      <component glyphName="dieresis" x="68" y="1180" flags="0x1004"/>
    </TTGlyph>
    <TTGlyph name="adotaccent" xMin="95" yMin="-17" xMax="1153" yMax="1746">
      <component glyphName="a" x="0" y="0" flags="0x1204"/>
      <component glyphName="dotaccent" x="336" y="1180" flags="0x1004"/>
    </TTGlyph>
    <TTGlyph name="ae" xMin="95" yMin="-17" xMax="1745" yMax="1148">
      <contour>
        <pt x="1627" y="78" on="1"/>
        <pt x="1534" y="31" on="0"/>
        <pt x="1342" y="-16" on="0"/>
        <pt x="1246" y="-16" on="1"/>
        <pt x="1175" y="-16" on="0"/>
        <pt x="1060" y="4" on="0"/>
        <pt x="968" y="45" on="0"/>
        <pt x="894" y="108" on="0"/>
        <pt x="863" y="150" on="1"/>
        <pt x="833" y="117" on="0"/>
        <pt x="730" y="56" on="0"/>
        <pt x="612" y="10" on="0"/>
        <pt x="494" y="-17" on="0"/>
        <pt x="448" y="-17" on="1"/>
        <pt x="355" y="-17" on="0"/>
        <pt x="222" y="44" on="0"/>
        <pt x="136" y="154" on="0"/>
        <pt x="95" y="309" on="0"/>
        <pt x="95" y="404" on="1"/>
        <pt x="95" y="492" on="0"/>
        <pt x="138" y="670" on="0"/>
        <pt x="215" y="835" on="0"/>
        <pt x="324" y="978" on="0"/>
        <pt x="455" y="1084" on="0"/>
        <pt x="606" y="1145" on="0"/>
        <pt x="687" y="1145" on="1"/>
        <pt x="749" y="1145" on="0"/>
        <pt x="862" y="1127" on="0"/>
        <pt x="960" y="1099" on="0"/>
        <pt x="1041" y="1067" on="0"/>
        <pt x="1071" y="1053" on="1"/>
        <pt x="1143" y="1101" on="0"/>
        <pt x="1293" y="1148" on="0"/>
        <pt x="1384" y="1148" on="1"/>
        <pt x="1479" y="1148" on="0"/>
        <pt x="1616" y="1085" on="0"/>
        <pt x="1704" y="977" on="0"/>
        <pt x="1745" y="832" on="0"/>
        <pt x="1745" y="749" on="1"/>
        <pt x="1745" y="739" on="0"/>
        <pt x="1738" y="695" on="0"/>
        <pt x="1700" y="639" on="0"/>
        <pt x="1620" y="579" on="0"/>
        <pt x="1471" y="528" on="0"/>
        <pt x="1243" y="494" on="0"/>
        <pt x="1077" y="493" on="1"/>
        <pt x="1075" y="478" on="0"/>
        <pt x="1073" y="450" on="0"/>
        <pt x="1073" y="436" on="1"/>
        <pt x="1073" y="325" on="0"/>
        <pt x="1192" y="199" on="0"/>
        <pt x="1302" y="199" on="1"/>
        <pt x="1385" y="199" on="0"/>
        <pt x="1528" y="247" on="0"/>
        <pt x="1595" y="292" on="1"/>
      </contour>
      <contour>
        <pt x="401" y="430" on="1"/>
        <pt x="402" y="318" on="0"/>
        <pt x="473" y="211" on="0"/>
        <pt x="545" y="211" on="1"/>
        <pt x="574" y="211" on="0"/>
        <pt x="647" y="221" on="0"/>
        <pt x="719" y="240" on="0"/>
        <pt x="781" y="267" on="0"/>
        <pt x="800" y="283" on="1"/>
        <pt x="792" y="314" on="0"/>
        <pt x="784" y="382" on="0"/>
        <pt x="784" y="419" on="1"/>
        <pt x="784" y="556" on="0"/>
        <pt x="855" y="792" on="0"/>
        <pt x="921" y="885" on="1"/>
        <pt x="907" y="888" on="0"/>
        <pt x="861" y="900" on="0"/>
        <pt x="805" y="912" on="0"/>
        <pt x="743" y="921" on="0"/>
        <pt x="713" y="921" on="1"/>
        <pt x="657" y="921" on="0"/>
        <pt x="547" y="842" on="0"/>
        <pt x="458" y="708" on="0"/>
        <pt x="402" y="530" on="0"/>
      </contour>
      <contour>
        <pt x="1099" y="653" on="1"/>
        <pt x="1195" y="655" on="0"/>
        <pt x="1328" y="666" on="0"/>
        <pt x="1415" y="682" on="0"/>
        <pt x="1462" y="701" on="0"/>
        <pt x="1484" y="720" on="0"/>
        <pt x="1488" y="738" on="0"/>
        <pt x="1488" y="745" on="1"/>
        <pt x="1488" y="841" on="0"/>
        <pt x="1412" y="933" on="0"/>
        <pt x="1335" y="935" on="1"/>
        <pt x="1287" y="933" on="0"/>
        <pt x="1208" y="891" on="0"/>
        <pt x="1148" y="817" on="0"/>
        <pt x="1108" y="714" on="0"/>
      </contour>
    </TTGlyph>
    <TTGlyph name="aeacute" xMin="95" yMin="-17" xMax="1745" yMax="1148">
      <component glyphName="ae" x="0" y="0" flags="0x1004"/>
    </TTGlyph>
    <TTGlyph name="afii10017" xMin="-15" yMin="0" xMax="1317" yMax="1606">
      <component glyphName="A" x="0" y="0" flags="0x1204"/>
    </TTGlyph>
    <TTGlyph name="afii10018" xMin="83" yMin="-2" xMax="1367" yMax="1605">
      <contour>
        <pt x="1361" y="533" on="1"/>
        <pt x="1363" y="530" on="0"/>
        <pt x="1363" y="524" on="0"/>
        <pt x="1364" y="522" on="1"/>
        <pt x="1341" y="365" on="0"/>
        <pt x="1200" y="162" on="0"/>
        <pt x="984" y="44" on="0"/>
        <pt x="702" y="-2" on="0"/>
        <pt x="539" y="-2" on="1"/>
        <pt x="83" y="-2" on="1"/>
        <pt x="271" y="1339" on="1"/>
        <pt x="114" y="1339" on="1"/>
        <pt x="152" y="1605" on="1"/>
        <pt x="1343" y="1605" on="1"/>
        <pt x="1308" y="1359" on="1"/>
        <pt x="631" y="1359" on="1"/>
        <pt x="587" y="1034" on="1"/>
        <pt x="658" y="1034" on="1"/>
        <pt x="816" y="1034" on="0"/>
        <pt x="1072" y="997" on="0"/>
        <pt x="1256" y="908" on="0"/>
        <pt x="1360" y="759" on="0"/>
        <pt x="1366" y="646" on="1"/>
        <pt x="1368" y="619" on="0"/>
        <pt x="1366" y="564" on="0"/>
      </contour>
      <contour>
        <pt x="625" y="814" on="1"/>
        <pt x="623" y="814" on="0"/>
        <pt x="619" y="815" on="0"/>
        <pt x="617" y="815" on="1"/>
        <pt x="555" y="815" on="1"/>
        <pt x="469" y="215" on="1"/>
        <pt x="572" y="215" on="1"/>
        <pt x="665" y="215" on="0"/>
        <pt x="814" y="245" on="0"/>
        <pt x="924" y="317" on="0"/>
        <pt x="992" y="438" on="0"/>
        <pt x="1005" y="528" on="1"/>
        <pt x="1007" y="546" on="0"/>
        <pt x="1011" y="577" on="0"/>
        <pt x="1008" y="593" on="1"/>
        <pt x="1005" y="657" on="0"/>
        <pt x="950" y="742" on="0"/>
        <pt x="851" y="793" on="0"/>
        <pt x="711" y="814" on="0"/>
      </contour>
    </TTGlyph>
    <TTGlyph name="afii10019" xMin="75" yMin="0" xMax="1323" yMax="1606">
      <component glyphName="B" x="0" y="0" flags="0x1004"/>
    </TTGlyph>
    <TTGlyph name="afii10020" xMin="83" yMin="0" xMax="1255" yMax="1607">
      <contour>
        <pt x="1255" y="1607" on="1"/>
        <pt x="1225" y="1387" on="1"/>
        <pt x="636" y="1387" on="1"/>
        <pt x="440" y="0" on="1"/>
        <pt x="83" y="0" on="1"/>
        <pt x="309" y="1607" on="1"/>
      </contour>
    </TTGlyph>
    <TTGlyph name="afii10021" xMin="-2" yMin="-296" xMax="1836" yMax="1607">
      <contour>
        <pt x="1655" y="323" on="1"/>
        <pt x="1637" y="133" on="1"/>
        <pt x="1577" y="-296" on="1"/>
        <pt x="1219" y="-296" on="1"/>
        <pt x="1261" y="-2" on="1"/>
        <pt x="394" y="-2" on="1"/>
        <pt x="351" y="-296" on="1"/>
        <pt x="-2" y="-296" on="1"/>
        <pt x="69" y="217" on="1"/>
        <pt x="158" y="217" on="0"/>
        <pt x="282" y="304" on="0"/>
        <pt x="322" y="393" on="1"/>
        <pt x="358" y="462" on="0"/>
        <pt x="414" y="672" on="0"/>
        <pt x="434" y="821" on="1"/>
        <pt x="448" y="919" on="0"/>
        <pt x="477" y="1116" on="0"/>
        <pt x="491" y="1219" on="1"/>
        <pt x="546" y="1607" on="1"/>
        <pt x="1836" y="1607" on="1"/>
      </contour>
      <contour>
        <pt x="1282" y="216" on="1"/>
        <pt x="1447" y="1386" on="1"/>
        <pt x="872" y="1386" on="1"/>
        <pt x="822" y="1029" on="1"/>
        <pt x="815" y="977" on="0"/>
        <pt x="797" y="843" on="0"/>
        <pt x="772" y="695" on="0"/>
        <pt x="736" y="540" on="0"/>
        <pt x="687" y="395" on="0"/>
        <pt x="622" y="265" on="0"/>
        <pt x="579" y="216" on="1"/>
      </contour>
    </TTGlyph>
    <TTGlyph name="afii10022" xMin="77" yMin="0" xMax="1251" yMax="1606">
      <component glyphName="E" x="0" y="0" flags="0x1004"/>
    </TTGlyph>
    <TTGlyph name="afii10023" xMin="77" yMin="0" xMax="1272" yMax="2032">
      <component glyphName="E" x="0" y="0" flags="0x1004"/>
      <component glyphName="dieresis" x="148" y="1523" flags="0x1004"/>
    </TTGlyph>
    <TTGlyph name="afii10024" xMin="-4" yMin="0" xMax="2452" yMax="1607">
      <contour>
        <pt x="1058" y="696" on="1"/>
        <pt x="972" y="696" on="1"/>
        <pt x="368" y="0" on="1"/>
        <pt x="-4" y="0" on="1"/>
        <pt x="520" y="605" on="1"/>
        <pt x="566" y="656" on="0"/>
        <pt x="640" y="729" on="0"/>
        <pt x="709" y="778" on="0"/>
        <pt x="777" y="805" on="0"/>
        <pt x="817" y="811" on="1"/>
        <pt x="779" y="819" on="0"/>
        <pt x="717" y="851" on="0"/>
        <pt x="661" y="906" on="0"/>
        <pt x="606" y="987" on="0"/>
        <pt x="574" y="1045" on="1"/>
        <pt x="278" y="1607" on="1"/>
        <pt x="642" y="1607" on="1"/>
        <pt x="995" y="912" on="1"/>
        <pt x="1089" y="912" on="1"/>
        <pt x="1186" y="1607" on="1"/>
        <pt x="1543" y="1607" on="1"/>
        <pt x="1445" y="912" on="1"/>
        <pt x="1539" y="912" on="1"/>
        <pt x="2087" y="1607" on="1"/>
        <pt x="2452" y="1606" on="1"/>
        <pt x="1994" y="1045" on="1"/>
        <pt x="1947" y="987" on="0"/>
        <pt x="1870" y="905" on="0"/>
        <pt x="1799" y="851" on="0"/>
        <pt x="1728" y="819" on="0"/>
        <pt x="1688" y="811" on="1"/>
        <pt x="1725" y="805" on="0"/>
        <pt x="1786" y="778" on="0"/>
        <pt x="1841" y="729" on="0"/>
        <pt x="1895" y="656" on="0"/>
        <pt x="1926" y="606" on="1"/>
        <pt x="2281" y="0" on="1"/>
        <pt x="1909" y="0" on="1"/>
        <pt x="1500" y="696" on="1"/>
        <pt x="1414" y="696" on="1"/>
        <pt x="1316" y="0" on="1"/>
        <pt x="960" y="0" on="1"/>
      </contour>
    </TTGlyph>
    <TTGlyph name="afii10025" xMin="201" yMin="-25" xMax="1523" yMax="1632">
      <contour>
        <pt x="1169" y="818" on="1"/>
        <pt x="1175" y="818" on="0"/>
        <pt x="1181" y="814" on="1"/>
        <pt x="1219" y="809" on="0"/>
        <pt x="1297" y="767" on="0"/>
        <pt x="1361" y="695" on="0"/>
        <pt x="1402" y="593" on="0"/>
        <pt x="1404" y="528" on="1"/>
        <pt x="1406" y="462" on="0"/>
        <pt x="1379" y="340" on="0"/>
        <pt x="1330" y="234" on="0"/>
        <pt x="1263" y="147" on="0"/>
        <pt x="1224" y="116" on="1"/>
        <pt x="1171" y="75" on="0"/>
        <pt x="1047" y="20" on="0"/>
        <pt x="905" y="-12" on="0"/>
        <pt x="747" y="-25" on="0"/>
        <pt x="660" y="-25" on="1"/>
        <pt x="612" y="-25" on="0"/>
        <pt x="515" y="-13" on="0"/>
        <pt x="425" y="6" on="0"/>
        <pt x="344" y="29" on="0"/>
        <pt x="311" y="41" on="1"/>
        <pt x="294" y="47" on="0"/>
        <pt x="260" y="61" on="0"/>
        <pt x="229" y="73" on="0"/>
        <pt x="206" y="82" on="0"/>
        <pt x="201" y="84" on="1"/>
        <pt x="314" y="340" on="1"/>
        <pt x="333" y="332" on="0"/>
        <pt x="415" y="299" on="0"/>
        <pt x="525" y="265" on="0"/>
        <pt x="652" y="240" on="0"/>
        <pt x="715" y="240" on="1"/>
        <pt x="798" y="240" on="0"/>
        <pt x="930" y="277" on="0"/>
        <pt x="1021" y="350" on="0"/>
        <pt x="1067" y="457" on="0"/>
        <pt x="1065" y="527" on="1"/>
        <pt x="1063" y="609" on="0"/>
        <pt x="938" y="689" on="0"/>
        <pt x="796" y="691" on="1"/>
        <pt x="700" y="691" on="1"/>
        <pt x="523" y="691" on="1"/>
        <pt x="562" y="933" on="1"/>
        <pt x="718" y="933" on="1"/>
        <pt x="802" y="933" on="1"/>
        <pt x="1000" y="935" on="0"/>
        <pt x="1176" y="1079" on="0"/>
        <pt x="1173" y="1226" on="1"/>
        <pt x="1170" y="1283" on="0"/>
        <pt x="1097" y="1351" on="0"/>
        <pt x="1016" y="1363" on="1"/>
        <pt x="967" y="1370" on="0"/>
        <pt x="898" y="1369" on="1"/>
        <pt x="805" y="1369" on="0"/>
        <pt x="644" y="1340" on="0"/>
        <pt x="524" y="1307" on="0"/>
        <pt x="454" y="1279" on="0"/>
        <pt x="453" y="1279" on="1"/>
        <pt x="413" y="1515" on="1"/>
        <pt x="415" y="1518" on="0"/>
        <pt x="455" y="1538" on="0"/>
        <pt x="524" y="1564" on="0"/>
        <pt x="619" y="1592" on="0"/>
        <pt x="731" y="1616" on="0"/>
        <pt x="855" y="1632" on="0"/>
        <pt x="920" y="1632" on="1"/>
        <pt x="951" y="1632" on="0"/>
        <pt x="1008" y="1632" on="0"/>
        <pt x="1037" y="1630" on="1"/>
        <pt x="1138" y="1625" on="0"/>
        <pt x="1313" y="1587" on="0"/>
        <pt x="1443" y="1508" on="0"/>
        <pt x="1520" y="1380" on="0"/>
        <pt x="1523" y="1285" on="1"/>
        <pt x="1526" y="1212" on="0"/>
        <pt x="1489" y="1071" on="0"/>
        <pt x="1418" y="951" on="0"/>
        <pt x="1316" y="859" on="0"/>
        <pt x="1253" y="836" on="1"/>
        <pt x="1230" y="827" on="0"/>
        <pt x="1187" y="819" on="0"/>
      </contour>
    </TTGlyph>
    <TTGlyph name="afii10026" xMin="83" yMin="0" xMax="1651" yMax="1607">
      <contour>
        <pt x="83" y="0" on="1"/>
        <pt x="309" y="1607" on="1"/>
        <pt x="627" y="1607" on="1"/>
        <pt x="488" y="611" on="1"/>
        <pt x="1263" y="1607" on="1"/>
        <pt x="1651" y="1607" on="1"/>
        <pt x="1425" y="0" on="1"/>
        <pt x="1105" y="0" on="1"/>
        <pt x="1267" y="1157" on="1"/>
        <pt x="418" y="124" on="1"/>
        <pt x="402" y="0" on="1"/>
      </contour>
    </TTGlyph>
    <TTGlyph name="afii10027" xMin="83" yMin="0" xMax="1651" yMax="2028">
      <contour>
        <pt x="1383" y="2028" on="1"/>
        <pt x="1382" y="2026" on="0"/>
        <pt x="1380" y="2025" on="0"/>
        <pt x="1378" y="2023" on="1"/>
        <pt x="1354" y="1858" on="0"/>
        <pt x="1163" y="1703" on="0"/>
        <pt x="996" y="1703" on="1"/>
        <pt x="853" y="1703" on="0"/>
        <pt x="706" y="1813" on="0"/>
        <pt x="700" y="1931" on="1"/>
        <pt x="697" y="1977" on="0"/>
        <pt x="706" y="2028" on="1"/>
        <pt x="910" y="2028" on="1"/>
        <pt x="907" y="2015" on="0"/>
        <pt x="905" y="1993" on="0"/>
        <pt x="904" y="1982" on="1"/>
        <pt x="899" y="1910" on="0"/>
        <pt x="949" y="1841" on="0"/>
        <pt x="1018" y="1841" on="1"/>
        <pt x="1056" y="1841" on="0"/>
        <pt x="1111" y="1863" on="0"/>
        <pt x="1149" y="1909" on="0"/>
        <pt x="1172" y="1979" on="0"/>
        <pt x="1180" y="2028" on="1"/>
      </contour>
      <contour>
        <pt x="83" y="0" on="1"/>
        <pt x="309" y="1607" on="1"/>
        <pt x="627" y="1607" on="1"/>
        <pt x="488" y="611" on="1"/>
        <pt x="1263" y="1607" on="1"/>
        <pt x="1651" y="1607" on="1"/>
        <pt x="1425" y="0" on="1"/>
        <pt x="1105" y="0" on="1"/>
        <pt x="1267" y="1157" on="1"/>
        <pt x="418" y="124" on="1"/>
        <pt x="402" y="0" on="1"/>
      </contour>
    </TTGlyph>
    <TTGlyph name="afii10028" xMin="83" yMin="0" xMax="1582" yMax="1607">
      <contour>
        <pt x="440" y="0" on="1"/>
        <pt x="83" y="0" on="1"/>
        <pt x="309" y="1607" on="1"/>
        <pt x="666" y="1607" on="1"/>
        <pt x="568" y="912" on="1"/>
        <pt x="664" y="912" on="1"/>
        <pt x="1216" y="1607" on="1"/>
        <pt x="1582" y="1607" on="1"/>
        <pt x="1122" y="1045" on="1"/>
        <pt x="1075" y="987" on="0"/>
        <pt x="998" y="905" on="0"/>
        <pt x="927" y="851" on="0"/>
        <pt x="856" y="819" on="0"/>
        <pt x="816" y="811" on="1"/>
        <pt x="853" y="805" on="0"/>
        <pt x="914" y="778" on="0"/>
        <pt x="969" y="729" on="0"/>
        <pt x="1022" y="656" on="0"/>
        <pt x="1053" y="606" on="1"/>
        <pt x="1413" y="0" on="1"/>
        <pt x="1039" y="0" on="1"/>
        <pt x="626" y="696" on="1"/>
        <pt x="538" y="696" on="1"/>
      </contour>
    </TTGlyph>
    <TTGlyph name="afii10029" xMin="42" yMin="-3" xMax="1843" yMax="1607">
      <contour>
        <pt x="1615" y="1" on="1"/>
        <pt x="1258" y="1" on="1"/>
        <pt x="1454" y="1386" on="1"/>
        <pt x="893" y="1386" on="1"/>
        <pt x="812" y="838" on="1"/>
        <pt x="794" y="721" on="0"/>
        <pt x="744" y="505" on="0"/>
        <pt x="666" y="318" on="0"/>
        <pt x="553" y="165" on="0"/>
        <pt x="393" y="56" on="0"/>
        <pt x="181" y="-3" on="0"/>
        <pt x="42" y="-3" on="1"/>
        <pt x="89" y="323" on="1"/>
        <pt x="181" y="324" on="0"/>
        <pt x="313" y="379" on="0"/>
        <pt x="353" y="439" on="1"/>
        <pt x="372" y="467" on="0"/>
        <pt x="399" y="538" on="0"/>
        <pt x="421" y="631" on="0"/>
        <pt x="441" y="748" on="0"/>
        <pt x="453" y="823" on="1"/>
        <pt x="568" y="1607" on="1"/>
        <pt x="1843" y="1607" on="1"/>
      </contour>
    </TTGlyph>
    <TTGlyph name="afii10030" xMin="83" yMin="0" xMax="1806" yMax="1605">
      <component glyphName="M" x="0" y="0" flags="0x1204"/>
    </TTGlyph>
    <TTGlyph name="afii10031" xMin="74" yMin="0" xMax="1521" yMax="1605">
      <component glyphName="H" x="0" y="0" flags="0x1204"/>
    </TTGlyph>
    <TTGlyph name="afii10032" xMin="144" yMin="-38" xMax="1465" yMax="1627">
      <component glyphName="O" x="0" y="0" flags="0x1204"/>
    </TTGlyph>
    <TTGlyph name="afii10033" xMin="83" yMin="0" xMax="1648" yMax="1607">
      <contour>
        <pt x="1423" y="0" on="1"/>
        <pt x="1066" y="0" on="1"/>
        <pt x="1260" y="1385" on="1"/>
        <pt x="634" y="1385" on="1"/>
        <pt x="440" y="0" on="1"/>
        <pt x="83" y="0" on="1"/>
        <pt x="309" y="1607" on="1"/>
        <pt x="1648" y="1607" on="1"/>
      </contour>
    </TTGlyph>
    <TTGlyph name="afii10034" xMin="75" yMin="0" xMax="1344" yMax="1606">
      <component glyphName="P" x="0" y="0" flags="0x1004"/>
    </TTGlyph>
    <TTGlyph name="afii10035" xMin="154" yMin="-38" xMax="1351" yMax="1629">
      <component glyphName="C" x="10" y="0" flags="0x1004"/>
    </TTGlyph>
    <TTGlyph name="afii10036" xMin="135" yMin="0" xMax="1277" yMax="1606">
      <component glyphName="T" x="0" y="0" flags="0x1204"/>
    </TTGlyph>
    <TTGlyph name="afii10037" xMin="157" yMin="-12" xMax="1407" yMax="1606">
      <contour>
        <pt x="671" y="906" on="1"/>
        <pt x="1062" y="1606" on="1"/>
        <pt x="1407" y="1606" on="1"/>
        <pt x="774" y="519" on="1"/>
        <pt x="748" y="337" on="1"/>
        <pt x="734" y="241" on="0"/>
        <pt x="693" y="67" on="0"/>
        <pt x="664" y="-12" on="1"/>
        <pt x="370" y="1" on="1"/>
        <pt x="394" y="80" on="0"/>
        <pt x="429" y="243" on="0"/>
        <pt x="443" y="337" on="1"/>
        <pt x="468" y="518" on="1"/>
        <pt x="157" y="1606" on="1"/>
        <pt x="488" y="1606" on="1"/>
      </contour>
    </TTGlyph>
    <TTGlyph name="afii10038" xMin="147" yMin="-74" xMax="1898" yMax="1676">
      <contour>
        <pt x="1132" y="347" on="1"/>
        <pt x="1213" y="348" on="0"/>
        <pt x="1363" y="414" on="0"/>
        <pt x="1424" y="494" on="1"/>
        <pt x="1446" y="525" on="0"/>
        <pt x="1484" y="609" on="0"/>
        <pt x="1514" y="706" on="0"/>
        <pt x="1535" y="812" on="0"/>
        <pt x="1540" y="865" on="1"/>
        <pt x="1543" y="903" on="0"/>
        <pt x="1544" y="972" on="0"/>
        <pt x="1540" y="1003" on="1"/>
        <pt x="1534" y="1078" on="0"/>
        <pt x="1488" y="1174" on="0"/>
        <pt x="1416" y="1230" on="0"/>
        <pt x="1319" y="1254" on="0"/>
        <pt x="1262" y="1256" on="1"/>
      </contour>
      <contour>
        <pt x="906" y="1254" on="1"/>
        <pt x="902" y="1254" on="0"/>
        <pt x="896" y="1253" on="0"/>
        <pt x="893" y="1253" on="1"/>
        <pt x="808" y="1248" on="0"/>
        <pt x="662" y="1188" on="0"/>
        <pt x="612" y="1117" on="1"/>
        <pt x="589" y="1085" on="0"/>
        <pt x="546" y="979" on="0"/>
        <pt x="513" y="850" on="0"/>
        <pt x="495" y="710" on="0"/>
        <pt x="499" y="643" on="1"/>
        <pt x="503" y="556" on="0"/>
        <pt x="553" y="443" on="0"/>
        <pt x="629" y="376" on="0"/>
        <pt x="726" y="348" on="0"/>
        <pt x="777" y="347" on="1"/>
      </contour>
      <contour>
        <pt x="1076" y="-74" on="1"/>
        <pt x="721" y="-74" on="1"/>
        <pt x="744" y="91" on="1"/>
        <pt x="637" y="92" on="0"/>
        <pt x="467" y="134" on="0"/>
        <pt x="336" y="208" on="0"/>
        <pt x="243" y="310" on="0"/>
        <pt x="181" y="430" on="0"/>
        <pt x="150" y="563" on="0"/>
        <pt x="147" y="632" on="1"/>
        <pt x="145" y="672" on="0"/>
        <pt x="150" y="755" on="0"/>
        <pt x="155" y="800" on="1"/>
        <pt x="178" y="970" on="0"/>
        <pt x="327" y="1235" on="0"/>
        <pt x="541" y="1417" on="0"/>
        <pt x="805" y="1512" on="0"/>
        <pt x="943" y="1512" on="1"/>
        <pt x="967" y="1676" on="1"/>
        <pt x="1323" y="1676" on="1"/>
        <pt x="1298" y="1512" on="1"/>
        <pt x="1416" y="1511" on="0"/>
        <pt x="1629" y="1442" on="0"/>
        <pt x="1791" y="1305" on="0"/>
        <pt x="1892" y="1100" on="0"/>
        <pt x="1898" y="964" on="1"/>
        <pt x="1903" y="862" on="0"/>
        <pt x="1867" y="654" on="0"/>
        <pt x="1783" y="460" on="0"/>
        <pt x="1650" y="291" on="0"/>
        <pt x="1468" y="165" on="0"/>
        <pt x="1237" y="91" on="0"/>
        <pt x="1096" y="91" on="1"/>
      </contour>
    </TTGlyph>
    <TTGlyph name="afii10039" xMin="-4" yMin="0" xMax="1502" yMax="1606">
      <component glyphName="X" x="0" y="0" flags="0x1204"/>
    </TTGlyph>
    <TTGlyph name="afii10040" xMin="83" yMin="-372" xMax="1630" yMax="1607">
      <contour>
        <pt x="1578" y="157" on="1"/>
        <pt x="1502" y="-372" on="1"/>
        <pt x="1148" y="-372" on="1"/>
        <pt x="1201" y="0" on="1"/>
        <pt x="83" y="0" on="1"/>
        <pt x="309" y="1607" on="1"/>
        <pt x="666" y="1607" on="1"/>
        <pt x="470" y="222" on="1"/>
        <pt x="1078" y="222" on="1"/>
        <pt x="1274" y="1607" on="1"/>
        <pt x="1630" y="1607" on="1"/>
        <pt x="1426" y="157" on="1"/>
      </contour>
    </TTGlyph>
    <TTGlyph name="afii10041" xMin="229" yMin="0" xMax="1423" yMax="1607">
      <contour>
        <pt x="931" y="536" on="1"/>
        <pt x="924" y="523" on="0"/>
        <pt x="894" y="498" on="0"/>
        <pt x="872" y="481" on="1"/>
        <pt x="812" y="434" on="0"/>
        <pt x="678" y="389" on="0"/>
        <pt x="589" y="389" on="1"/>
        <pt x="425" y="389" on="0"/>
        <pt x="238" y="554" on="0"/>
        <pt x="229" y="718" on="1"/>
        <pt x="227" y="751" on="0"/>
        <pt x="233" y="822" on="0"/>
        <pt x="239" y="864" on="1"/>
        <pt x="252" y="955" on="0"/>
        <pt x="278" y="1148" on="0"/>
        <pt x="305" y="1339" on="0"/>
        <pt x="330" y="1523" on="0"/>
        <pt x="342" y="1606" on="1"/>
        <pt x="681" y="1606" on="1"/>
        <pt x="669" y="1520" on="0"/>
        <pt x="643" y="1331" on="0"/>
        <pt x="616" y="1134" on="0"/>
        <pt x="588" y="937" on="0"/>
        <pt x="575" y="844" on="1"/>
        <pt x="572" y="831" on="0"/>
        <pt x="569" y="812" on="0"/>
        <pt x="568" y="804" on="1"/>
        <pt x="565" y="757" on="0"/>
        <pt x="586" y="687" on="0"/>
        <pt x="626" y="641" on="0"/>
        <pt x="681" y="617" on="0"/>
        <pt x="711" y="617" on="1"/>
        <pt x="763" y="617" on="0"/>
        <pt x="835" y="631" on="0"/>
        <pt x="889" y="655" on="0"/>
        <pt x="932" y="688" on="0"/>
        <pt x="955" y="706" on="1"/>
        <pt x="1083" y="1607" on="1"/>
        <pt x="1423" y="1607" on="1"/>
        <pt x="1197" y="0" on="1"/>
        <pt x="858" y="0" on="1"/>
      </contour>
    </TTGlyph>
    <TTGlyph name="afii10042" xMin="83" yMin="0" xMax="2426" yMax="1607">
      <contour>
        <pt x="1351" y="222" on="1"/>
        <pt x="1874" y="222" on="1"/>
        <pt x="2069" y="1607" on="1"/>
        <pt x="2426" y="1607" on="1"/>
        <pt x="2200" y="0" on="1"/>
        <pt x="83" y="0" on="1"/>
        <pt x="309" y="1607" on="1"/>
        <pt x="666" y="1607" on="1"/>
        <pt x="470" y="222" on="1"/>
        <pt x="993" y="222" on="1"/>
        <pt x="1189" y="1607" on="1"/>
        <pt x="1545" y="1607" on="1"/>
      </contour>
    </TTGlyph>
    <TTGlyph name="afii10043" xMin="83" yMin="-371" xMax="2426" yMax="1607">
      <contour>
        <pt x="1351" y="222" on="1"/>
        <pt x="1874" y="222" on="1"/>
        <pt x="2069" y="1607" on="1"/>
        <pt x="2426" y="1607" on="1"/>
        <pt x="2197" y="-34" on="1"/>
        <pt x="2207" y="-34" on="1"/>
        <pt x="2160" y="-371" on="1"/>
        <pt x="1804" y="-371" on="1"/>
        <pt x="1856" y="0" on="1"/>
        <pt x="83" y="0" on="1"/>
        <pt x="309" y="1607" on="1"/>
        <pt x="666" y="1607" on="1"/>
        <pt x="470" y="222" on="1"/>
        <pt x="993" y="222" on="1"/>
        <pt x="1189" y="1607" on="1"/>
        <pt x="1545" y="1607" on="1"/>
      </contour>
    </TTGlyph>
    <TTGlyph name="afii10044" xMin="194" yMin="-5" xMax="1586" yMax="1607">
      <contour>
        <pt x="230" y="1607" on="1"/>
        <pt x="886" y="1607" on="1"/>
        <pt x="806" y="1036" on="1"/>
        <pt x="879" y="1036" on="1"/>
        <pt x="1038" y="1036" on="0"/>
        <pt x="1295" y="999" on="0"/>
        <pt x="1478" y="910" on="0"/>
        <pt x="1580" y="760" on="0"/>
        <pt x="1586" y="646" on="1"/>
        <pt x="1590" y="568" on="0"/>
        <pt x="1562" y="422" on="0"/>
        <pt x="1509" y="294" on="0"/>
        <pt x="1433" y="190" on="0"/>
        <pt x="1389" y="154" on="1"/>
        <pt x="1333" y="108" on="0"/>
        <pt x="1194" y="47" on="0"/>
        <pt x="1034" y="10" on="0"/>
        <pt x="854" y="-5" on="0"/>
        <pt x="756" y="-5" on="1"/>
        <pt x="298" y="-5" on="1"/>
        <pt x="493" y="1380" on="1"/>
        <pt x="194" y="1380" on="1"/>
      </contour>
      <contour>
        <pt x="842" y="814" on="1"/>
        <pt x="840" y="814" on="0"/>
        <pt x="836" y="815" on="0"/>
        <pt x="834" y="815" on="1"/>
        <pt x="771" y="815" on="1"/>
        <pt x="685" y="215" on="1"/>
        <pt x="782" y="215" on="1"/>
        <pt x="880" y="215" on="0"/>
        <pt x="1033" y="244" on="0"/>
        <pt x="1143" y="316" on="0"/>
        <pt x="1211" y="436" on="0"/>
        <pt x="1223" y="528" on="1"/>
        <pt x="1225" y="546" on="0"/>
        <pt x="1228" y="578" on="0"/>
        <pt x="1226" y="594" on="1"/>
        <pt x="1223" y="657" on="0"/>
        <pt x="1167" y="741" on="0"/>
        <pt x="1067" y="792" on="0"/>
        <pt x="928" y="814" on="0"/>
      </contour>
    </TTGlyph>
    <TTGlyph name="afii10045" xMin="113" yMin="-3" xMax="2196" yMax="1610">
      <contour>
        <pt x="1969" y="0" on="1"/>
        <pt x="1614" y="0" on="1"/>
        <pt x="1840" y="1607" on="1"/>
        <pt x="2196" y="1610" on="1"/>
      </contour>
      <contour>
        <pt x="659" y="818" on="1"/>
        <pt x="657" y="818" on="0"/>
        <pt x="653" y="819" on="0"/>
        <pt x="651" y="819" on="1"/>
        <pt x="588" y="819" on="1"/>
        <pt x="504" y="219" on="1"/>
        <pt x="600" y="219" on="1"/>
        <pt x="703" y="219" on="0"/>
        <pt x="867" y="255" on="0"/>
        <pt x="983" y="343" on="0"/>
        <pt x="1045" y="489" on="0"/>
        <pt x="1045" y="599" on="1"/>
        <pt x="1042" y="662" on="0"/>
        <pt x="985" y="746" on="0"/>
        <pt x="884" y="797" on="0"/>
        <pt x="744" y="818" on="0"/>
      </contour>
      <contour>
        <pt x="1392" y="533" on="1"/>
        <pt x="1394" y="528" on="0"/>
        <pt x="1394" y="521" on="0"/>
        <pt x="1394" y="518" on="1"/>
        <pt x="1371" y="362" on="0"/>
        <pt x="1231" y="161" on="0"/>
        <pt x="1016" y="43" on="0"/>
        <pt x="736" y="-3" on="0"/>
        <pt x="572" y="-3" on="1"/>
        <pt x="113" y="-3" on="1"/>
        <pt x="341" y="1603" on="1"/>
        <pt x="697" y="1603" on="1"/>
        <pt x="616" y="1033" on="1"/>
        <pt x="690" y="1033" on="1"/>
        <pt x="847" y="1033" on="0"/>
        <pt x="1104" y="997" on="0"/>
        <pt x="1287" y="908" on="0"/>
        <pt x="1391" y="758" on="0"/>
        <pt x="1397" y="644" on="1"/>
        <pt x="1399" y="618" on="0"/>
        <pt x="1397" y="563" on="0"/>
      </contour>
    </TTGlyph>
    <TTGlyph name="afii10046" xMin="154" yMin="-3" xMax="1437" yMax="1603">
      <contour>
        <pt x="699" y="818" on="1"/>
        <pt x="697" y="818" on="0"/>
        <pt x="693" y="819" on="0"/>
        <pt x="691" y="819" on="1"/>
        <pt x="628" y="819" on="1"/>
        <pt x="545" y="219" on="1"/>
        <pt x="641" y="219" on="1"/>
        <pt x="743" y="219" on="0"/>
        <pt x="907" y="255" on="0"/>
        <pt x="1022" y="342" on="0"/>
        <pt x="1085" y="489" on="0"/>
        <pt x="1085" y="599" on="1"/>
        <pt x="1082" y="662" on="0"/>
        <pt x="1025" y="746" on="0"/>
        <pt x="924" y="797" on="0"/>
        <pt x="784" y="818" on="0"/>
      </contour>
      <contour>
        <pt x="1431" y="533" on="1"/>
        <pt x="1433" y="528" on="0"/>
        <pt x="1433" y="521" on="0"/>
        <pt x="1434" y="518" on="1"/>
        <pt x="1411" y="362" on="0"/>
        <pt x="1271" y="161" on="0"/>
        <pt x="1057" y="43" on="0"/>
        <pt x="776" y="-3" on="0"/>
        <pt x="612" y="-3" on="1"/>
        <pt x="154" y="-3" on="1"/>
        <pt x="380" y="1603" on="1"/>
        <pt x="738" y="1603" on="1"/>
        <pt x="657" y="1033" on="1"/>
        <pt x="729" y="1033" on="1"/>
        <pt x="887" y="1033" on="0"/>
        <pt x="1144" y="997" on="0"/>
        <pt x="1327" y="908" on="0"/>
        <pt x="1431" y="758" on="0"/>
        <pt x="1437" y="644" on="1"/>
        <pt x="1438" y="618" on="0"/>
        <pt x="1436" y="563" on="0"/>
      </contour>
    </TTGlyph>
    <TTGlyph name="afii10047" xMin="95" yMin="-33" xMax="1400" yMax="1632">
      <contour>
        <pt x="1383" y="831" on="1"/>
        <pt x="1385" y="816" on="0"/>
        <pt x="1383" y="802" on="1"/>
        <pt x="1354" y="615" on="0"/>
        <pt x="1218" y="307" on="0"/>
        <pt x="1008" y="88" on="0"/>
        <pt x="726" y="-33" on="0"/>
        <pt x="552" y="-33" on="1"/>
        <pt x="479" y="-33" on="0"/>
        <pt x="338" y="-14" on="0"/>
        <pt x="216" y="19" on="0"/>
        <pt x="121" y="63" on="0"/>
        <pt x="95" y="88" on="1"/>
        <pt x="233" y="340" on="1"/>
        <pt x="380" y="230" on="0"/>
        <pt x="565" y="230" on="1"/>
        <pt x="739" y="230" on="0"/>
        <pt x="961" y="478" on="0"/>
        <pt x="1011" y="707" on="1"/>
        <pt x="450" y="707" on="1"/>
        <pt x="484" y="928" on="1"/>
        <pt x="1043" y="928" on="1"/>
        <pt x="1046" y="958" on="0"/>
        <pt x="1048" y="1013" on="0"/>
        <pt x="1047" y="1039" on="1"/>
        <pt x="1044" y="1115" on="0"/>
        <pt x="1010" y="1239" on="0"/>
        <pt x="939" y="1326" on="0"/>
        <pt x="827" y="1373" on="0"/>
        <pt x="746" y="1373" on="1"/>
        <pt x="572" y="1373" on="0"/>
        <pt x="436" y="1296" on="1"/>
        <pt x="422" y="1288" on="0"/>
        <pt x="395" y="1274" on="0"/>
        <pt x="380" y="1266" on="1"/>
        <pt x="325" y="1519" on="1"/>
        <pt x="333" y="1523" on="0"/>
        <pt x="346" y="1530" on="0"/>
        <pt x="354" y="1534" on="1"/>
        <pt x="383" y="1550" on="0"/>
        <pt x="478" y="1585" on="0"/>
        <pt x="599" y="1614" on="0"/>
        <pt x="740" y="1632" on="0"/>
        <pt x="815" y="1632" on="1"/>
        <pt x="957" y="1632" on="0"/>
        <pt x="1172" y="1557" on="0"/>
        <pt x="1318" y="1413" on="0"/>
        <pt x="1396" y="1201" on="0"/>
        <pt x="1400" y="1064" on="1"/>
        <pt x="1402" y="1010" on="0"/>
        <pt x="1394" y="894" on="0"/>
      </contour>
    </TTGlyph>
    <TTGlyph name="afii10048" xMin="83" yMin="-35" xMax="2188" yMax="1627">
      <contour>
        <pt x="1380" y="230" on="1"/>
        <pt x="1477" y="230" on="0"/>
        <pt x="1621" y="310" on="0"/>
        <pt x="1723" y="443" on="0"/>
        <pt x="1787" y="616" on="0"/>
        <pt x="1822" y="801" on="0"/>
        <pt x="1832" y="986" on="0"/>
        <pt x="1830" y="1065" on="1"/>
        <pt x="1825" y="1133" on="0"/>
        <pt x="1789" y="1247" on="0"/>
        <pt x="1720" y="1328" on="0"/>
        <pt x="1614" y="1373" on="0"/>
        <pt x="1540" y="1373" on="1"/>
        <pt x="1445" y="1373" on="0"/>
        <pt x="1303" y="1296" on="0"/>
        <pt x="1201" y="1167" on="0"/>
        <pt x="1135" y="999" on="0"/>
        <pt x="1098" y="817" on="0"/>
        <pt x="1086" y="635" on="0"/>
        <pt x="1090" y="557" on="1"/>
        <pt x="1094" y="480" on="0"/>
        <pt x="1130" y="359" on="0"/>
        <pt x="1201" y="275" on="0"/>
        <pt x="1307" y="230" on="0"/>
      </contour>
      <contour>
        <pt x="770" y="916" on="1"/>
        <pt x="790" y="1004" on="0"/>
        <pt x="852" y="1179" on="0"/>
        <pt x="945" y="1337" on="0"/>
        <pt x="1071" y="1472" on="0"/>
        <pt x="1237" y="1571" on="0"/>
        <pt x="1447" y="1627" on="0"/>
        <pt x="1577" y="1627" on="1"/>
        <pt x="1701" y="1627" on="0"/>
        <pt x="1888" y="1578" on="0"/>
        <pt x="2024" y="1490" on="0"/>
        <pt x="2113" y="1368" on="0"/>
        <pt x="2166" y="1223" on="0"/>
        <pt x="2188" y="1059" on="0"/>
        <pt x="2188" y="974" on="1"/>
        <pt x="2184" y="841" on="0"/>
        <pt x="2137" y="587" on="0"/>
        <pt x="2049" y="363" on="0"/>
        <pt x="1915" y="176" on="0"/>
        <pt x="1730" y="40" on="0"/>
        <pt x="1493" y="-35" on="0"/>
        <pt x="1345" y="-35" on="1"/>
        <pt x="1183" y="-35" on="0"/>
        <pt x="956" y="54" on="0"/>
        <pt x="810" y="210" on="0"/>
        <pt x="739" y="420" on="0"/>
        <pt x="733" y="541" on="1"/>
        <pt x="731" y="579" on="0"/>
        <pt x="733" y="658" on="0"/>
        <pt x="737" y="702" on="1"/>
        <pt x="540" y="702" on="1"/>
        <pt x="440" y="-3" on="1"/>
        <pt x="83" y="-3" on="1"/>
        <pt x="310" y="1603" on="1"/>
        <pt x="666" y="1603" on="1"/>
        <pt x="643" y="1436" on="0"/>
        <pt x="596" y="1106" on="0"/>
        <pt x="572" y="939" on="1"/>
        <pt x="749" y="921" on="1"/>
      </contour>
    </TTGlyph>
    <TTGlyph name="afii10049" xMin="115" yMin="-4" xMax="1570" yMax="1603">
      <contour>
        <pt x="705" y="797" on="1"/>
        <pt x="703" y="799" on="0"/>
        <pt x="699" y="801" on="0"/>
        <pt x="697" y="804" on="1"/>
        <pt x="610" y="809" on="0"/>
        <pt x="465" y="847" on="0"/>
        <pt x="359" y="919" on="0"/>
        <pt x="298" y="1027" on="0"/>
        <pt x="294" y="1102" on="1"/>
        <pt x="286" y="1255" on="0"/>
        <pt x="430" y="1481" on="0"/>
        <pt x="587" y="1536" on="1"/>
        <pt x="685" y="1570" on="0"/>
        <pt x="962" y="1603" on="0"/>
        <pt x="1151" y="1603" on="1"/>
        <pt x="1570" y="1603" on="1"/>
        <pt x="1344" y="-3" on="1"/>
        <pt x="987" y="-3" on="1"/>
        <pt x="1084" y="691" on="1"/>
        <pt x="959" y="691" on="1"/>
        <pt x="864" y="691" on="0"/>
        <pt x="715" y="666" on="0"/>
        <pt x="605" y="603" on="0"/>
        <pt x="537" y="495" on="0"/>
        <pt x="525" y="411" on="1"/>
        <pt x="468" y="-4" on="1"/>
        <pt x="115" y="-4" on="1"/>
        <pt x="169" y="387" on="1"/>
        <pt x="185" y="491" on="0"/>
        <pt x="275" y="637" on="0"/>
        <pt x="415" y="733" on="0"/>
        <pt x="597" y="786" on="0"/>
      </contour>
      <contour>
        <pt x="1066" y="907" on="1"/>
        <pt x="1112" y="907" on="1"/>
        <pt x="1179" y="1382" on="1"/>
        <pt x="1084" y="1382" on="1"/>
        <pt x="975" y="1382" on="0"/>
        <pt x="817" y="1363" on="0"/>
        <pt x="710" y="1311" on="0"/>
        <pt x="650" y="1221" on="0"/>
        <pt x="640" y="1151" on="1"/>
        <pt x="638" y="1135" on="0"/>
        <pt x="637" y="1107" on="0"/>
        <pt x="638" y="1095" on="1"/>
        <pt x="641" y="1038" on="0"/>
        <pt x="696" y="966" on="0"/>
        <pt x="800" y="925" on="0"/>
        <pt x="952" y="909" on="0"/>
        <pt x="1052" y="909" on="1"/>
      </contour>
    </TTGlyph>
    <TTGlyph name="afii10050" xMin="83" yMin="0" xMax="1296" yMax="1953">
      <contour>
        <pt x="1008" y="1607" on="1"/>
        <pt x="1053" y="1953" on="1"/>
        <pt x="1296" y="1951" on="1"/>
        <pt x="1225" y="1387" on="1"/>
        <pt x="636" y="1387" on="1"/>
        <pt x="440" y="0" on="1"/>
        <pt x="83" y="0" on="1"/>
        <pt x="309" y="1607" on="1"/>
      </contour>
    </TTGlyph>
    <TTGlyph name="afii10051" xMin="201" yMin="-280" xMax="1629" yMax="1609">
      <contour>
        <pt x="896" y="-48" on="1"/>
        <pt x="900" y="-47" on="0"/>
        <pt x="906" y="-46" on="0"/>
        <pt x="910" y="-45" on="1"/>
        <pt x="924" y="-47" on="0"/>
        <pt x="956" y="-49" on="0"/>
        <pt x="973" y="-49" on="1"/>
        <pt x="1061" y="-47" on="0"/>
        <pt x="1171" y="67" on="0"/>
        <pt x="1190" y="170" on="1"/>
        <pt x="1202" y="240" on="0"/>
        <pt x="1224" y="379" on="0"/>
        <pt x="1247" y="525" on="0"/>
        <pt x="1270" y="679" on="0"/>
        <pt x="1283" y="765" on="1"/>
        <pt x="1285" y="777" on="0"/>
        <pt x="1287" y="798" on="0"/>
        <pt x="1288" y="806" on="1"/>
        <pt x="1288" y="818" on="0"/>
        <pt x="1288" y="839" on="0"/>
        <pt x="1287" y="848" on="1"/>
        <pt x="1282" y="915" on="0"/>
        <pt x="1210" y="989" on="0"/>
        <pt x="1140" y="989" on="1"/>
        <pt x="1100" y="989" on="0"/>
        <pt x="1039" y="979" on="0"/>
        <pt x="986" y="958" on="0"/>
        <pt x="934" y="925" on="0"/>
        <pt x="904" y="903" on="1"/>
        <pt x="761" y="2" on="1"/>
        <pt x="405" y="2" on="1"/>
        <pt x="618" y="1361" on="1"/>
        <pt x="201" y="1361" on="1"/>
        <pt x="241" y="1609" on="1"/>
        <pt x="1426" y="1609" on="1"/>
        <pt x="1387" y="1361" on="1"/>
        <pt x="976" y="1361" on="1"/>
        <pt x="931" y="1072" on="1"/>
        <pt x="950" y="1099" on="0"/>
        <pt x="1018" y="1152" on="0"/>
        <pt x="1111" y="1193" on="0"/>
        <pt x="1225" y="1218" on="0"/>
        <pt x="1290" y="1218" on="1"/>
        <pt x="1449" y="1218" on="0"/>
        <pt x="1624" y="1055" on="0"/>
        <pt x="1629" y="889" on="1"/>
        <pt x="1631" y="854" on="0"/>
        <pt x="1625" y="783" on="0"/>
        <pt x="1619" y="742" on="1"/>
        <pt x="1609" y="675" on="0"/>
        <pt x="1587" y="536" on="0"/>
        <pt x="1565" y="398" on="0"/>
        <pt x="1544" y="265" on="0"/>
        <pt x="1535" y="204" on="1"/>
        <pt x="1516" y="85" on="0"/>
        <pt x="1431" y="-95" on="0"/>
        <pt x="1306" y="-216" on="0"/>
        <pt x="1145" y="-278" on="0"/>
        <pt x="1049" y="-280" on="1"/>
        <pt x="988" y="-280" on="0"/>
        <pt x="887" y="-262" on="0"/>
        <pt x="847" y="-242" on="1"/>
      </contour>
    </TTGlyph>
    <TTGlyph name="afii10052" xMin="83" yMin="0" xMax="1255" yMax="2446">
      <contour>
        <pt x="643" y="1821" on="1"/>
        <pt x="927" y="2446" on="1"/>
        <pt x="1219" y="2313" on="1"/>
        <pt x="789" y="1754" on="1"/>
      </contour>
      <contour>
        <pt x="1255" y="1607" on="1"/>
        <pt x="1225" y="1387" on="1"/>
        <pt x="636" y="1387" on="1"/>
        <pt x="440" y="0" on="1"/>
        <pt x="83" y="0" on="1"/>
        <pt x="309" y="1607" on="1"/>
      </contour>
    </TTGlyph>
    <TTGlyph name="afii10053" xMin="146" yMin="-33" xMax="1451" yMax="1632">
      <contour>
        <pt x="161" y="779" on="1"/>
        <pt x="189" y="976" on="0"/>
        <pt x="324" y="1292" on="0"/>
        <pt x="535" y="1513" on="0"/>
        <pt x="820" y="1632" on="0"/>
        <pt x="997" y="1632" on="1"/>
        <pt x="1072" y="1632" on="0"/>
        <pt x="1205" y="1613" on="0"/>
        <pt x="1315" y="1585" on="0"/>
        <pt x="1398" y="1550" on="0"/>
        <pt x="1422" y="1535" on="1"/>
        <pt x="1436" y="1528" on="0"/>
        <pt x="1451" y="1519" on="1"/>
        <pt x="1314" y="1266" on="1"/>
        <pt x="1259" y="1305" on="0"/>
        <pt x="1152" y="1354" on="0"/>
        <pt x="1083" y="1365" on="1"/>
        <pt x="1056" y="1370" on="0"/>
        <pt x="1000" y="1373" on="0"/>
        <pt x="970" y="1373" on="1"/>
        <pt x="880" y="1371" on="0"/>
        <pt x="742" y="1307" on="0"/>
        <pt x="639" y="1190" on="0"/>
        <pt x="567" y="1027" on="0"/>
        <pt x="542" y="927" on="1"/>
        <pt x="1112" y="927" on="1"/>
        <pt x="1077" y="709" on="1"/>
        <pt x="504" y="709" on="1"/>
        <pt x="501" y="671" on="0"/>
        <pt x="497" y="604" on="0"/>
        <pt x="499" y="572" on="1"/>
        <pt x="504" y="403" on="0"/>
        <pt x="652" y="230" on="0"/>
        <pt x="799" y="230" on="1"/>
        <pt x="984" y="230" on="0"/>
        <pt x="1166" y="340" on="1"/>
        <pt x="1222" y="88" on="1"/>
        <pt x="1189" y="64" on="0"/>
        <pt x="1083" y="20" on="0"/>
        <pt x="952" y="-13" on="0"/>
        <pt x="803" y="-33" on="0"/>
        <pt x="728" y="-33" on="1"/>
        <pt x="588" y="-33" on="0"/>
        <pt x="374" y="47" on="0"/>
        <pt x="228" y="197" on="0"/>
        <pt x="150" y="412" on="0"/>
        <pt x="146" y="547" on="1"/>
        <pt x="144" y="601" on="0"/>
        <pt x="150" y="715" on="0"/>
      </contour>
    </TTGlyph>
    <TTGlyph name="afii10054" xMin="119" yMin="-38" xMax="1269" yMax="1629">
      <component glyphName="S" x="0" y="0" flags="0x1004"/>
    </TTGlyph>
    <TTGlyph name="afii10055" xMin="39" yMin="0" xMax="961" yMax="1605">
      <component glyphName="I" x="3" y="0" flags="0x1004"/>
    </TTGlyph>
    <TTGlyph name="afii10056" xMin="36" yMin="0" xMax="1118" yMax="2081">
      <component glyphName="I" x="0" y="0" flags="0x1204"/>
      <component glyphName="dieresis" x="-6" y="1572" flags="0x1004"/>
    </TTGlyph>
    <TTGlyph name="afii10057" xMin="68" yMin="-88" xMax="887" yMax="1605">
      <component glyphName="J" x="0" y="0" flags="0x1204"/>
    </TTGlyph>
    <TTGlyph name="afii10058" xMin="42" yMin="-3" xMax="2557" yMax="1606">
      <contour>
        <pt x="1703" y="0" on="1"/>
        <pt x="1264" y="0" on="1"/>
        <pt x="1480" y="1385" on="1"/>
        <pt x="916" y="1385" on="1"/>
        <pt x="826" y="832" on="1"/>
        <pt x="807" y="717" on="0"/>
        <pt x="754" y="503" on="0"/>
        <pt x="673" y="318" on="0"/>
        <pt x="559" y="165" on="0"/>
        <pt x="398" y="57" on="0"/>
        <pt x="183" y="-3" on="0"/>
        <pt x="42" y="-3" on="1"/>
        <pt x="94" y="323" on="1"/>
        <pt x="159" y="323" on="0"/>
        <pt x="260" y="350" on="0"/>
        <pt x="338" y="405" on="0"/>
        <pt x="393" y="493" on="0"/>
        <pt x="413" y="555" on="1"/>
        <pt x="426" y="597" on="0"/>
        <pt x="453" y="736" on="0"/>
        <pt x="470" y="838" on="1"/>
        <pt x="594" y="1606" on="1"/>
        <pt x="1872" y="1606" on="1"/>
        <pt x="1783" y="1034" on="1"/>
        <pt x="1854" y="1034" on="1"/>
        <pt x="2011" y="1034" on="0"/>
        <pt x="2268" y="998" on="0"/>
        <pt x="2451" y="910" on="0"/>
        <pt x="2553" y="761" on="0"/>
        <pt x="2557" y="647" on="1"/>
        <pt x="2559" y="570" on="0"/>
        <pt x="2529" y="424" on="0"/>
        <pt x="2474" y="296" on="0"/>
        <pt x="2397" y="192" on="0"/>
        <pt x="2353" y="156" on="1"/>
        <pt x="2295" y="109" on="0"/>
        <pt x="2155" y="48" on="0"/>
        <pt x="1993" y="12" on="0"/>
        <pt x="1814" y="-3" on="0"/>
        <pt x="1717" y="-3" on="1"/>
      </contour>
      <contour>
        <pt x="2192" y="539" on="1"/>
        <pt x="2196" y="556" on="0"/>
        <pt x="2197" y="591" on="0"/>
        <pt x="2195" y="606" on="1"/>
        <pt x="2191" y="668" on="0"/>
        <pt x="2130" y="749" on="0"/>
        <pt x="2028" y="797" on="0"/>
        <pt x="1893" y="817" on="0"/>
        <pt x="1815" y="817" on="1"/>
        <pt x="1744" y="817" on="1"/>
        <pt x="1650" y="217" on="1"/>
        <pt x="1751" y="217" on="1"/>
        <pt x="1854" y="217" on="0"/>
        <pt x="2009" y="252" on="0"/>
        <pt x="2116" y="328" on="0"/>
        <pt x="2180" y="451" on="0"/>
      </contour>
    </TTGlyph>
    <TTGlyph name="afii10059" xMin="83" yMin="-2" xMax="2308" yMax="1607">
      <contour>
        <pt x="1468" y="0" on="1"/>
        <pt x="1029" y="0" on="1"/>
        <pt x="1129" y="723" on="1"/>
        <pt x="541" y="723" on="1"/>
        <pt x="440" y="0" on="1"/>
        <pt x="83" y="0" on="1"/>
        <pt x="309" y="1607" on="1"/>
        <pt x="666" y="1607" on="1"/>
        <pt x="571" y="942" on="1"/>
        <pt x="1160" y="942" on="1"/>
        <pt x="1254" y="1607" on="1"/>
        <pt x="1612" y="1607" on="1"/>
        <pt x="1532" y="1036" on="1"/>
        <pt x="1603" y="1036" on="1"/>
        <pt x="1758" y="1036" on="0"/>
        <pt x="2011" y="1001" on="0"/>
        <pt x="2194" y="916" on="0"/>
        <pt x="2300" y="771" on="0"/>
        <pt x="2308" y="661" on="1"/>
        <pt x="2314" y="582" on="0"/>
        <pt x="2301" y="510" on="1"/>
        <pt x="2283" y="404" on="0"/>
        <pt x="2206" y="246" on="0"/>
        <pt x="2093" y="132" on="0"/>
        <pt x="1947" y="58" on="0"/>
        <pt x="1777" y="15" on="0"/>
        <pt x="1585" y="-2" on="0"/>
        <pt x="1482" y="-2" on="1"/>
      </contour>
      <contour>
        <pt x="1948" y="541" on="1"/>
        <pt x="1956" y="578" on="0"/>
        <pt x="1950" y="608" on="1"/>
        <pt x="1945" y="670" on="0"/>
        <pt x="1882" y="751" on="0"/>
        <pt x="1779" y="798" on="0"/>
        <pt x="1644" y="817" on="0"/>
        <pt x="1566" y="817" on="1"/>
        <pt x="1496" y="817" on="1"/>
        <pt x="1413" y="218" on="1"/>
        <pt x="1514" y="218" on="1"/>
        <pt x="1618" y="218" on="0"/>
        <pt x="1771" y="253" on="0"/>
        <pt x="1877" y="331" on="0"/>
        <pt x="1937" y="454" on="0"/>
      </contour>
    </TTGlyph>
    <TTGlyph name="afii10060" xMin="221" yMin="-1" xMax="1597" yMax="1606">
      <contour>
        <pt x="754" y="-1" on="1"/>
        <pt x="398" y="-1" on="1"/>
        <pt x="611" y="1358" on="1"/>
        <pt x="221" y="1358" on="1"/>
        <pt x="260" y="1606" on="1"/>
        <pt x="1446" y="1606" on="1"/>
        <pt x="1407" y="1358" on="1"/>
        <pt x="968" y="1358" on="1"/>
        <pt x="919" y="1032" on="1"/>
        <pt x="1256" y="1032" on="1"/>
        <pt x="1331" y="1032" on="0"/>
        <pt x="1455" y="990" on="0"/>
        <pt x="1544" y="908" on="0"/>
        <pt x="1594" y="785" on="0"/>
        <pt x="1597" y="703" on="1"/>
        <pt x="1599" y="670" on="0"/>
        <pt x="1593" y="599" on="0"/>
        <pt x="1585" y="557" on="1"/>
        <pt x="1564" y="425" on="0"/>
        <pt x="1519" y="150" on="0"/>
        <pt x="1496" y="-1" on="1"/>
        <pt x="1157" y="-1" on="1"/>
        <pt x="1182" y="155" on="0"/>
        <pt x="1227" y="441" on="0"/>
        <pt x="1250" y="579" on="1"/>
        <pt x="1254" y="601" on="0"/>
        <pt x="1256" y="633" on="0"/>
        <pt x="1255" y="650" on="1"/>
        <pt x="1254" y="688" on="0"/>
        <pt x="1230" y="746" on="0"/>
        <pt x="1191" y="784" on="0"/>
        <pt x="1141" y="803" on="0"/>
        <pt x="1114" y="803" on="1"/>
        <pt x="884" y="803" on="1"/>
      </contour>
    </TTGlyph>
    <TTGlyph name="afii10061" xMin="83" yMin="0" xMax="1582" yMax="2336">
      <component glyphName="acute" x="494" y="1499" flags="0x1004"/>
      <component glyphName="afii10028" x="0" y="0" flags="0x1004"/>
    </TTGlyph>
    <TTGlyph name="afii10062" xMin="114" yMin="-204" xMax="1407" yMax="1979">
      <contour>
        <pt x="1160" y="1974" on="1"/>
        <pt x="1132" y="1808" on="0"/>
        <pt x="939" y="1655" on="0"/>
        <pt x="773" y="1655" on="1"/>
        <pt x="629" y="1655" on="0"/>
        <pt x="485" y="1766" on="0"/>
        <pt x="480" y="1884" on="1"/>
        <pt x="479" y="1907" on="0"/>
        <pt x="483" y="1953" on="0"/>
        <pt x="488" y="1979" on="1"/>
        <pt x="691" y="1979" on="1"/>
        <pt x="688" y="1967" on="0"/>
        <pt x="686" y="1945" on="0"/>
        <pt x="685" y="1934" on="1"/>
        <pt x="680" y="1861" on="0"/>
        <pt x="728" y="1792" on="0"/>
        <pt x="796" y="1792" on="1"/>
        <pt x="834" y="1792" on="0"/>
        <pt x="890" y="1814" on="0"/>
        <pt x="929" y="1860" on="0"/>
        <pt x="954" y="1931" on="0"/>
        <pt x="962" y="1979" on="1"/>
        <pt x="1165" y="1979" on="1"/>
      </contour>
      <contour>
        <pt x="671" y="906" on="1"/>
        <pt x="1062" y="1606" on="1"/>
        <pt x="1407" y="1606" on="1"/>
        <pt x="774" y="519" on="1"/>
        <pt x="748" y="337" on="1"/>
        <pt x="743" y="305" on="0"/>
        <pt x="724" y="200" on="0"/>
        <pt x="679" y="80" on="0"/>
        <pt x="602" y="-42" on="0"/>
        <pt x="477" y="-141" on="0"/>
        <pt x="296" y="-204" on="0"/>
        <pt x="171" y="-204" on="1"/>
        <pt x="114" y="35" on="1"/>
        <pt x="179" y="35" on="0"/>
        <pt x="276" y="63" on="0"/>
        <pt x="346" y="109" on="0"/>
        <pt x="393" y="170" on="0"/>
        <pt x="422" y="237" on="0"/>
        <pt x="438" y="306" on="0"/>
        <pt x="443" y="337" on="1"/>
        <pt x="468" y="518" on="1"/>
        <pt x="157" y="1606" on="1"/>
        <pt x="488" y="1606" on="1"/>
      </contour>
    </TTGlyph>
    <TTGlyph name="afii10065" xMin="93" yMin="-17" xMax="1134" yMax="1145">
      <contour>
        <pt x="1134" y="1007" on="1"/>
        <pt x="1009" y="0" on="1"/>
        <pt x="791" y="0" on="1"/>
        <pt x="750" y="171" on="1"/>
        <pt x="734" y="132" on="0"/>
        <pt x="679" y="63" on="0"/>
        <pt x="603" y="12" on="0"/>
        <pt x="509" y="-17" on="0"/>
        <pt x="455" y="-17" on="1"/>
        <pt x="362" y="-17" on="0"/>
        <pt x="226" y="45" on="0"/>
        <pt x="137" y="156" on="0"/>
        <pt x="94" y="310" on="0"/>
        <pt x="93" y="404" on="1"/>
        <pt x="91" y="492" on="0"/>
        <pt x="130" y="670" on="0"/>
        <pt x="204" y="834" on="0"/>
        <pt x="308" y="978" on="0"/>
        <pt x="437" y="1084" on="0"/>
        <pt x="585" y="1145" on="0"/>
        <pt x="665" y="1145" on="1"/>
        <pt x="743" y="1145" on="0"/>
        <pt x="885" y="1118" on="0"/>
        <pt x="1001" y="1079" on="0"/>
        <pt x="1087" y="1038" on="0"/>
        <pt x="1110" y="1023" on="1"/>
      </contour>
      <contour>
        <pt x="398" y="436" on="1"/>
        <pt x="400" y="321" on="0"/>
        <pt x="474" y="211" on="0"/>
        <pt x="547" y="211" on="1"/>
        <pt x="615" y="211" on="0"/>
        <pt x="714" y="257" on="0"/>
        <pt x="743" y="295" on="1"/>
        <pt x="820" y="904" on="1"/>
        <pt x="797" y="911" on="0"/>
        <pt x="733" y="921" on="0"/>
        <pt x="697" y="921" on="1"/>
        <pt x="660" y="921" on="0"/>
        <pt x="587" y="885" on="0"/>
        <pt x="520" y="821" on="0"/>
        <pt x="462" y="731" on="0"/>
        <pt x="420" y="623" on="0"/>
        <pt x="397" y="501" on="0"/>
      </contour>
    </TTGlyph>
    <TTGlyph name="afii10066" xMin="165" yMin="-19" xMax="1400" yMax="1673">
      <contour>
        <pt x="620" y="-19" on="1"/>
        <pt x="505" y="-19" on="0"/>
        <pt x="337" y="46" on="0"/>
        <pt x="225" y="167" on="0"/>
        <pt x="168" y="338" on="0"/>
        <pt x="165" y="444" on="1"/>
        <pt x="161" y="558" on="0"/>
        <pt x="187" y="816" on="0"/>
        <pt x="252" y="1068" on="0"/>
        <pt x="361" y="1300" on="0"/>
        <pt x="518" y="1476" on="0"/>
        <pt x="727" y="1581" on="0"/>
        <pt x="860" y="1581" on="1"/>
        <pt x="885" y="1581" on="0"/>
        <pt x="943" y="1576" on="0"/>
        <pt x="975" y="1576" on="1"/>
        <pt x="1003" y="1576" on="0"/>
        <pt x="1054" y="1583" on="0"/>
        <pt x="1096" y="1604" on="0"/>
        <pt x="1126" y="1640" on="0"/>
        <pt x="1131" y="1670" on="1"/>
        <pt x="1400" y="1673" on="1"/>
        <pt x="1389" y="1596" on="0"/>
        <pt x="1330" y="1492" on="0"/>
        <pt x="1217" y="1430" on="0"/>
        <pt x="1045" y="1404" on="0"/>
        <pt x="921" y="1404" on="1"/>
        <pt x="758" y="1404" on="0"/>
        <pt x="582" y="1232" on="0"/>
        <pt x="548" y="1064" on="1"/>
        <pt x="622" y="1136" on="0"/>
        <pt x="817" y="1205" on="0"/>
        <pt x="922" y="1205" on="1"/>
        <pt x="1007" y="1205" on="0"/>
        <pt x="1139" y="1142" on="0"/>
        <pt x="1232" y="1032" on="0"/>
        <pt x="1283" y="884" on="0"/>
        <pt x="1286" y="799" on="1"/>
        <pt x="1289" y="693" on="0"/>
        <pt x="1257" y="490" on="0"/>
        <pt x="1185" y="308" on="0"/>
        <pt x="1075" y="155" on="0"/>
        <pt x="924" y="44" on="0"/>
        <pt x="734" y="-19" on="0"/>
      </contour>
      <contour>
        <pt x="578" y="877" on="1"/>
        <pt x="552" y="783" on="0"/>
        <pt x="518" y="643" on="0"/>
        <pt x="498" y="538" on="0"/>
        <pt x="490" y="465" on="0"/>
        <pt x="489" y="438" on="1"/>
        <pt x="489" y="313" on="0"/>
        <pt x="567" y="189" on="0"/>
        <pt x="654" y="189" on="1"/>
        <pt x="706" y="189" on="0"/>
        <pt x="791" y="247" on="0"/>
        <pt x="859" y="345" on="0"/>
        <pt x="908" y="473" on="0"/>
        <pt x="939" y="611" on="0"/>
        <pt x="953" y="750" on="0"/>
        <pt x="951" y="811" on="1"/>
        <pt x="950" y="844" on="0"/>
        <pt x="936" y="904" on="0"/>
        <pt x="906" y="952" on="0"/>
        <pt x="857" y="981" on="0"/>
        <pt x="820" y="982" on="1"/>
        <pt x="712" y="984" on="0"/>
      </contour>
    </TTGlyph>
    <TTGlyph name="afii10067" xMin="91" yMin="-2" xMax="1082" yMax="1130">
      <contour>
        <pt x="679" y="1130" on="1"/>
        <pt x="724" y="1130" on="0"/>
        <pt x="819" y="1116" on="0"/>
        <pt x="908" y="1088" on="0"/>
        <pt x="988" y="1044" on="0"/>
        <pt x="1047" y="982" on="0"/>
        <pt x="1082" y="904" on="0"/>
        <pt x="1082" y="855" on="1"/>
        <pt x="1082" y="788" on="0"/>
        <pt x="1033" y="685" on="0"/>
        <pt x="946" y="613" on="0"/>
        <pt x="827" y="572" on="0"/>
        <pt x="757" y="568" on="1"/>
        <pt x="763" y="567" on="0"/>
        <pt x="807" y="559" on="0"/>
        <pt x="866" y="540" on="0"/>
        <pt x="931" y="510" on="0"/>
        <pt x="985" y="464" on="0"/>
        <pt x="1021" y="399" on="0"/>
        <pt x="1021" y="356" on="1"/>
        <pt x="1021" y="293" on="0"/>
        <pt x="980" y="191" on="0"/>
        <pt x="909" y="112" on="0"/>
        <pt x="814" y="54" on="0"/>
        <pt x="708" y="16" on="0"/>
        <pt x="597" y="-2" on="0"/>
        <pt x="545" y="-2" on="1"/>
        <pt x="465" y="-2" on="0"/>
        <pt x="304" y="42" on="0"/>
        <pt x="173" y="143" on="0"/>
        <pt x="91" y="308" on="0"/>
        <pt x="91" y="430" on="1"/>
        <pt x="91" y="515" on="0"/>
        <pt x="117" y="684" on="0"/>
        <pt x="174" y="840" on="0"/>
        <pt x="265" y="974" on="0"/>
        <pt x="396" y="1073" on="0"/>
        <pt x="569" y="1130" on="0"/>
      </contour>
      <contour>
        <pt x="421" y="672" on="1"/>
        <pt x="479" y="671" on="0"/>
        <pt x="608" y="680" on="0"/>
        <pt x="714" y="710" on="0"/>
        <pt x="784" y="768" on="0"/>
        <pt x="784" y="816" on="1"/>
        <pt x="784" y="843" on="0"/>
        <pt x="764" y="881" on="0"/>
        <pt x="730" y="905" on="0"/>
        <pt x="684" y="916" on="0"/>
        <pt x="657" y="916" on="1"/>
        <pt x="630" y="916" on="0"/>
        <pt x="565" y="900" on="0"/>
        <pt x="500" y="848" on="0"/>
        <pt x="441" y="752" on="0"/>
      </contour>
      <contour>
        <pt x="396" y="476" on="1"/>
        <pt x="394" y="444" on="0"/>
        <pt x="396" y="388" on="0"/>
        <pt x="400" y="365" on="1"/>
        <pt x="407" y="319" on="0"/>
        <pt x="439" y="260" on="0"/>
        <pt x="482" y="225" on="0"/>
        <pt x="534" y="211" on="0"/>
        <pt x="561" y="211" on="1"/>
        <pt x="592" y="211" on="0"/>
        <pt x="651" y="231" on="0"/>
        <pt x="696" y="270" on="0"/>
        <pt x="723" y="329" on="0"/>
        <pt x="723" y="367" on="1"/>
        <pt x="723" y="398" on="0"/>
        <pt x="687" y="438" on="0"/>
        <pt x="629" y="461" on="0"/>
        <pt x="557" y="471" on="0"/>
        <pt x="484" y="475" on="0"/>
        <pt x="418" y="475" on="0"/>
      </contour>
    </TTGlyph>
    <TTGlyph name="afii10068" xMin="77" yMin="-17" xMax="972" yMax="1145">
      <contour>
        <pt x="972" y="878" on="1"/>
        <pt x="972" y="801" on="0"/>
        <pt x="918" y="680" on="0"/>
        <pt x="825" y="585" on="0"/>
        <pt x="700" y="514" on="0"/>
        <pt x="628" y="487" on="1"/>
        <pt x="480" y="424" on="1"/>
        <pt x="429" y="406" on="0"/>
        <pt x="357" y="347" on="0"/>
        <pt x="357" y="302" on="1"/>
        <pt x="357" y="253" on="0"/>
        <pt x="432" y="215" on="0"/>
        <pt x="501" y="215" on="1"/>
        <pt x="551" y="215" on="0"/>
        <pt x="662" y="238" on="0"/>
        <pt x="756" y="268" on="0"/>
        <pt x="821" y="294" on="0"/>
        <pt x="825" y="297" on="1"/>
        <pt x="853" y="85" on="1"/>
        <pt x="772" y="35" on="0"/>
        <pt x="569" y="-16" on="0"/>
        <pt x="443" y="-17" on="1"/>
        <pt x="357" y="-16" on="0"/>
        <pt x="221" y="25" on="0"/>
        <pt x="127" y="100" on="0"/>
        <pt x="77" y="206" on="0"/>
        <pt x="77" y="274" on="1"/>
        <pt x="77" y="365" on="0"/>
        <pt x="136" y="493" on="0"/>
        <pt x="238" y="587" on="0"/>
        <pt x="376" y="656" on="0"/>
        <pt x="456" y="688" on="1"/>
        <pt x="596" y="744" on="1"/>
        <pt x="649" y="765" on="0"/>
        <pt x="698" y="807" on="0"/>
        <pt x="698" y="848" on="1"/>
        <pt x="698" y="882" on="0"/>
        <pt x="626" y="912" on="0"/>
        <pt x="542" y="912" on="1"/>
        <pt x="492" y="912" on="0"/>
        <pt x="390" y="894" on="0"/>
        <pt x="304" y="872" on="0"/>
        <pt x="246" y="851" on="0"/>
        <pt x="240" y="847" on="1"/>
        <pt x="210" y="1056" on="1"/>
        <pt x="256" y="1079" on="0"/>
        <pt x="358" y="1112" on="0"/>
        <pt x="461" y="1134" on="0"/>
        <pt x="560" y="1145" on="0"/>
        <pt x="604" y="1145" on="1"/>
        <pt x="691" y="1145" on="0"/>
        <pt x="827" y="1108" on="0"/>
        <pt x="922" y="1039" on="0"/>
        <pt x="972" y="940" on="0"/>
      </contour>
    </TTGlyph>
    <TTGlyph name="afii10069" xMin="96" yMin="-17" xMax="1127" yMax="1633">
      <contour>
        <pt x="830" y="781" on="1"/>
        <pt x="831" y="815" on="0"/>
        <pt x="827" y="845" on="1"/>
        <pt x="826" y="849" on="0"/>
        <pt x="801" y="872" on="0"/>
        <pt x="761" y="897" on="0"/>
        <pt x="707" y="916" on="0"/>
        <pt x="676" y="916" on="1"/>
        <pt x="631" y="916" on="0"/>
        <pt x="553" y="874" on="0"/>
        <pt x="489" y="804" on="0"/>
        <pt x="439" y="712" on="0"/>
        <pt x="405" y="610" on="0"/>
        <pt x="387" y="505" on="0"/>
        <pt x="387" y="458" on="1"/>
        <pt x="387" y="344" on="0"/>
        <pt x="466" y="211" on="0"/>
        <pt x="553" y="211" on="1"/>
        <pt x="606" y="211" on="0"/>
        <pt x="686" y="266" on="0"/>
        <pt x="746" y="356" on="0"/>
        <pt x="787" y="474" on="0"/>
        <pt x="814" y="601" on="0"/>
        <pt x="827" y="727" on="0"/>
      </contour>
      <contour>
        <pt x="642" y="1145" on="1"/>
        <pt x="680" y="1145" on="0"/>
        <pt x="752" y="1130" on="0"/>
        <pt x="809" y="1109" on="0"/>
        <pt x="846" y="1085" on="0"/>
        <pt x="848" y="1076" on="1"/>
        <pt x="848" y="1093" on="0"/>
        <pt x="840" y="1159" on="0"/>
        <pt x="828" y="1192" on="1"/>
        <pt x="816" y="1234" on="0"/>
        <pt x="764" y="1312" on="0"/>
        <pt x="676" y="1373" on="0"/>
        <pt x="548" y="1409" on="0"/>
        <pt x="460" y="1409" on="1"/>
        <pt x="454" y="1515" on="1"/>
        <pt x="450" y="1633" on="1"/>
        <pt x="503" y="1633" on="0"/>
        <pt x="604" y="1625" on="0"/>
        <pt x="653" y="1617" on="1"/>
        <pt x="750" y="1600" on="0"/>
        <pt x="905" y="1520" on="0"/>
        <pt x="1020" y="1390" on="0"/>
        <pt x="1094" y="1208" on="0"/>
        <pt x="1111" y="1088" on="1"/>
        <pt x="1120" y="1027" on="0"/>
        <pt x="1128" y="893" on="0"/>
        <pt x="1127" y="818" on="1"/>
        <pt x="1126" y="706" on="0"/>
        <pt x="1090" y="495" on="0"/>
        <pt x="1021" y="309" on="0"/>
        <pt x="922" y="155" on="0"/>
        <pt x="793" y="44" on="0"/>
        <pt x="636" y="-17" on="0"/>
        <pt x="544" y="-17" on="1"/>
        <pt x="430" y="-17" on="0"/>
        <pt x="262" y="61" on="0"/>
        <pt x="151" y="191" on="0"/>
        <pt x="96" y="363" on="0"/>
        <pt x="96" y="456" on="1"/>
        <pt x="96" y="599" on="0"/>
        <pt x="179" y="850" on="0"/>
        <pt x="325" y="1037" on="0"/>
        <pt x="525" y="1145" on="0"/>
      </contour>
    </TTGlyph>
    <TTGlyph name="afii10070" xMin="96" yMin="-17" xMax="994" yMax="1145">
      <contour>
        <pt x="406" y="591" on="1"/>
        <pt x="422" y="593" on="0"/>
        <pt x="490" y="603" on="0"/>
        <pt x="572" y="622" on="0"/>
        <pt x="658" y="652" on="0"/>
        <pt x="728" y="698" on="0"/>
        <pt x="771" y="762" on="0"/>
        <pt x="769" y="805" on="1"/>
        <pt x="767" y="860" on="0"/>
        <pt x="710" y="927" on="0"/>
        <pt x="652" y="927" on="1"/>
        <pt x="593" y="927" on="0"/>
        <pt x="504" y="863" on="0"/>
        <pt x="442" y="765" on="0"/>
        <pt x="409" y="646" on="0"/>
      </contour>
      <contour>
        <pt x="395" y="451" on="1"/>
        <pt x="397" y="381" on="0"/>
        <pt x="417" y="331" on="1"/>
        <pt x="438" y="271" on="0"/>
        <pt x="531" y="204" on="0"/>
        <pt x="602" y="204" on="1"/>
        <pt x="745" y="204" on="0"/>
        <pt x="864" y="297" on="1"/>
        <pt x="925" y="97" on="1"/>
        <pt x="825" y="40" on="0"/>
        <pt x="625" y="-16" on="0"/>
        <pt x="528" y="-17" on="1"/>
        <pt x="430" y="-16" on="0"/>
        <pt x="273" y="48" on="0"/>
        <pt x="162" y="166" on="0"/>
        <pt x="99" y="332" on="0"/>
        <pt x="96" y="435" on="1"/>
        <pt x="94" y="521" on="0"/>
        <pt x="123" y="694" on="0"/>
        <pt x="187" y="851" on="0"/>
        <pt x="282" y="986" on="0"/>
        <pt x="409" y="1087" on="0"/>
        <pt x="565" y="1144" on="0"/>
        <pt x="657" y="1145" on="1"/>
        <pt x="737" y="1144" on="0"/>
        <pt x="861" y="1100" on="0"/>
        <pt x="947" y="1023" on="0"/>
        <pt x="992" y="918" on="0"/>
        <pt x="994" y="858" on="1"/>
        <pt x="1000" y="664" on="0"/>
        <pt x="704" y="464" on="0"/>
      </contour>
    </TTGlyph>
    <TTGlyph name="afii10071" xMin="92" yMin="-16" xMax="1178" yMax="1565">
      <component glyphName="e" x="0" y="0" flags="0x1200"/>
      <component glyphName="dieresis" x="54" y="1056" flags="0x1000"/>
    </TTGlyph>
    <TTGlyph name="afii10072" xMin="-2" yMin="0" xMax="1898" yMax="1126">
      <contour>
        <pt x="705" y="0" on="1"/>
        <pt x="775" y="456" on="1"/>
        <pt x="684" y="456" on="1"/>
        <pt x="354" y="1" on="1"/>
        <pt x="-2" y="1" on="1"/>
        <pt x="344" y="418" on="1"/>
        <pt x="365" y="444" on="0"/>
        <pt x="419" y="494" on="0"/>
        <pt x="479" y="534" on="0"/>
        <pt x="541" y="563" on="0"/>
        <pt x="570" y="569" on="1"/>
        <pt x="510" y="573" on="0"/>
        <pt x="420" y="656" on="0"/>
        <pt x="385" y="722" on="1"/>
        <pt x="171" y="1126" on="1"/>
        <pt x="536" y="1126" on="1"/>
        <pt x="733" y="697" on="1"/>
        <pt x="817" y="697" on="1"/>
        <pt x="884" y="1126" on="1"/>
        <pt x="1182" y="1126" on="1"/>
        <pt x="1114" y="696" on="1"/>
        <pt x="1199" y="696" on="1"/>
        <pt x="1532" y="1126" on="1"/>
        <pt x="1898" y="1126" on="1"/>
        <pt x="1556" y="722" on="1"/>
        <pt x="1500" y="656" on="0"/>
        <pt x="1381" y="573" on="0"/>
        <pt x="1321" y="569" on="1"/>
        <pt x="1349" y="562" on="0"/>
        <pt x="1402" y="533" on="0"/>
        <pt x="1449" y="493" on="0"/>
        <pt x="1487" y="444" on="0"/>
        <pt x="1501" y="418" on="1"/>
        <pt x="1716" y="0" on="1"/>
        <pt x="1357" y="0" on="1"/>
        <pt x="1172" y="454" on="1"/>
        <pt x="1077" y="454" on="1"/>
        <pt x="1005" y="0" on="1"/>
      </contour>
    </TTGlyph>
    <TTGlyph name="afii10073" xMin="51" yMin="-19" xMax="1028" yMax="1144">
      <contour>
        <pt x="273" y="471" on="1"/>
        <pt x="269" y="471" on="0"/>
        <pt x="261" y="470" on="0"/>
        <pt x="257" y="470" on="1"/>
        <pt x="289" y="675" on="1"/>
        <pt x="411" y="675" on="0"/>
        <pt x="577" y="687" on="0"/>
        <pt x="678" y="722" on="0"/>
        <pt x="722" y="787" on="0"/>
        <pt x="722" y="840" on="1"/>
        <pt x="720" y="888" on="0"/>
        <pt x="628" y="930" on="0"/>
        <pt x="534" y="930" on="1"/>
        <pt x="480" y="930" on="0"/>
        <pt x="373" y="903" on="0"/>
        <pt x="286" y="870" on="0"/>
        <pt x="232" y="841" on="0"/>
        <pt x="232" y="839" on="1"/>
        <pt x="206" y="1044" on="1"/>
        <pt x="295" y="1092" on="0"/>
        <pt x="510" y="1144" on="0"/>
        <pt x="631" y="1144" on="1"/>
        <pt x="719" y="1144" on="0"/>
        <pt x="864" y="1115" on="0"/>
        <pt x="968" y="1054" on="0"/>
        <pt x="1026" y="960" on="0"/>
        <pt x="1028" y="896" on="1"/>
        <pt x="1030" y="834" on="0"/>
        <pt x="998" y="738" on="0"/>
        <pt x="946" y="667" on="0"/>
        <pt x="883" y="618" on="0"/>
        <pt x="823" y="587" on="0"/>
        <pt x="774" y="571" on="0"/>
        <pt x="764" y="569" on="1"/>
        <pt x="765" y="569" on="1"/>
        <pt x="764" y="569" on="1"/>
        <pt x="767" y="568" on="0"/>
        <pt x="797" y="561" on="0"/>
        <pt x="837" y="542" on="0"/>
        <pt x="882" y="512" on="0"/>
        <pt x="920" y="467" on="0"/>
        <pt x="947" y="404" on="0"/>
        <pt x="949" y="362" on="1"/>
        <pt x="952" y="275" on="0"/>
        <pt x="876" y="134" on="0"/>
        <pt x="738" y="35" on="0"/>
        <pt x="548" y="-19" on="0"/>
        <pt x="437" y="-19" on="1"/>
        <pt x="315" y="-19" on="0"/>
        <pt x="124" y="36" on="0"/>
        <pt x="51" y="90" on="1"/>
        <pt x="145" y="294" on="1"/>
        <pt x="148" y="290" on="0"/>
        <pt x="198" y="258" on="0"/>
        <pt x="279" y="223" on="0"/>
        <pt x="383" y="195" on="0"/>
        <pt x="440" y="195" on="1"/>
        <pt x="544" y="195" on="0"/>
        <pt x="650" y="284" on="0"/>
        <pt x="648" y="369" on="1"/>
        <pt x="647" y="402" on="0"/>
        <pt x="601" y="443" on="0"/>
        <pt x="509" y="464" on="0"/>
        <pt x="369" y="471" on="0"/>
      </contour>
    </TTGlyph>
    <TTGlyph name="afii10074" xMin="118" yMin="-17" xMax="1171" yMax="1127">
      <contour>
        <pt x="528" y="1127" on="1"/>
        <pt x="517" y="1050" on="0"/>
        <pt x="493" y="880" on="0"/>
        <pt x="468" y="703" on="0"/>
        <pt x="443" y="525" on="0"/>
        <pt x="431" y="440" on="1"/>
        <pt x="426" y="411" on="0"/>
        <pt x="425" y="392" on="1"/>
        <pt x="425" y="379" on="0"/>
        <pt x="424" y="356" on="0"/>
        <pt x="426" y="346" on="1"/>
        <pt x="428" y="286" on="0"/>
        <pt x="500" y="214" on="0"/>
        <pt x="557" y="211" on="1"/>
        <pt x="617" y="214" on="0"/>
        <pt x="709" y="256" on="0"/>
        <pt x="746" y="297" on="1"/>
        <pt x="867" y="1127" on="1"/>
        <pt x="1171" y="1127" on="1"/>
        <pt x="1011" y="0" on="1"/>
        <pt x="796" y="0" on="1"/>
        <pt x="785" y="43" on="0"/>
        <pt x="764" y="127" on="0"/>
        <pt x="753" y="170" on="1"/>
        <pt x="734" y="133" on="0"/>
        <pt x="680" y="66" on="0"/>
        <pt x="610" y="14" on="0"/>
        <pt x="522" y="-17" on="0"/>
        <pt x="470" y="-17" on="1"/>
        <pt x="289" y="-17" on="0"/>
        <pt x="117" y="168" on="0"/>
        <pt x="118" y="350" on="1"/>
        <pt x="118" y="376" on="0"/>
        <pt x="123" y="432" on="0"/>
        <pt x="127" y="461" on="1"/>
        <pt x="139" y="543" on="0"/>
        <pt x="164" y="717" on="0"/>
        <pt x="189" y="888" on="0"/>
        <pt x="212" y="1053" on="0"/>
        <pt x="223" y="1127" on="1"/>
      </contour>
    </TTGlyph>
    <TTGlyph name="afii10075" xMin="118" yMin="-17" xMax="1171" yMax="1599">
      <component glyphName="u" x="0" y="0" flags="0x1200"/>
      <component glyphName="breve" x="33" y="1170" flags="0x1000"/>
    </TTGlyph>
    <TTGlyph name="afii10076" xMin="64" yMin="-1" xMax="1307" yMax="1128">
      <contour>
        <pt x="64" y="0" on="1"/>
        <pt x="222" y="1128" on="1"/>
        <pt x="520" y="1128" on="1"/>
        <pt x="458" y="696" on="1"/>
        <pt x="548" y="696" on="1"/>
        <pt x="942" y="1128" on="1"/>
        <pt x="1307" y="1128" on="1"/>
        <pt x="936" y="729" on="1"/>
        <pt x="913" y="702" on="0"/>
        <pt x="843" y="645" on="0"/>
        <pt x="766" y="599" on="0"/>
        <pt x="688" y="568" on="0"/>
        <pt x="656" y="567" on="1"/>
        <pt x="688" y="558" on="0"/>
        <pt x="760" y="526" on="0"/>
        <pt x="796" y="500" on="1"/>
        <pt x="818" y="485" on="0"/>
        <pt x="866" y="428" on="0"/>
        <pt x="892" y="390" on="1"/>
        <pt x="1141" y="-1" on="1"/>
        <pt x="783" y="-1" on="1"/>
        <pt x="579" y="359" on="1"/>
        <pt x="524" y="454" on="1"/>
        <pt x="423" y="454" on="1"/>
        <pt x="360" y="0" on="1"/>
      </contour>
    </TTGlyph>
    <TTGlyph name="afii10077" xMin="-34" yMin="-5" xMax="1387" yMax="1128">
      <contour>
        <pt x="467" y="1128" on="1"/>
        <pt x="1387" y="1128" on="1"/>
        <pt x="1226" y="0" on="1"/>
        <pt x="903" y="0" on="1"/>
        <pt x="1033" y="913" on="1"/>
        <pt x="732" y="913" on="1"/>
        <pt x="629" y="526" on="1"/>
        <pt x="610" y="454" on="0"/>
        <pt x="560" y="319" on="0"/>
        <pt x="490" y="201" on="0"/>
        <pt x="393" y="103" on="0"/>
        <pt x="259" y="34" on="0"/>
        <pt x="81" y="-5" on="0"/>
        <pt x="-34" y="-5" on="1"/>
        <pt x="3" y="273" on="1"/>
        <pt x="60" y="273" on="0"/>
        <pt x="158" y="292" on="0"/>
        <pt x="238" y="345" on="0"/>
        <pt x="297" y="441" on="0"/>
        <pt x="317" y="519" on="1"/>
      </contour>
    </TTGlyph>
    <TTGlyph name="afii10078" xMin="64" yMin="0" xMax="1586" yMax="1128">
      <contour>
        <pt x="784" y="309" on="1"/>
        <pt x="1152" y="1128" on="1"/>
        <pt x="1586" y="1128" on="1"/>
        <pt x="1426" y="0" on="1"/>
        <pt x="1140" y="0" on="1"/>
        <pt x="1268" y="837" on="1"/>
        <pt x="891" y="0" on="1"/>
        <pt x="599" y="0" on="1"/>
        <pt x="466" y="837" on="1"/>
        <pt x="349" y="0" on="1"/>
        <pt x="64" y="0" on="1"/>
        <pt x="224" y="1128" on="1"/>
        <pt x="658" y="1128" on="1"/>
      </contour>
    </TTGlyph>
    <TTGlyph name="afii10079" xMin="64" yMin="0" xMax="1300" yMax="1128">
      <contour>
        <pt x="224" y="1128" on="1"/>
        <pt x="544" y="1128" on="1"/>
        <pt x="483" y="694" on="1"/>
        <pt x="911" y="694" on="1"/>
        <pt x="973" y="1128" on="1"/>
        <pt x="1300" y="1128" on="1"/>
        <pt x="1139" y="0" on="1"/>
        <pt x="815" y="0" on="1"/>
        <pt x="883" y="480" on="1"/>
        <pt x="455" y="480" on="1"/>
        <pt x="386" y="0" on="1"/>
        <pt x="64" y="0" on="1"/>
      </contour>
    </TTGlyph>
    <TTGlyph name="afii10080" xMin="95" yMin="-17" xMax="1121" yMax="1145">
      <contour>
        <pt x="95" y="432" on="1"/>
        <pt x="93" y="500" on="0"/>
        <pt x="112" y="658" on="0"/>
        <pt x="162" y="817" on="0"/>
        <pt x="247" y="964" on="0"/>
        <pt x="377" y="1077" on="0"/>
        <pt x="555" y="1145" on="0"/>
        <pt x="673" y="1145" on="1"/>
        <pt x="783" y="1145" on="0"/>
        <pt x="948" y="1082" on="0"/>
        <pt x="1059" y="964" on="0"/>
        <pt x="1117" y="794" on="0"/>
        <pt x="1121" y="686" on="1"/>
        <pt x="1123" y="617" on="0"/>
        <pt x="1102" y="458" on="0"/>
        <pt x="1049" y="302" on="0"/>
        <pt x="962" y="158" on="0"/>
        <pt x="833" y="49" on="0"/>
        <pt x="658" y="-17" on="0"/>
        <pt x="544" y="-17" on="1"/>
        <pt x="438" y="-17" on="0"/>
        <pt x="274" y="43" on="0"/>
        <pt x="160" y="159" on="0"/>
        <pt x="98" y="325" on="0"/>
      </contour>
      <contour>
        <pt x="568" y="211" on="1"/>
        <pt x="635" y="211" on="0"/>
        <pt x="733" y="297" on="0"/>
        <pt x="795" y="435" on="0"/>
        <pt x="823" y="608" on="0"/>
        <pt x="820" y="696" on="1"/>
        <pt x="817" y="808" on="0"/>
        <pt x="736" y="916" on="0"/>
        <pt x="649" y="916" on="1"/>
        <pt x="594" y="916" on="0"/>
        <pt x="513" y="867" on="0"/>
        <pt x="456" y="786" on="0"/>
        <pt x="420" y="684" on="0"/>
        <pt x="401" y="577" on="0"/>
        <pt x="396" y="476" on="0"/>
        <pt x="398" y="437" on="1"/>
        <pt x="400" y="326" on="0"/>
        <pt x="483" y="211" on="0"/>
      </contour>
    </TTGlyph>
    <TTGlyph name="afii10081" xMin="64" yMin="0" xMax="1320" yMax="1128">
      <contour>
        <pt x="222" y="1128" on="1"/>
        <pt x="1320" y="1128" on="1"/>
        <pt x="1161" y="0" on="1"/>
        <pt x="839" y="0" on="1"/>
        <pt x="967" y="913" on="1"/>
        <pt x="515" y="913" on="1"/>
        <pt x="386" y="0" on="1"/>
        <pt x="64" y="0" on="1"/>
      </contour>
    </TTGlyph>
    <TTGlyph name="afii10082" xMin="10" yMin="-410" xMax="1151" yMax="1144">
      <contour>
        <pt x="1151" y="708" on="1"/>
        <pt x="1150" y="563" on="0"/>
        <pt x="1078" y="300" on="0"/>
        <pt x="941" y="101" on="0"/>
        <pt x="742" y="-17" on="0"/>
        <pt x="614" y="-17" on="1"/>
        <pt x="533" y="-17" on="0"/>
        <pt x="419" y="52" on="0"/>
        <pt x="387" y="117" on="1"/>
        <pt x="313" y="-407" on="1"/>
        <pt x="10" y="-410" on="1"/>
        <pt x="225" y="1127" on="1"/>
        <pt x="458" y="1127" on="1"/>
        <pt x="493" y="978" on="1"/>
        <pt x="520" y="1017" on="0"/>
        <pt x="590" y="1079" on="0"/>
        <pt x="668" y="1122" on="0"/>
        <pt x="752" y="1144" on="0"/>
        <pt x="793" y="1144" on="1"/>
        <pt x="882" y="1144" on="0"/>
        <pt x="1016" y="1085" on="0"/>
        <pt x="1105" y="973" on="0"/>
        <pt x="1150" y="811" on="0"/>
      </contour>
      <contour>
        <pt x="838" y="584" on="1"/>
        <pt x="843" y="620" on="0"/>
        <pt x="847" y="681" on="0"/>
        <pt x="846" y="708" on="1"/>
        <pt x="843" y="915" on="0"/>
        <pt x="701" y="915" on="1"/>
        <pt x="577" y="915" on="0"/>
        <pt x="489" y="833" on="1"/>
        <pt x="415" y="309" on="1"/>
        <pt x="451" y="261" on="0"/>
        <pt x="555" y="211" on="0"/>
        <pt x="617" y="211" on="1"/>
        <pt x="674" y="211" on="0"/>
        <pt x="753" y="283" on="0"/>
        <pt x="804" y="394" on="0"/>
        <pt x="832" y="525" on="0"/>
      </contour>
    </TTGlyph>
    <TTGlyph name="afii10083" xMin="96" yMin="-17" xMax="1039" yMax="1145">
      <component glyphName="c" x="0" y="0" flags="0x1200"/>
    </TTGlyph>
    <TTGlyph name="afii10084" xMin="66" yMin="0" xMax="1674" yMax="1145">
      <contour>
        <pt x="1400" y="1145" on="1"/>
        <pt x="1543" y="1145" on="0"/>
        <pt x="1676" y="987" on="0"/>
        <pt x="1674" y="830" on="1"/>
        <pt x="1674" y="822" on="0"/>
        <pt x="1673" y="799" on="0"/>
        <pt x="1667" y="742" on="0"/>
        <pt x="1653" y="636" on="0"/>
        <pt x="1629" y="457" on="0"/>
        <pt x="1592" y="190" on="0"/>
        <pt x="1566" y="0" on="1"/>
        <pt x="1262" y="0" on="1"/>
        <pt x="1289" y="190" on="0"/>
        <pt x="1327" y="455" on="0"/>
        <pt x="1351" y="630" on="0"/>
        <pt x="1365" y="728" on="0"/>
        <pt x="1372" y="778" on="0"/>
        <pt x="1372" y="791" on="0"/>
        <pt x="1372" y="794" on="1"/>
        <pt x="1372" y="916" on="0"/>
        <pt x="1279" y="916" on="1"/>
        <pt x="1233" y="916" on="0"/>
        <pt x="1146" y="896" on="0"/>
        <pt x="1095" y="861" on="1"/>
        <pt x="970" y="0" on="1"/>
        <pt x="666" y="0" on="1"/>
        <pt x="694" y="203" on="0"/>
        <pt x="748" y="570" on="0"/>
        <pt x="772" y="744" on="1"/>
        <pt x="774" y="763" on="0"/>
        <pt x="777" y="793" on="0"/>
        <pt x="777" y="809" on="1"/>
        <pt x="777" y="867" on="0"/>
        <pt x="732" y="916" on="0"/>
        <pt x="690" y="916" on="1"/>
        <pt x="667" y="916" on="0"/>
        <pt x="618" y="909" on="0"/>
        <pt x="566" y="889" on="0"/>
        <pt x="514" y="856" on="0"/>
        <pt x="490" y="829" on="1"/>
        <pt x="371" y="0" on="1"/>
        <pt x="66" y="0" on="1"/>
        <pt x="228" y="1127" on="1"/>
        <pt x="458" y="1127" on="1"/>
        <pt x="494" y="978" on="1"/>
        <pt x="515" y="1011" on="0"/>
        <pt x="580" y="1071" on="0"/>
        <pt x="658" y="1117" on="0"/>
        <pt x="745" y="1145" on="0"/>
        <pt x="789" y="1145" on="1"/>
        <pt x="845" y="1145" on="0"/>
        <pt x="932" y="1127" on="0"/>
        <pt x="997" y="1086" on="0"/>
        <pt x="1042" y="1019" on="0"/>
        <pt x="1056" y="970" on="1"/>
        <pt x="1120" y="1062" on="0"/>
        <pt x="1288" y="1145" on="0"/>
      </contour>
    </TTGlyph>
    <TTGlyph name="afii10085" xMin="24" yMin="-482" xMax="1097" yMax="1127">
      <contour>
        <pt x="24" y="-238" on="1"/>
        <pt x="56" y="-228" on="0"/>
        <pt x="116" y="-209" on="0"/>
        <pt x="145" y="-196" on="1"/>
        <pt x="189" y="-180" on="0"/>
        <pt x="269" y="-129" on="0"/>
        <pt x="329" y="-71" on="0"/>
        <pt x="366" y="-12" on="0"/>
        <pt x="367" y="12" on="1"/>
        <pt x="365" y="30" on="0"/>
        <pt x="363" y="36" on="1"/>
        <pt x="85" y="1127" on="1"/>
        <pt x="371" y="1127" on="1"/>
        <pt x="546" y="388" on="1"/>
        <pt x="809" y="1127" on="1"/>
        <pt x="1097" y="1127" on="1"/>
        <pt x="665" y="-21" on="1"/>
        <pt x="635" y="-104" on="0"/>
        <pt x="553" y="-237" on="0"/>
        <pt x="445" y="-341" on="0"/>
        <pt x="309" y="-417" on="0"/>
        <pt x="224" y="-444" on="1"/>
        <pt x="191" y="-454" on="0"/>
        <pt x="125" y="-474" on="0"/>
        <pt x="91" y="-482" on="1"/>
      </contour>
    </TTGlyph>
    <TTGlyph name="afii10086" xMin="94" yMin="-79" xMax="1464" yMax="1181">
      <contour>
        <pt x="879" y="254" on="1"/>
        <pt x="905" y="254" on="0"/>
        <pt x="955" y="262" on="0"/>
        <pt x="1001" y="280" on="0"/>
        <pt x="1042" y="311" on="0"/>
        <pt x="1060" y="336" on="1"/>
        <pt x="1074" y="356" on="0"/>
        <pt x="1100" y="416" on="0"/>
        <pt x="1122" y="488" on="0"/>
        <pt x="1138" y="567" on="0"/>
        <pt x="1143" y="607" on="1"/>
        <pt x="1145" y="634" on="0"/>
        <pt x="1147" y="684" on="0"/>
        <pt x="1145" y="707" on="1"/>
        <pt x="1142" y="757" on="0"/>
        <pt x="1112" y="818" on="0"/>
        <pt x="1065" y="851" on="0"/>
        <pt x="1005" y="863" on="0"/>
        <pt x="973" y="863" on="1"/>
      </contour>
      <contour>
        <pt x="681" y="863" on="1"/>
        <pt x="624" y="862" on="0"/>
        <pt x="532" y="826" on="0"/>
        <pt x="495" y="775" on="1"/>
        <pt x="482" y="756" on="0"/>
        <pt x="457" y="698" on="0"/>
        <pt x="436" y="627" on="0"/>
        <pt x="420" y="550" on="0"/>
        <pt x="416" y="511" on="1"/>
        <pt x="414" y="485" on="0"/>
        <pt x="412" y="436" on="0"/>
        <pt x="414" y="413" on="1"/>
        <pt x="417" y="362" on="0"/>
        <pt x="448" y="300" on="0"/>
        <pt x="495" y="265" on="0"/>
        <pt x="555" y="254" on="0"/>
        <pt x="587" y="254" on="1"/>
      </contour>
      <contour>
        <pt x="731" y="1181" on="1"/>
        <pt x="1022" y="1181" on="1"/>
        <pt x="1006" y="1075" on="1"/>
        <pt x="1017" y="1075" on="0"/>
        <pt x="1041" y="1077" on="0"/>
        <pt x="1052" y="1076" on="1"/>
        <pt x="1132" y="1074" on="0"/>
        <pt x="1277" y="1032" on="0"/>
        <pt x="1389" y="943" on="0"/>
        <pt x="1459" y="804" on="0"/>
        <pt x="1464" y="705" on="1"/>
        <pt x="1466" y="670" on="0"/>
        <pt x="1464" y="634" on="1"/>
        <pt x="1452" y="483" on="0"/>
        <pt x="1348" y="263" on="0"/>
        <pt x="1191" y="119" on="0"/>
        <pt x="993" y="48" on="0"/>
        <pt x="888" y="46" on="1"/>
        <pt x="843" y="43" on="1"/>
        <pt x="824" y="-79" on="1"/>
        <pt x="533" y="-79" on="1"/>
        <pt x="552" y="43" on="1"/>
        <pt x="541" y="43" on="0"/>
        <pt x="520" y="45" on="0"/>
        <pt x="509" y="46" on="1"/>
        <pt x="427" y="47" on="0"/>
        <pt x="280" y="91" on="0"/>
        <pt x="168" y="180" on="0"/>
        <pt x="100" y="319" on="0"/>
        <pt x="96" y="417" on="1"/>
        <pt x="94" y="434" on="0"/>
        <pt x="95" y="468" on="0"/>
        <pt x="95" y="486" on="1"/>
        <pt x="96" y="503" on="0"/>
        <pt x="99" y="541" on="0"/>
        <pt x="103" y="560" on="1"/>
        <pt x="125" y="698" on="0"/>
        <pt x="237" y="893" on="0"/>
        <pt x="392" y="1017" on="0"/>
        <pt x="577" y="1075" on="0"/>
        <pt x="672" y="1077" on="1"/>
        <pt x="683" y="1077" on="0"/>
        <pt x="706" y="1076" on="0"/>
        <pt x="717" y="1075" on="1"/>
      </contour>
    </TTGlyph>
    <TTGlyph name="afii10087" xMin="0" yMin="0" xMax="1093" yMax="1127">
      <contour>
        <pt x="520" y="341" on="1"/>
        <pt x="308" y="0" on="1"/>
        <pt x="0" y="0" on="1"/>
        <pt x="394" y="567" on="1"/>
        <pt x="119" y="1127" on="1"/>
        <pt x="432" y="1127" on="1"/>
        <pt x="573" y="804" on="1"/>
        <pt x="785" y="1127" on="1"/>
        <pt x="1093" y="1127" on="1"/>
        <pt x="699" y="567" on="1"/>
        <pt x="963" y="0" on="1"/>
        <pt x="660" y="0" on="1"/>
      </contour>
    </TTGlyph>
    <TTGlyph name="afii10088" xMin="64" yMin="-254" xMax="1320" yMax="1128">
      <contour>
        <pt x="921" y="-254" on="1"/>
        <pt x="960" y="0" on="1"/>
        <pt x="64" y="0" on="1"/>
        <pt x="223" y="1128" on="1"/>
        <pt x="545" y="1128" on="1"/>
        <pt x="417" y="215" on="1"/>
        <pt x="869" y="215" on="1"/>
        <pt x="998" y="1128" on="1"/>
        <pt x="1320" y="1128" on="1"/>
        <pt x="1168" y="45" on="1"/>
        <pt x="1289" y="45" on="1"/>
        <pt x="1243" y="-254" on="1"/>
      </contour>
    </TTGlyph>
    <TTGlyph name="afii10089" xMin="173" yMin="0" xMax="1171" yMax="1127">
      <contour>
        <pt x="528" y="1127" on="1"/>
        <pt x="486" y="846" on="1"/>
        <pt x="482" y="819" on="0"/>
        <pt x="480" y="800" on="1"/>
        <pt x="480" y="787" on="0"/>
        <pt x="479" y="764" on="0"/>
        <pt x="481" y="754" on="1"/>
        <pt x="483" y="694" on="0"/>
        <pt x="555" y="622" on="0"/>
        <pt x="612" y="619" on="1"/>
        <pt x="672" y="622" on="0"/>
        <pt x="764" y="663" on="0"/>
        <pt x="801" y="705" on="1"/>
        <pt x="867" y="1127" on="1"/>
        <pt x="1171" y="1127" on="1"/>
        <pt x="1008" y="0" on="1"/>
        <pt x="709" y="0" on="1"/>
        <pt x="781" y="504" on="1"/>
        <pt x="746" y="472" on="0"/>
        <pt x="705" y="447" on="1"/>
        <pt x="670" y="426" on="0"/>
        <pt x="577" y="391" on="0"/>
        <pt x="525" y="391" on="1"/>
        <pt x="435" y="391" on="0"/>
        <pt x="295" y="438" on="0"/>
        <pt x="204" y="530" on="0"/>
        <pt x="164" y="667" on="0"/>
        <pt x="173" y="758" on="1"/>
        <pt x="180" y="831" on="0"/>
        <pt x="201" y="961" on="0"/>
        <pt x="219" y="1061" on="0"/>
        <pt x="228" y="1122" on="0"/>
        <pt x="223" y="1127" on="1"/>
      </contour>
    </TTGlyph>
    <TTGlyph name="afii10090" xMin="64" yMin="0" xMax="1921" yMax="1128">
      <contour>
        <pt x="64" y="0" on="1"/>
        <pt x="223" y="1128" on="1"/>
        <pt x="545" y="1128" on="1"/>
        <pt x="417" y="215" on="1"/>
        <pt x="782" y="215" on="1"/>
        <pt x="911" y="1128" on="1"/>
        <pt x="1233" y="1128" on="1"/>
        <pt x="1105" y="215" on="1"/>
        <pt x="1470" y="215" on="1"/>
        <pt x="1599" y="1128" on="1"/>
        <pt x="1921" y="1128" on="1"/>
        <pt x="1758" y="0" on="1"/>
      </contour>
    </TTGlyph>
    <TTGlyph name="afii10091" xMin="64" yMin="-376" xMax="1983" yMax="1128">
      <contour>
        <pt x="64" y="0" on="1"/>
        <pt x="223" y="1128" on="1"/>
        <pt x="545" y="1128" on="1"/>
        <pt x="417" y="215" on="1"/>
        <pt x="782" y="215" on="1"/>
        <pt x="911" y="1128" on="1"/>
        <pt x="1233" y="1128" on="1"/>
        <pt x="1105" y="215" on="1"/>
        <pt x="1470" y="215" on="1"/>
        <pt x="1599" y="1128" on="1"/>
        <pt x="1921" y="1128" on="1"/>
        <pt x="1786" y="198" on="1"/>
        <pt x="1983" y="198" on="1"/>
        <pt x="1897" y="-376" on="1"/>
        <pt x="1593" y="-376" on="1"/>
        <pt x="1644" y="0" on="1"/>
      </contour>
    </TTGlyph>
    <TTGlyph name="afii10092" xMin="3" yMin="-1" xMax="1312" yMax="1126">
      <contour>
        <pt x="577" y="0" on="1"/>
        <pt x="480" y="0" on="0"/>
        <pt x="292" y="-1" on="0"/>
        <pt x="195" y="-1" on="1"/>
        <pt x="323" y="910" on="1"/>
        <pt x="3" y="910" on="1"/>
        <pt x="32" y="1126" on="1"/>
        <pt x="679" y="1126" on="1"/>
        <pt x="638" y="832" on="1"/>
        <pt x="663" y="832" on="0"/>
        <pt x="710" y="832" on="0"/>
        <pt x="734" y="831" on="1"/>
        <pt x="791" y="830" on="0"/>
        <pt x="919" y="827" on="0"/>
        <pt x="1046" y="810" on="0"/>
        <pt x="1162" y="774" on="0"/>
        <pt x="1252" y="707" on="0"/>
        <pt x="1308" y="604" on="0"/>
        <pt x="1312" y="528" on="1"/>
        <pt x="1317" y="411" on="0"/>
        <pt x="1268" y="240" on="0"/>
        <pt x="1174" y="120" on="0"/>
        <pt x="1038" y="45" on="0"/>
        <pt x="872" y="6" on="0"/>
        <pt x="680" y="-4" on="0"/>
      </contour>
      <contour>
        <pt x="718" y="205" on="1"/>
        <pt x="795" y="205" on="0"/>
        <pt x="899" y="241" on="0"/>
        <pt x="960" y="315" on="0"/>
        <pt x="985" y="426" on="0"/>
        <pt x="982" y="500" on="1"/>
        <pt x="981" y="536" on="0"/>
        <pt x="951" y="582" on="0"/>
        <pt x="901" y="610" on="0"/>
        <pt x="833" y="622" on="0"/>
        <pt x="794" y="623" on="1"/>
        <pt x="775" y="624" on="0"/>
        <pt x="691" y="624" on="0"/>
        <pt x="608" y="623" on="1"/>
        <pt x="551" y="205" on="1"/>
        <pt x="612" y="205" on="0"/>
        <pt x="692" y="205" on="0"/>
      </contour>
    </TTGlyph>
    <TTGlyph name="afii10093" xMin="64" yMin="-1" xMax="1833" yMax="1128">
      <contour>
        <pt x="1351" y="0" on="1"/>
        <pt x="1511" y="1128" on="1"/>
        <pt x="1833" y="1128" on="1"/>
        <pt x="1675" y="0" on="1"/>
      </contour>
      <contour>
        <pt x="445" y="0" on="1"/>
        <pt x="349" y="0" on="0"/>
        <pt x="160" y="-1" on="0"/>
        <pt x="64" y="-1" on="1"/>
        <pt x="223" y="1127" on="1"/>
        <pt x="548" y="1127" on="1"/>
        <pt x="506" y="832" on="1"/>
        <pt x="602" y="832" on="1"/>
        <pt x="659" y="831" on="0"/>
        <pt x="787" y="828" on="0"/>
        <pt x="914" y="811" on="0"/>
        <pt x="1030" y="775" on="0"/>
        <pt x="1120" y="708" on="0"/>
        <pt x="1176" y="604" on="0"/>
        <pt x="1180" y="528" on="1"/>
        <pt x="1185" y="411" on="0"/>
        <pt x="1137" y="240" on="0"/>
        <pt x="1042" y="120" on="0"/>
        <pt x="906" y="45" on="0"/>
        <pt x="740" y="6" on="0"/>
        <pt x="548" y="-4" on="0"/>
      </contour>
      <contour>
        <pt x="586" y="205" on="1"/>
        <pt x="662" y="205" on="0"/>
        <pt x="766" y="241" on="0"/>
        <pt x="829" y="315" on="0"/>
        <pt x="854" y="425" on="0"/>
        <pt x="851" y="500" on="1"/>
        <pt x="849" y="536" on="0"/>
        <pt x="820" y="582" on="0"/>
        <pt x="769" y="610" on="0"/>
        <pt x="702" y="622" on="0"/>
        <pt x="663" y="623" on="1"/>
        <pt x="644" y="624" on="0"/>
        <pt x="560" y="624" on="0"/>
        <pt x="476" y="623" on="1"/>
        <pt x="419" y="205" on="1"/>
        <pt x="481" y="205" on="0"/>
        <pt x="560" y="205" on="0"/>
      </contour>
    </TTGlyph>
    <TTGlyph name="afii10094" xMin="64" yMin="-1" xMax="1180" yMax="1127">
      <contour>
        <pt x="445" y="0" on="1"/>
        <pt x="349" y="0" on="0"/>
        <pt x="160" y="-1" on="0"/>
        <pt x="64" y="-1" on="1"/>
        <pt x="223" y="1127" on="1"/>
        <pt x="548" y="1127" on="1"/>
        <pt x="506" y="832" on="1"/>
        <pt x="531" y="832" on="0"/>
        <pt x="578" y="832" on="0"/>
        <pt x="601" y="831" on="1"/>
        <pt x="658" y="830" on="0"/>
        <pt x="787" y="827" on="0"/>
        <pt x="913" y="809" on="0"/>
        <pt x="1029" y="773" on="0"/>
        <pt x="1120" y="705" on="0"/>
        <pt x="1176" y="602" on="0"/>
        <pt x="1180" y="526" on="1"/>
        <pt x="1185" y="411" on="0"/>
        <pt x="1137" y="241" on="0"/>
        <pt x="1042" y="121" on="0"/>
        <pt x="907" y="47" on="0"/>
        <pt x="740" y="7" on="0"/>
        <pt x="548" y="-4" on="0"/>
      </contour>
      <contour>
        <pt x="586" y="205" on="1"/>
        <pt x="662" y="205" on="0"/>
        <pt x="766" y="242" on="0"/>
        <pt x="828" y="316" on="0"/>
        <pt x="853" y="425" on="0"/>
        <pt x="850" y="496" on="1"/>
        <pt x="849" y="532" on="0"/>
        <pt x="819" y="580" on="0"/>
        <pt x="769" y="608" on="0"/>
        <pt x="701" y="621" on="0"/>
        <pt x="662" y="623" on="1"/>
        <pt x="643" y="624" on="0"/>
        <pt x="559" y="624" on="0"/>
        <pt x="476" y="623" on="1"/>
        <pt x="419" y="205" on="1"/>
        <pt x="480" y="205" on="0"/>
        <pt x="560" y="205" on="0"/>
      </contour>
    </TTGlyph>
    <TTGlyph name="afii10095" xMin="43" yMin="-19" xMax="1036" yMax="1145">
      <contour>
        <pt x="384" y="-18" on="1"/>
        <pt x="382" y="-18" on="0"/>
        <pt x="376" y="-19" on="0"/>
        <pt x="374" y="-18" on="1"/>
        <pt x="324" y="-18" on="0"/>
        <pt x="240" y="-6" on="0"/>
        <pt x="162" y="18" on="0"/>
        <pt x="85" y="54" on="0"/>
        <pt x="43" y="79" on="1"/>
        <pt x="138" y="285" on="1"/>
        <pt x="140" y="282" on="0"/>
        <pt x="176" y="253" on="0"/>
        <pt x="237" y="221" on="0"/>
        <pt x="318" y="195" on="0"/>
        <pt x="366" y="195" on="1"/>
        <pt x="488" y="195" on="0"/>
        <pt x="650" y="333" on="0"/>
        <pt x="688" y="468" on="1"/>
        <pt x="382" y="468" on="1"/>
        <pt x="411" y="651" on="1"/>
        <pt x="719" y="651" on="1"/>
        <pt x="720" y="669" on="0"/>
        <pt x="721" y="703" on="0"/>
        <pt x="720" y="718" on="1"/>
        <pt x="718" y="779" on="0"/>
        <pt x="688" y="861" on="0"/>
        <pt x="632" y="911" on="0"/>
        <pt x="553" y="931" on="0"/>
        <pt x="504" y="931" on="1"/>
        <pt x="467" y="931" on="0"/>
        <pt x="382" y="913" on="0"/>
        <pt x="304" y="886" on="0"/>
        <pt x="241" y="854" on="0"/>
        <pt x="226" y="841" on="1"/>
        <pt x="199" y="1048" on="1"/>
        <pt x="261" y="1078" on="0"/>
        <pt x="361" y="1116" on="0"/>
        <pt x="453" y="1137" on="0"/>
        <pt x="542" y="1145" on="0"/>
        <pt x="593" y="1145" on="1"/>
        <pt x="694" y="1145" on="0"/>
        <pt x="857" y="1077" on="0"/>
        <pt x="971" y="960" on="0"/>
        <pt x="1034" y="801" on="0"/>
        <pt x="1036" y="711" on="1"/>
        <pt x="1038" y="637" on="0"/>
        <pt x="1013" y="471" on="0"/>
        <pt x="953" y="309" on="0"/>
        <pt x="853" y="162" on="0"/>
        <pt x="707" y="49" on="0"/>
        <pt x="511" y="-18" on="0"/>
      </contour>
    </TTGlyph>
    <TTGlyph name="afii10096" xMin="64" yMin="-26" xMax="1688" yMax="1146">
      <contour>
        <pt x="1219" y="1146" on="1"/>
        <pt x="1328" y="1146" on="0"/>
        <pt x="1498" y="1088" on="0"/>
        <pt x="1616" y="979" on="0"/>
        <pt x="1682" y="822" on="0"/>
        <pt x="1687" y="722" on="1"/>
        <pt x="1688" y="704" on="0"/>
        <pt x="1688" y="668" on="0"/>
        <pt x="1686" y="649" on="1"/>
        <pt x="1676" y="490" on="0"/>
        <pt x="1582" y="240" on="0"/>
        <pt x="1421" y="66" on="0"/>
        <pt x="1196" y="-26" on="0"/>
        <pt x="1056" y="-26" on="1"/>
        <pt x="842" y="-26" on="0"/>
        <pt x="599" y="188" on="0"/>
        <pt x="590" y="391" on="1"/>
        <pt x="588" y="410" on="0"/>
        <pt x="589" y="449" on="0"/>
        <pt x="591" y="470" on="1"/>
        <pt x="449" y="470" on="1"/>
        <pt x="383" y="-2" on="1"/>
        <pt x="64" y="-2" on="1"/>
        <pt x="221" y="1114" on="1"/>
        <pt x="537" y="1114" on="1"/>
        <pt x="476" y="681" on="1"/>
        <pt x="625" y="681" on="1"/>
        <pt x="654" y="792" on="0"/>
        <pt x="763" y="965" on="0"/>
        <pt x="914" y="1084" on="0"/>
        <pt x="1106" y="1146" on="0"/>
      </contour>
      <contour>
        <pt x="1088" y="189" on="1"/>
        <pt x="1146" y="189" on="0"/>
        <pt x="1236" y="237" on="0"/>
        <pt x="1270" y="283" on="1"/>
        <pt x="1289" y="308" on="0"/>
        <pt x="1322" y="388" on="0"/>
        <pt x="1349" y="484" on="0"/>
        <pt x="1367" y="592" on="0"/>
        <pt x="1370" y="645" on="1"/>
        <pt x="1372" y="667" on="0"/>
        <pt x="1371" y="710" on="0"/>
        <pt x="1370" y="731" on="1"/>
        <pt x="1356" y="930" on="0"/>
        <pt x="1191" y="930" on="1"/>
        <pt x="1078" y="930" on="0"/>
        <pt x="1011" y="837" on="1"/>
        <pt x="990" y="807" on="0"/>
        <pt x="950" y="707" on="0"/>
        <pt x="922" y="587" on="0"/>
        <pt x="906" y="457" on="0"/>
        <pt x="909" y="397" on="1"/>
        <pt x="914" y="293" on="0"/>
        <pt x="1000" y="189" on="0"/>
      </contour>
    </TTGlyph>
    <TTGlyph name="afii10097" xMin="36" yMin="1" xMax="1251" yMax="1143">
      <contour>
        <pt x="489" y="750" on="1"/>
        <pt x="486" y="749" on="0"/>
        <pt x="483" y="734" on="0"/>
        <pt x="483" y="716" on="0"/>
        <pt x="484" y="700" on="0"/>
        <pt x="484" y="698" on="1"/>
        <pt x="486" y="654" on="0"/>
        <pt x="526" y="603" on="0"/>
        <pt x="597" y="577" on="0"/>
        <pt x="693" y="570" on="0"/>
        <pt x="750" y="570" on="1"/>
        <pt x="842" y="570" on="1"/>
        <pt x="893" y="928" on="1"/>
        <pt x="807" y="928" on="0"/>
        <pt x="665" y="924" on="0"/>
        <pt x="560" y="892" on="0"/>
        <pt x="496" y="819" on="0"/>
      </contour>
      <contour>
        <pt x="1251" y="1129" on="1"/>
        <pt x="1088" y="1" on="1"/>
        <pt x="759" y="1" on="1"/>
        <pt x="811" y="363" on="1"/>
        <pt x="653" y="363" on="1"/>
        <pt x="418" y="1" on="1"/>
        <pt x="36" y="1" on="1"/>
        <pt x="353" y="405" on="1"/>
        <pt x="262" y="434" on="0"/>
        <pt x="156" y="559" on="0"/>
        <pt x="151" y="656" on="1"/>
        <pt x="147" y="736" on="0"/>
        <pt x="179" y="872" on="0"/>
        <pt x="246" y="981" on="0"/>
        <pt x="343" y="1061" on="0"/>
        <pt x="403" y="1085" on="1"/>
        <pt x="445" y="1102" on="0"/>
        <pt x="547" y="1124" on="0"/>
        <pt x="673" y="1137" on="0"/>
        <pt x="822" y="1142" on="0"/>
        <pt x="911" y="1143" on="1"/>
      </contour>
    </TTGlyph>
    <TTGlyph name="afii10099" xMin="95" yMin="-362" xMax="1165" yMax="1675">
      <contour>
        <pt x="1155" y="701" on="1"/>
        <pt x="1148" y="650" on="0"/>
        <pt x="1133" y="547" on="0"/>
        <pt x="1118" y="437" on="0"/>
        <pt x="1101" y="319" on="0"/>
        <pt x="1092" y="252" on="1"/>
        <pt x="1080" y="176" on="0"/>
        <pt x="1043" y="32" on="0"/>
        <pt x="982" y="-96" on="0"/>
        <pt x="892" y="-206" on="0"/>
        <pt x="764" y="-292" on="0"/>
        <pt x="592" y="-350" on="0"/>
        <pt x="479" y="-362" on="1"/>
        <pt x="479" y="-110" on="1"/>
        <pt x="534" y="-102" on="0"/>
        <pt x="630" y="-66" on="0"/>
        <pt x="706" y="2" on="0"/>
        <pt x="759" y="106" on="0"/>
        <pt x="773" y="183" on="1"/>
        <pt x="792" y="281" on="0"/>
        <pt x="807" y="392" on="1"/>
        <pt x="821" y="494" on="0"/>
        <pt x="847" y="657" on="0"/>
        <pt x="855" y="733" on="1"/>
        <pt x="856" y="744" on="0"/>
        <pt x="855" y="762" on="0"/>
        <pt x="854" y="770" on="1"/>
        <pt x="854" y="844" on="0"/>
        <pt x="780" y="916" on="0"/>
        <pt x="719" y="916" on="1"/>
        <pt x="682" y="916" on="0"/>
        <pt x="623" y="902" on="0"/>
        <pt x="575" y="879" on="0"/>
        <pt x="536" y="849" on="0"/>
        <pt x="520" y="833" on="1"/>
        <pt x="398" y="0" on="1"/>
        <pt x="95" y="0" on="1"/>
        <pt x="282" y="1295" on="1"/>
        <pt x="153" y="1295" on="1"/>
        <pt x="175" y="1448" on="1"/>
        <pt x="305" y="1448" on="1"/>
        <pt x="329" y="1617" on="1"/>
        <pt x="638" y="1675" on="1"/>
        <pt x="605" y="1448" on="1"/>
        <pt x="885" y="1448" on="1"/>
        <pt x="863" y="1295" on="1"/>
        <pt x="583" y="1295" on="1"/>
        <pt x="539" y="997" on="1"/>
        <pt x="545" y="1003" on="0"/>
        <pt x="591" y="1051" on="0"/>
        <pt x="669" y="1104" on="0"/>
        <pt x="779" y="1145" on="0"/>
        <pt x="850" y="1145" on="1"/>
        <pt x="1009" y="1145" on="0"/>
        <pt x="1165" y="980" on="0"/>
        <pt x="1165" y="806" on="1"/>
        <pt x="1165" y="783" on="0"/>
        <pt x="1160" y="730" on="0"/>
      </contour>
    </TTGlyph>
    <TTGlyph name="afii10100" xMin="76" yMin="-17" xMax="971" yMax="1951">
      <component glyphName="acute" x="85" y="1114" flags="0x1004"/>
      <component glyphName="afii10068" x="-1" y="0" flags="0x1004"/>
    </TTGlyph>
    <TTGlyph name="afii10101" xMin="95" yMin="-19" xMax="1090" yMax="1145">
      <contour>
        <pt x="748" y="1144" on="1"/>
        <pt x="750" y="1144" on="0"/>
        <pt x="756" y="1145" on="0"/>
        <pt x="758" y="1145" on="1"/>
        <pt x="807" y="1144" on="0"/>
        <pt x="892" y="1133" on="0"/>
        <pt x="971" y="1109" on="0"/>
        <pt x="1048" y="1072" on="0"/>
        <pt x="1090" y="1047" on="1"/>
        <pt x="995" y="841" on="1"/>
        <pt x="993" y="844" on="0"/>
        <pt x="956" y="873" on="0"/>
        <pt x="896" y="905" on="0"/>
        <pt x="816" y="931" on="0"/>
        <pt x="770" y="931" on="1"/>
        <pt x="523" y="931" on="0"/>
        <pt x="446" y="660" on="1"/>
        <pt x="752" y="660" on="1"/>
        <pt x="722" y="477" on="1"/>
        <pt x="413" y="477" on="1"/>
        <pt x="411" y="440" on="0"/>
        <pt x="413" y="407" on="1"/>
        <pt x="415" y="312" on="0"/>
        <pt x="487" y="217" on="0"/>
        <pt x="550" y="203" on="1"/>
        <pt x="569" y="198" on="0"/>
        <pt x="612" y="195" on="0"/>
        <pt x="635" y="196" on="1"/>
        <pt x="672" y="196" on="0"/>
        <pt x="756" y="215" on="0"/>
        <pt x="832" y="242" on="0"/>
        <pt x="893" y="272" on="0"/>
        <pt x="907" y="285" on="1"/>
        <pt x="934" y="78" on="1"/>
        <pt x="872" y="47" on="0"/>
        <pt x="771" y="9" on="0"/>
        <pt x="679" y="-12" on="0"/>
        <pt x="590" y="-19" on="0"/>
        <pt x="539" y="-19" on="1"/>
        <pt x="440" y="-19" on="0"/>
        <pt x="279" y="47" on="0"/>
        <pt x="163" y="163" on="0"/>
        <pt x="98" y="322" on="0"/>
        <pt x="95" y="414" on="1"/>
        <pt x="93" y="488" on="0"/>
        <pt x="118" y="654" on="0"/>
        <pt x="179" y="816" on="0"/>
        <pt x="279" y="964" on="0"/>
        <pt x="426" y="1077" on="0"/>
        <pt x="622" y="1144" on="0"/>
      </contour>
    </TTGlyph>
    <TTGlyph name="afii10102" xMin="73" yMin="-17" xMax="965" yMax="1145">
      <contour>
        <pt x="150" y="778" on="1"/>
        <pt x="147" y="862" on="0"/>
        <pt x="208" y="997" on="0"/>
        <pt x="324" y="1093" on="0"/>
        <pt x="491" y="1145" on="0"/>
        <pt x="595" y="1145" on="1"/>
        <pt x="639" y="1145" on="0"/>
        <pt x="735" y="1132" on="0"/>
        <pt x="831" y="1107" on="0"/>
        <pt x="924" y="1071" on="0"/>
        <pt x="965" y="1048" on="1"/>
        <pt x="883" y="840" on="1"/>
        <pt x="878" y="843" on="0"/>
        <pt x="825" y="866" on="0"/>
        <pt x="746" y="891" on="0"/>
        <pt x="648" y="912" on="0"/>
        <pt x="599" y="912" on="1"/>
        <pt x="548" y="912" on="0"/>
        <pt x="480" y="900" on="0"/>
        <pt x="438" y="876" on="0"/>
        <pt x="421" y="842" on="0"/>
        <pt x="422" y="820" on="1"/>
        <pt x="422" y="804" on="0"/>
        <pt x="431" y="782" on="0"/>
        <pt x="449" y="764" on="0"/>
        <pt x="479" y="748" on="0"/>
        <pt x="500" y="739" on="1"/>
        <pt x="626" y="689" on="1"/>
        <pt x="683" y="665" on="0"/>
        <pt x="786" y="615" on="0"/>
        <pt x="863" y="548" on="0"/>
        <pt x="909" y="458" on="0"/>
        <pt x="911" y="395" on="1"/>
        <pt x="914" y="302" on="0"/>
        <pt x="851" y="151" on="0"/>
        <pt x="732" y="44" on="0"/>
        <pt x="561" y="-16" on="0"/>
        <pt x="456" y="-17" on="1"/>
        <pt x="331" y="-16" on="0"/>
        <pt x="142" y="40" on="0"/>
        <pt x="73" y="91" on="1"/>
        <pt x="156" y="303" on="1"/>
        <pt x="160" y="300" on="0"/>
        <pt x="218" y="272" on="0"/>
        <pt x="304" y="240" on="0"/>
        <pt x="408" y="215" on="0"/>
        <pt x="460" y="215" on="1"/>
        <pt x="545" y="215" on="0"/>
        <pt x="631" y="273" on="0"/>
        <pt x="629" y="351" on="1"/>
        <pt x="629" y="368" on="0"/>
        <pt x="620" y="391" on="0"/>
        <pt x="599" y="410" on="0"/>
        <pt x="564" y="426" on="0"/>
        <pt x="537" y="436" on="1"/>
        <pt x="403" y="495" on="1"/>
        <pt x="338" y="522" on="0"/>
        <pt x="243" y="581" on="0"/>
        <pt x="182" y="649" on="0"/>
        <pt x="151" y="729" on="0"/>
      </contour>
    </TTGlyph>
    <TTGlyph name="afii10103" xMin="121" yMin="0" xMax="659" yMax="1670">
      <contour>
        <pt x="659" y="1520" on="1"/>
        <pt x="658" y="1513" on="0"/>
        <pt x="658" y="1499" on="0"/>
        <pt x="657" y="1492" on="1"/>
        <pt x="652" y="1454" on="0"/>
        <pt x="617" y="1389" on="0"/>
        <pt x="565" y="1340" on="0"/>
        <pt x="501" y="1312" on="0"/>
        <pt x="467" y="1312" on="1"/>
        <pt x="436" y="1312" on="0"/>
        <pt x="384" y="1334" on="0"/>
        <pt x="346" y="1374" on="0"/>
        <pt x="324" y="1428" on="0"/>
        <pt x="324" y="1461" on="1"/>
        <pt x="323" y="1502" on="0"/>
        <pt x="355" y="1578" on="0"/>
        <pt x="410" y="1636" on="0"/>
        <pt x="480" y="1670" on="0"/>
        <pt x="516" y="1670" on="1"/>
        <pt x="547" y="1670" on="0"/>
        <pt x="599" y="1647" on="0"/>
        <pt x="636" y="1606" on="0"/>
        <pt x="658" y="1551" on="0"/>
      </contour>
      <contour>
        <pt x="423" y="0" on="1"/>
        <pt x="121" y="0" on="1"/>
        <pt x="276" y="1127" on="1"/>
        <pt x="578" y="1127" on="1"/>
      </contour>
    </TTGlyph>
    <TTGlyph name="afii10104" xMin="-23" yMin="0" xMax="916" yMax="1610">
      <contour>
        <pt x="423" y="0" on="1"/>
        <pt x="121" y="0" on="1"/>
        <pt x="276" y="1127" on="1"/>
        <pt x="578" y="1127" on="1"/>
      </contour>
      <contour>
        <pt x="310" y="1433" on="1"/>
        <pt x="306" y="1395" on="0"/>
        <pt x="273" y="1330" on="0"/>
        <pt x="223" y="1280" on="0"/>
        <pt x="159" y="1252" on="0"/>
        <pt x="124" y="1252" on="1"/>
        <pt x="94" y="1252" on="0"/>
        <pt x="41" y="1275" on="0"/>
        <pt x="2" y="1315" on="0"/>
        <pt x="-22" y="1369" on="0"/>
        <pt x="-23" y="1401" on="1"/>
        <pt x="-25" y="1443" on="0"/>
        <pt x="5" y="1518" on="0"/>
        <pt x="57" y="1576" on="0"/>
        <pt x="126" y="1610" on="0"/>
        <pt x="163" y="1610" on="1"/>
        <pt x="193" y="1610" on="0"/>
        <pt x="245" y="1586" on="0"/>
        <pt x="285" y="1546" on="0"/>
        <pt x="309" y="1492" on="0"/>
        <pt x="311" y="1461" on="1"/>
        <pt x="311" y="1453" on="0"/>
        <pt x="310" y="1441" on="0"/>
      </contour>
      <contour>
        <pt x="915" y="1433" on="1"/>
        <pt x="911" y="1395" on="0"/>
        <pt x="878" y="1330" on="0"/>
        <pt x="828" y="1280" on="0"/>
        <pt x="764" y="1252" on="0"/>
        <pt x="730" y="1252" on="1"/>
        <pt x="700" y="1252" on="0"/>
        <pt x="647" y="1275" on="0"/>
        <pt x="607" y="1315" on="0"/>
        <pt x="583" y="1369" on="0"/>
        <pt x="582" y="1401" on="1"/>
        <pt x="580" y="1443" on="0"/>
        <pt x="610" y="1518" on="0"/>
        <pt x="662" y="1576" on="0"/>
        <pt x="731" y="1610" on="0"/>
        <pt x="768" y="1610" on="1"/>
        <pt x="799" y="1610" on="0"/>
        <pt x="852" y="1586" on="0"/>
        <pt x="891" y="1546" on="0"/>
        <pt x="914" y="1492" on="0"/>
        <pt x="916" y="1461" on="1"/>
        <pt x="916" y="1453" on="0"/>
        <pt x="915" y="1441" on="0"/>
      </contour>
    </TTGlyph>
    <TTGlyph name="afii10105" xMin="-1" yMin="-357" xMax="695" yMax="1670">
      <contour>
        <pt x="693" y="1492" on="1"/>
        <pt x="689" y="1454" on="0"/>
        <pt x="655" y="1389" on="0"/>
        <pt x="604" y="1340" on="0"/>
        <pt x="540" y="1312" on="0"/>
        <pt x="506" y="1312" on="1"/>
        <pt x="475" y="1312" on="0"/>
        <pt x="423" y="1334" on="0"/>
        <pt x="384" y="1374" on="0"/>
        <pt x="361" y="1428" on="0"/>
        <pt x="360" y="1461" on="1"/>
        <pt x="359" y="1502" on="0"/>
        <pt x="390" y="1578" on="0"/>
        <pt x="443" y="1636" on="0"/>
        <pt x="512" y="1670" on="0"/>
        <pt x="549" y="1670" on="1"/>
        <pt x="579" y="1670" on="0"/>
        <pt x="632" y="1647" on="0"/>
        <pt x="671" y="1606" on="0"/>
        <pt x="694" y="1551" on="0"/>
        <pt x="695" y="1520" on="1"/>
        <pt x="695" y="1512" on="0"/>
        <pt x="694" y="1500" on="0"/>
      </contour>
      <contour>
        <pt x="-1" y="-129" on="1"/>
        <pt x="51" y="-97" on="0"/>
        <pt x="129" y="-31" on="0"/>
        <pt x="183" y="49" on="0"/>
        <pt x="217" y="152" on="0"/>
        <pt x="226" y="222" on="1"/>
        <pt x="342" y="1127" on="1"/>
        <pt x="644" y="1127" on="1"/>
        <pt x="527" y="202" on="1"/>
        <pt x="513" y="93" on="0"/>
        <pt x="427" y="-93" on="0"/>
        <pt x="303" y="-238" on="0"/>
        <pt x="147" y="-336" on="0"/>
        <pt x="62" y="-357" on="1"/>
      </contour>
    </TTGlyph>
    <TTGlyph name="afii10106" xMin="-39" yMin="-6" xMax="2020" yMax="1126">
      <contour>
        <pt x="1287" y="0" on="1"/>
        <pt x="1191" y="0" on="0"/>
        <pt x="1002" y="-1" on="0"/>
        <pt x="905" y="-1" on="1"/>
        <pt x="966" y="429" on="0"/>
        <pt x="1030" y="885" on="0"/>
        <pt x="1033" y="912" on="1"/>
        <pt x="731" y="912" on="1"/>
        <pt x="707" y="818" on="0"/>
        <pt x="658" y="633" on="0"/>
        <pt x="634" y="539" on="1"/>
        <pt x="614" y="465" on="0"/>
        <pt x="565" y="326" on="0"/>
        <pt x="494" y="205" on="0"/>
        <pt x="398" y="105" on="0"/>
        <pt x="261" y="33" on="0"/>
        <pt x="80" y="-6" on="0"/>
        <pt x="-39" y="-6" on="1"/>
        <pt x="-1" y="272" on="1"/>
        <pt x="57" y="272" on="0"/>
        <pt x="158" y="293" on="0"/>
        <pt x="240" y="347" on="0"/>
        <pt x="300" y="444" on="0"/>
        <pt x="318" y="521" on="1"/>
        <pt x="355" y="673" on="0"/>
        <pt x="427" y="974" on="0"/>
        <pt x="464" y="1126" on="1"/>
        <pt x="1386" y="1126" on="1"/>
        <pt x="1348" y="832" on="1"/>
        <pt x="1374" y="832" on="0"/>
        <pt x="1423" y="832" on="0"/>
        <pt x="1447" y="831" on="1"/>
        <pt x="1502" y="830" on="0"/>
        <pt x="1627" y="827" on="0"/>
        <pt x="1751" y="811" on="0"/>
        <pt x="1867" y="777" on="0"/>
        <pt x="1958" y="712" on="0"/>
        <pt x="2016" y="612" on="0"/>
        <pt x="2020" y="538" on="1"/>
        <pt x="2026" y="441" on="0"/>
        <pt x="2011" y="363" on="1"/>
        <pt x="1988" y="244" on="0"/>
        <pt x="1858" y="97" on="0"/>
        <pt x="1665" y="17" on="0"/>
        <pt x="1422" y="-5" on="0"/>
      </contour>
      <contour>
        <pt x="1428" y="205" on="1"/>
        <pt x="1504" y="205" on="0"/>
        <pt x="1608" y="243" on="0"/>
        <pt x="1670" y="316" on="0"/>
        <pt x="1695" y="425" on="0"/>
        <pt x="1692" y="497" on="1"/>
        <pt x="1691" y="533" on="0"/>
        <pt x="1660" y="581" on="0"/>
        <pt x="1609" y="609" on="0"/>
        <pt x="1540" y="622" on="0"/>
        <pt x="1501" y="623" on="1"/>
        <pt x="1482" y="624" on="0"/>
        <pt x="1400" y="624" on="0"/>
        <pt x="1318" y="623" on="1"/>
        <pt x="1261" y="215" on="1"/>
        <pt x="1322" y="213" on="0"/>
        <pt x="1402" y="207" on="0"/>
      </contour>
    </TTGlyph>
    <TTGlyph name="afii10107" xMin="64" yMin="-1" xMax="1920" yMax="1128">
      <contour>
        <pt x="224" y="1128" on="1"/>
        <pt x="544" y="1128" on="1"/>
        <pt x="483" y="694" on="1"/>
        <pt x="932" y="694" on="1"/>
        <pt x="993" y="1128" on="1"/>
        <pt x="1319" y="1128" on="1"/>
        <pt x="1278" y="832" on="1"/>
        <pt x="1370" y="832" on="0"/>
        <pt x="1518" y="828" on="0"/>
        <pt x="1638" y="815" on="0"/>
        <pt x="1731" y="792" on="0"/>
        <pt x="1769" y="773" on="1"/>
        <pt x="1839" y="738" on="0"/>
        <pt x="1912" y="617" on="0"/>
        <pt x="1919" y="529" on="1"/>
        <pt x="1921" y="501" on="0"/>
        <pt x="1919" y="443" on="0"/>
        <pt x="1914" y="414" on="1"/>
        <pt x="1891" y="244" on="0"/>
        <pt x="1708" y="52" on="0"/>
        <pt x="1533" y="20" on="1"/>
        <pt x="1464" y="7" on="0"/>
        <pt x="1234" y="-1" on="0"/>
        <pt x="1074" y="-1" on="1"/>
        <pt x="832" y="-1" on="1"/>
        <pt x="899" y="479" on="1"/>
        <pt x="455" y="479" on="1"/>
        <pt x="386" y="-1" on="1"/>
        <pt x="64" y="-1" on="1"/>
      </contour>
      <contour>
        <pt x="1587" y="414" on="1"/>
        <pt x="1591" y="414" on="0"/>
        <pt x="1595" y="432" on="0"/>
        <pt x="1595" y="453" on="0"/>
        <pt x="1594" y="473" on="0"/>
        <pt x="1594" y="476" on="1"/>
        <pt x="1592" y="513" on="0"/>
        <pt x="1571" y="568" on="0"/>
        <pt x="1525" y="605" on="0"/>
        <pt x="1448" y="624" on="0"/>
        <pt x="1390" y="625" on="1"/>
        <pt x="1348" y="626" on="0"/>
        <pt x="1276" y="623" on="0"/>
        <pt x="1243" y="623" on="1"/>
        <pt x="1185" y="208" on="1"/>
        <pt x="1193" y="208" on="0"/>
        <pt x="1210" y="209" on="0"/>
        <pt x="1218" y="209" on="1"/>
        <pt x="1232" y="209" on="0"/>
        <pt x="1272" y="207" on="0"/>
        <pt x="1312" y="206" on="0"/>
        <pt x="1345" y="205" on="0"/>
        <pt x="1353" y="205" on="1"/>
        <pt x="1394" y="206" on="0"/>
        <pt x="1471" y="221" on="0"/>
        <pt x="1534" y="264" on="0"/>
        <pt x="1578" y="346" on="0"/>
      </contour>
    </TTGlyph>
    <TTGlyph name="afii10108" xMin="99" yMin="0" xMax="1295" yMax="1748">
      <contour>
        <pt x="656" y="1519" on="1"/>
        <pt x="1176" y="1519" on="1"/>
        <pt x="1143" y="1294" on="1"/>
        <pt x="623" y="1294" on="1"/>
        <pt x="592" y="1066" on="1"/>
        <pt x="606" y="1088" on="0"/>
        <pt x="643" y="1116" on="1"/>
        <pt x="705" y="1166" on="0"/>
        <pt x="845" y="1215" on="0"/>
        <pt x="937" y="1215" on="1"/>
        <pt x="1100" y="1215" on="0"/>
        <pt x="1286" y="1051" on="0"/>
        <pt x="1295" y="885" on="1"/>
        <pt x="1296" y="853" on="0"/>
        <pt x="1291" y="775" on="0"/>
        <pt x="1284" y="730" on="1"/>
        <pt x="1271" y="637" on="0"/>
        <pt x="1245" y="448" on="0"/>
        <pt x="1219" y="262" on="0"/>
        <pt x="1194" y="83" on="0"/>
        <pt x="1183" y="0" on="1"/>
        <pt x="844" y="0" on="1"/>
        <pt x="856" y="86" on="0"/>
        <pt x="882" y="275" on="0"/>
        <pt x="909" y="470" on="0"/>
        <pt x="937" y="666" on="0"/>
        <pt x="950" y="759" on="1"/>
        <pt x="954" y="781" on="0"/>
        <pt x="956" y="799" on="1"/>
        <pt x="959" y="845" on="0"/>
        <pt x="938" y="916" on="0"/>
        <pt x="898" y="962" on="0"/>
        <pt x="844" y="986" on="0"/>
        <pt x="814" y="986" on="1"/>
        <pt x="763" y="986" on="0"/>
        <pt x="693" y="973" on="0"/>
        <pt x="639" y="949" on="0"/>
        <pt x="594" y="917" on="0"/>
        <pt x="569" y="899" on="1"/>
        <pt x="444" y="0" on="1"/>
        <pt x="105" y="0" on="1"/>
        <pt x="287" y="1294" on="1"/>
        <pt x="99" y="1294" on="1"/>
        <pt x="130" y="1519" on="1"/>
        <pt x="319" y="1519" on="1"/>
        <pt x="343" y="1689" on="1"/>
        <pt x="690" y="1748" on="1"/>
      </contour>
    </TTGlyph>
    <TTGlyph name="afii10109" xMin="64" yMin="-1" xMax="1307" yMax="1873">
      <component glyphName="acute" x="220" y="1036" flags="0x1004"/>
      <component glyphName="afii10076" x="0" y="0" flags="0x1004"/>
    </TTGlyph>
    <TTGlyph name="afii10110" xMin="24" yMin="-482" xMax="1097" yMax="1525">
      <component glyphName="uni0306" x="-87" y="1096" flags="0x1004"/>
      <component glyphName="afii10085" x="0" y="0" flags="0x1004"/>
    </TTGlyph>
    <TTGlyph name="afii10145" xMin="83" yMin="-372" xMax="1648" yMax="1607">
      <contour>
        <pt x="1423" y="0" on="1"/>
        <pt x="933" y="0" on="1"/>
        <pt x="880" y="-372" on="1"/>
        <pt x="526" y="-372" on="1"/>
        <pt x="580" y="0" on="1"/>
        <pt x="83" y="0" on="1"/>
        <pt x="309" y="1607" on="1"/>
        <pt x="666" y="1607" on="1"/>
        <pt x="470" y="222" on="1"/>
        <pt x="1096" y="222" on="1"/>
        <pt x="1292" y="1607" on="1"/>
        <pt x="1648" y="1607" on="1"/>
      </contour>
    </TTGlyph>
    <TTGlyph name="afii10193" xMin="122" yMin="-367" xMax="1381" yMax="1128">
      <contour>
        <pt x="122" y="30" on="1"/>
        <pt x="140" y="158" on="0"/>
        <pt x="176" y="417" on="0"/>
        <pt x="214" y="687" on="0"/>
        <pt x="254" y="973" on="0"/>
        <pt x="276" y="1128" on="1"/>
        <pt x="604" y="1128" on="1"/>
        <pt x="589" y="1018" on="0"/>
        <pt x="561" y="822" on="0"/>
        <pt x="535" y="641" on="0"/>
        <pt x="512" y="472" on="0"/>
        <pt x="500" y="389" on="1"/>
        <pt x="494" y="336" on="0"/>
        <pt x="492" y="245" on="0"/>
        <pt x="494" y="204" on="1"/>
        <pt x="603" y="204" on="0"/>
        <pt x="818" y="212" on="0"/>
        <pt x="927" y="220" on="1"/>
        <pt x="1055" y="1128" on="1"/>
        <pt x="1381" y="1128" on="1"/>
        <pt x="1223" y="0" on="1"/>
        <pt x="979" y="0" on="1"/>
        <pt x="864" y="17" on="1"/>
        <pt x="852" y="-18" on="0"/>
        <pt x="830" y="-82" on="0"/>
        <pt x="818" y="-111" on="1"/>
        <pt x="809" y="-176" on="0"/>
        <pt x="790" y="-303" on="0"/>
        <pt x="782" y="-367" on="1"/>
        <pt x="440" y="-367" on="1"/>
        <pt x="493" y="-1" on="1"/>
        <pt x="394" y="1" on="0"/>
        <pt x="210" y="16" on="0"/>
      </contour>
    </TTGlyph>
    <TTGlyph name="afii61352" xMin="113" yMin="-27" xMax="2948" yMax="1606">
      <contour>
        <pt x="2310" y="202" on="1"/>
        <pt x="2434" y="202" on="0"/>
        <pt x="2503" y="301" on="1"/>
        <pt x="2526" y="333" on="0"/>
        <pt x="2567" y="438" on="0"/>
        <pt x="2597" y="564" on="0"/>
        <pt x="2613" y="700" on="0"/>
        <pt x="2610" y="764" on="1"/>
        <pt x="2605" y="872" on="0"/>
        <pt x="2515" y="984" on="0"/>
        <pt x="2424" y="984" on="1"/>
        <pt x="2305" y="984" on="0"/>
        <pt x="2237" y="893" on="1"/>
        <pt x="2213" y="861" on="0"/>
        <pt x="2168" y="755" on="0"/>
        <pt x="2136" y="626" on="0"/>
        <pt x="2119" y="486" on="0"/>
        <pt x="2122" y="422" on="1"/>
        <pt x="2127" y="313" on="0"/>
        <pt x="2218" y="202" on="0"/>
      </contour>
      <contour>
        <pt x="2455" y="1215" on="1"/>
        <pt x="2571" y="1214" on="0"/>
        <pt x="2750" y="1153" on="0"/>
        <pt x="2874" y="1038" on="0"/>
        <pt x="2942" y="872" on="0"/>
        <pt x="2947" y="767" on="1"/>
        <pt x="2948" y="747" on="0"/>
        <pt x="2948" y="709" on="0"/>
        <pt x="2946" y="689" on="1"/>
        <pt x="2936" y="521" on="0"/>
        <pt x="2836" y="256" on="0"/>
        <pt x="2664" y="71" on="0"/>
        <pt x="2426" y="-27" on="0"/>
        <pt x="2278" y="-27" on="1"/>
        <pt x="2164" y="-27" on="0"/>
        <pt x="1985" y="32" on="0"/>
        <pt x="1860" y="145" on="0"/>
        <pt x="1790" y="310" on="0"/>
        <pt x="1784" y="416" on="1"/>
        <pt x="1780" y="504" on="0"/>
        <pt x="1796" y="603" on="1"/>
        <pt x="1818" y="746" on="0"/>
        <pt x="1927" y="973" on="0"/>
        <pt x="2095" y="1131" on="0"/>
        <pt x="2319" y="1215" on="0"/>
      </contour>
      <contour>
        <pt x="1082" y="-1" on="1"/>
        <pt x="593" y="1128" on="1"/>
        <pt x="434" y="-1" on="1"/>
        <pt x="113" y="-1" on="1"/>
        <pt x="341" y="1606" on="1"/>
        <pt x="730" y="1606" on="1"/>
        <pt x="1209" y="490" on="1"/>
        <pt x="1368" y="1606" on="1"/>
        <pt x="1685" y="1606" on="1"/>
        <pt x="1459" y="-1" on="1"/>
      </contour>
    </TTGlyph>
    <TTGlyph name="agrave" xMin="95" yMin="-17" xMax="1153" yMax="2005">
      <component glyphName="a" x="0" y="0" flags="0x1204"/>
      <component glyphName="grave" x="374" y="1145" flags="0x1004"/>
    </TTGlyph>
    <TTGlyph name="ahungarumlaut" xMin="95" yMin="-17" xMax="1381" yMax="2017">
      <component glyphName="a" x="0" y="0" flags="0x1204"/>
      <component glyphName="hungarumlaut" x="73" y="1180" flags="0x1004"/>
    </TTGlyph>
    <TTGlyph name="amacron" xMin="95" yMin="-17" xMax="1153" yMax="1556">
      <component glyphName="a" x="0" y="0" flags="0x1204"/>
      <component glyphName="macron#1" x="134" y="1180" flags="0x1004"/>
    </TTGlyph>
    <TTGlyph name="ampersand" xMin="107" yMin="-50" xMax="1593" yMax="1624">
      <contour>
        <pt x="736" y="1027" on="1"/>
        <pt x="772" y="1039" on="0"/>
        <pt x="856" y="1074" on="0"/>
        <pt x="927" y="1131" on="0"/>
        <pt x="973" y="1215" on="0"/>
        <pt x="972" y="1275" on="1"/>
        <pt x="970" y="1342" on="0"/>
        <pt x="882" y="1404" on="0"/>
        <pt x="807" y="1404" on="1"/>
        <pt x="740" y="1404" on="0"/>
        <pt x="660" y="1367" on="0"/>
        <pt x="618" y="1312" on="0"/>
        <pt x="606" y="1251" on="0"/>
        <pt x="607" y="1227" on="1"/>
        <pt x="608" y="1189" on="0"/>
        <pt x="638" y="1124" on="0"/>
        <pt x="677" y="1073" on="0"/>
        <pt x="715" y="1038" on="0"/>
        <pt x="724" y="1030" on="1"/>
      </contour>
      <contour>
        <pt x="1215" y="1328" on="1"/>
        <pt x="1216" y="1303" on="0"/>
        <pt x="1206" y="1225" on="0"/>
        <pt x="1179" y="1132" on="0"/>
        <pt x="1133" y="1032" on="0"/>
        <pt x="1060" y="939" on="0"/>
        <pt x="959" y="860" on="0"/>
        <pt x="892" y="835" on="1"/>
        <pt x="1178" y="540" on="1"/>
        <pt x="1198" y="631" on="0"/>
        <pt x="1237" y="811" on="0"/>
        <pt x="1256" y="902" on="1"/>
        <pt x="1514" y="896" on="1"/>
        <pt x="1507" y="834" on="0"/>
        <pt x="1484" y="712" on="0"/>
        <pt x="1455" y="599" on="0"/>
        <pt x="1424" y="499" on="0"/>
        <pt x="1396" y="420" on="0"/>
        <pt x="1374" y="365" on="0"/>
        <pt x="1369" y="354" on="1"/>
        <pt x="1593" y="129" on="1"/>
        <pt x="1440" y="-50" on="1"/>
        <pt x="1238" y="152" on="1"/>
        <pt x="1234" y="148" on="0"/>
        <pt x="1208" y="117" on="0"/>
        <pt x="1154" y="74" on="0"/>
        <pt x="1070" y="26" on="0"/>
        <pt x="947" y="-14" on="0"/>
        <pt x="779" y="-41" on="0"/>
        <pt x="670" y="-41" on="1"/>
        <pt x="553" y="-41" on="0"/>
        <pt x="350" y="5" on="0"/>
        <pt x="199" y="101" on="0"/>
        <pt x="110" y="252" on="0"/>
        <pt x="107" y="357" on="1"/>
        <pt x="103" y="479" on="0"/>
        <pt x="173" y="659" on="0"/>
        <pt x="289" y="789" on="0"/>
        <pt x="434" y="876" on="0"/>
        <pt x="504" y="905" on="1"/>
        <pt x="501" y="908" on="0"/>
        <pt x="474" y="934" on="0"/>
        <pt x="438" y="977" on="0"/>
        <pt x="398" y="1035" on="0"/>
        <pt x="363" y="1106" on="0"/>
        <pt x="340" y="1187" on="0"/>
        <pt x="339" y="1231" on="1"/>
        <pt x="336" y="1318" on="0"/>
        <pt x="408" y="1463" on="0"/>
        <pt x="537" y="1566" on="0"/>
        <pt x="713" y="1624" on="0"/>
        <pt x="815" y="1624" on="1"/>
        <pt x="903" y="1624" on="0"/>
        <pt x="1049" y="1583" on="0"/>
        <pt x="1154" y="1507" on="0"/>
        <pt x="1213" y="1397" on="0"/>
      </contour>
      <contour>
        <pt x="673" y="721" on="1"/>
        <pt x="531" y="685" on="0"/>
        <pt x="389" y="532" on="0"/>
        <pt x="393" y="417" on="1"/>
        <pt x="399" y="208" on="0"/>
        <pt x="697" y="208" on="1"/>
        <pt x="781" y="208" on="0"/>
        <pt x="912" y="238" on="0"/>
        <pt x="1005" y="276" on="0"/>
        <pt x="1058" y="313" on="0"/>
        <pt x="1062" y="321" on="1"/>
      </contour>
    </TTGlyph>
    <TTGlyph name="aogonek" xMin="95" yMin="-604" xMax="1153" yMax="1145">
      <component glyphName="a" x="0" y="0" flags="0x1204"/>
      <component glyphName="ogonek" x="556" y="0" flags="0x1004"/>
    </TTGlyph>
    <TTGlyph name="aring" xMin="95" yMin="-17" xMax="1153" yMax="1953">
      <component glyphName="a" x="0" y="0" flags="0x1204"/>
      <component glyphName="ring" x="291" y="1145" flags="0x1004"/>
    </TTGlyph>
    <TTGlyph name="asciicircum" xMin="607" yMin="552" xMax="1323" yMax="1192">
      <contour>
        <pt x="917" y="1192" on="1"/>
        <pt x="1136" y="1192" on="1"/>
        <pt x="1323" y="552" on="1"/>
        <pt x="1080" y="552" on="1"/>
        <pt x="1003" y="873" on="1"/>
        <pt x="864" y="552" on="1"/>
        <pt x="607" y="552" on="1"/>
      </contour>
    </TTGlyph>
    <TTGlyph name="asciitilde" xMin="156" yMin="151" xMax="1021" yMax="511">
      <contour>
        <pt x="762" y="151" on="1"/>
        <pt x="704" y="151" on="0"/>
        <pt x="605" y="198" on="0"/>
        <pt x="521" y="255" on="0"/>
        <pt x="451" y="302" on="0"/>
        <pt x="422" y="302" on="1"/>
        <pt x="391" y="302" on="0"/>
        <pt x="357" y="245" on="0"/>
        <pt x="349" y="176" on="1"/>
        <pt x="156" y="176" on="1"/>
        <pt x="203" y="511" on="0"/>
        <pt x="416" y="511" on="1"/>
        <pt x="476" y="511" on="0"/>
        <pt x="567" y="467" on="0"/>
        <pt x="643" y="413" on="0"/>
        <pt x="711" y="369" on="0"/>
        <pt x="750" y="369" on="1"/>
        <pt x="767" y="369" on="0"/>
        <pt x="789" y="378" on="0"/>
        <pt x="804" y="402" on="0"/>
        <pt x="814" y="443" on="0"/>
        <pt x="819" y="475" on="1"/>
        <pt x="1021" y="475" on="1"/>
        <pt x="1011" y="400" on="0"/>
        <pt x="965" y="280" on="0"/>
        <pt x="899" y="196" on="0"/>
        <pt x="813" y="151" on="0"/>
      </contour>
    </TTGlyph>
    <TTGlyph name="asterisk" xMin="158" yMin="766" xMax="1020" yMax="1661">
      <contour>
        <pt x="618" y="1419" on="1"/>
        <pt x="767" y="1661" on="1"/>
        <pt x="927" y="1554" on="1"/>
        <pt x="757" y="1306" on="1"/>
        <pt x="1020" y="1306" on="1"/>
        <pt x="994" y="1118" on="1"/>
        <pt x="736" y="1118" on="1"/>
        <pt x="844" y="871" on="1"/>
        <pt x="653" y="766" on="1"/>
        <pt x="560" y="1012" on="1"/>
        <pt x="398" y="766" on="1"/>
        <pt x="238" y="871" on="1"/>
        <pt x="417" y="1119" on="1"/>
        <pt x="158" y="1119" on="1"/>
        <pt x="186" y="1307" on="1"/>
        <pt x="448" y="1307" on="1"/>
        <pt x="349" y="1554" on="1"/>
        <pt x="539" y="1660" on="1"/>
      </contour>
    </TTGlyph>
    <TTGlyph name="at" xMin="177" yMin="-47" xMax="1789" yMax="1599">
      <contour>
        <pt x="968" y="1013" on="1"/>
        <pt x="909" y="986" on="0"/>
        <pt x="831" y="899" on="0"/>
        <pt x="808" y="856" on="1"/>
        <pt x="786" y="808" on="0"/>
        <pt x="764" y="710" on="0"/>
        <pt x="766" y="660" on="1"/>
        <pt x="767" y="611" on="0"/>
        <pt x="785" y="548" on="0"/>
        <pt x="816" y="512" on="0"/>
        <pt x="858" y="498" on="0"/>
        <pt x="884" y="498" on="1"/>
        <pt x="918" y="498" on="0"/>
        <pt x="978" y="518" on="0"/>
        <pt x="1027" y="551" on="0"/>
        <pt x="1067" y="595" on="0"/>
        <pt x="1082" y="618" on="1"/>
        <pt x="1093" y="636" on="0"/>
        <pt x="1117" y="675" on="0"/>
        <pt x="1141" y="723" on="0"/>
        <pt x="1164" y="782" on="0"/>
        <pt x="1175" y="819" on="1"/>
        <pt x="1233" y="1019" on="1"/>
        <pt x="1230" y="1020" on="0"/>
        <pt x="1190" y="1026" on="0"/>
        <pt x="1135" y="1033" on="0"/>
        <pt x="1077" y="1038" on="0"/>
        <pt x="1056" y="1038" on="1"/>
        <pt x="1014" y="1038" on="0"/>
      </contour>
      <contour>
        <pt x="1300" y="318" on="1"/>
        <pt x="1166" y="318" on="0"/>
        <pt x="1162" y="468" on="1"/>
        <pt x="1161" y="489" on="0"/>
        <pt x="1169" y="548" on="0"/>
        <pt x="1176" y="583" on="1"/>
        <pt x="1144" y="509" on="0"/>
        <pt x="1083" y="403" on="0"/>
        <pt x="1009" y="336" on="0"/>
        <pt x="917" y="305" on="0"/>
        <pt x="854" y="305" on="1"/>
        <pt x="789" y="305" on="0"/>
        <pt x="682" y="344" on="0"/>
        <pt x="604" y="422" on="0"/>
        <pt x="560" y="537" on="0"/>
        <pt x="557" y="613" on="1"/>
        <pt x="553" y="723" on="0"/>
        <pt x="603" y="897" on="0"/>
        <pt x="691" y="1032" on="0"/>
        <pt x="811" y="1130" on="0"/>
        <pt x="877" y="1163" on="1"/>
        <pt x="974" y="1213" on="0"/>
        <pt x="1076" y="1213" on="1"/>
        <pt x="1138" y="1213" on="0"/>
        <pt x="1259" y="1191" on="0"/>
        <pt x="1355" y="1147" on="0"/>
        <pt x="1415" y="1082" on="0"/>
        <pt x="1417" y="1039" on="1"/>
        <pt x="1418" y="1026" on="0"/>
        <pt x="1417" y="995" on="0"/>
        <pt x="1416" y="984" on="1"/>
        <pt x="1288" y="509" on="1"/>
        <pt x="1363" y="524" on="0"/>
        <pt x="1465" y="602" on="0"/>
        <pt x="1527" y="714" on="0"/>
        <pt x="1551" y="854" on="0"/>
        <pt x="1549" y="933" on="1"/>
        <pt x="1546" y="1045" on="0"/>
        <pt x="1480" y="1211" on="0"/>
        <pt x="1359" y="1321" on="0"/>
        <pt x="1186" y="1374" on="0"/>
        <pt x="1076" y="1374" on="1"/>
        <pt x="975" y="1374" on="0"/>
        <pt x="807" y="1314" on="0"/>
        <pt x="671" y="1213" on="0"/>
        <pt x="564" y="1082" on="0"/>
        <pt x="525" y="1010" on="1"/>
        <pt x="418" y="815" on="0"/>
        <pt x="425" y="597" on="1"/>
        <pt x="429" y="488" on="0"/>
        <pt x="502" y="327" on="0"/>
        <pt x="634" y="220" on="0"/>
        <pt x="821" y="168" on="0"/>
        <pt x="939" y="168" on="1"/>
        <pt x="982" y="168" on="0"/>
        <pt x="1054" y="178" on="0"/>
        <pt x="1115" y="195" on="0"/>
        <pt x="1171" y="218" on="0"/>
        <pt x="1200" y="232" on="1"/>
        <pt x="1206" y="186" on="0"/>
        <pt x="1226" y="85" on="0"/>
        <pt x="1232" y="39" on="1"/>
        <pt x="1166" y="1" on="0"/>
        <pt x="991" y="-47" on="0"/>
        <pt x="882" y="-47" on="1"/>
        <pt x="726" y="-47" on="0"/>
        <pt x="471" y="39" on="0"/>
        <pt x="286" y="199" on="0"/>
        <pt x="181" y="429" on="0"/>
        <pt x="177" y="573" on="1"/>
        <pt x="174" y="688" on="0"/>
        <pt x="225" y="932" on="0"/>
        <pt x="329" y="1160" on="0"/>
        <pt x="486" y="1359" on="0"/>
        <pt x="590" y="1430" on="1"/>
        <pt x="712" y="1515" on="0"/>
        <pt x="974" y="1599" on="0"/>
        <pt x="1120" y="1599" on="1"/>
        <pt x="1202" y="1599" on="0"/>
        <pt x="1363" y="1565" on="0"/>
        <pt x="1510" y="1496" on="0"/>
        <pt x="1636" y="1391" on="0"/>
        <pt x="1730" y="1249" on="0"/>
        <pt x="1786" y="1067" on="0"/>
        <pt x="1789" y="957" on="1"/>
        <pt x="1792" y="880" on="0"/>
        <pt x="1764" y="725" on="0"/>
        <pt x="1707" y="583" on="0"/>
        <pt x="1621" y="461" on="0"/>
        <pt x="1510" y="370" on="0"/>
        <pt x="1377" y="318" on="0"/>
      </contour>
    </TTGlyph>
    <TTGlyph name="atilde" xMin="95" yMin="-17" xMax="1171" yMax="1652">
      <component glyphName="a" x="0" y="0" flags="0x1204"/>
      <component glyphName="tilde" x="183" y="1145" flags="0x1004"/>
    </TTGlyph>
    <TTGlyph name="b" xMin="64" yMin="-17" xMax="1134" yMax="1667">
      <contour>
        <pt x="1124" y="577" on="1"/>
        <pt x="1107" y="458" on="0"/>
        <pt x="1032" y="243" on="0"/>
        <pt x="909" y="80" on="0"/>
        <pt x="733" y="-17" on="0"/>
        <pt x="614" y="-17" on="1"/>
        <pt x="560" y="-17" on="0"/>
        <pt x="472" y="12" on="0"/>
        <pt x="407" y="62" on="0"/>
        <pt x="368" y="131" on="0"/>
        <pt x="363" y="170" on="1"/>
        <pt x="275" y="0" on="1"/>
        <pt x="64" y="0" on="1"/>
        <pt x="300" y="1624" on="1"/>
        <pt x="609" y="1667" on="1"/>
        <pt x="511" y="999" on="1"/>
        <pt x="565" y="1068" on="0"/>
        <pt x="720" y="1144" on="0"/>
        <pt x="815" y="1145" on="1"/>
        <pt x="894" y="1144" on="0"/>
        <pt x="1015" y="1082" on="0"/>
        <pt x="1096" y="970" on="0"/>
        <pt x="1135" y="811" on="0"/>
        <pt x="1134" y="714" on="1"/>
        <pt x="1135" y="682" on="0"/>
        <pt x="1127" y="615" on="0"/>
      </contour>
      <contour>
        <pt x="583" y="213" on="1"/>
        <pt x="631" y="213" on="0"/>
        <pt x="707" y="265" on="0"/>
        <pt x="763" y="349" on="0"/>
        <pt x="801" y="458" on="0"/>
        <pt x="825" y="571" on="0"/>
        <pt x="835" y="681" on="0"/>
        <pt x="835" y="725" on="1"/>
        <pt x="835" y="818" on="0"/>
        <pt x="781" y="916" on="0"/>
        <pt x="715" y="916" on="1"/>
        <pt x="651" y="916" on="0"/>
        <pt x="533" y="854" on="0"/>
        <pt x="484" y="805" on="1"/>
        <pt x="481" y="785" on="0"/>
        <pt x="474" y="747" on="0"/>
        <pt x="472" y="727" on="1"/>
        <pt x="407" y="292" on="1"/>
        <pt x="423" y="260" on="0"/>
        <pt x="511" y="213" on="0"/>
      </contour>
    </TTGlyph>
    <TTGlyph name="backslash" xMin="383" yMin="-152" xMax="1017" yMax="1703">
      <contour>
        <pt x="652" y="1703" on="1"/>
        <pt x="1017" y="-102" on="1"/>
        <pt x="743" y="-152" on="1"/>
        <pt x="383" y="1654" on="1"/>
      </contour>
    </TTGlyph>
    <TTGlyph name="bar" xMin="292" yMin="-122" xMax="582" yMax="1713">
      <contour>
        <pt x="292" y="-122" on="1"/>
        <pt x="303" y="1713" on="1"/>
        <pt x="582" y="1713" on="1"/>
        <pt x="572" y="-122" on="1"/>
      </contour>
    </TTGlyph>
</ttFont>
